<?xml version="1.0" encoding="utf-8"?>
<!-- Generator: Adobe Illustrator 27.5.0, SVG Export Plug-In . SVG Version: 6.00 Build 0)  -->
<svg version="1.1" xmlns="http://www.w3.org/2000/svg" xmlns:xlink="http://www.w3.org/1999/xlink" x="0px" y="0px"
	 viewBox="0 0 500 500" style="enable-background:new 0 0 500 500;" xml:space="preserve">
<g id="Background_Simple">
	<g>
		<path style="fill:#35c0e7;" d="M428.471,301.377c0,0,48.501-54.499,33.081-149.341c-15.42-94.842-94.606-129.778-147.154-111.52
			c-52.548,18.259-64.369,50.018-107.29,68.194s-124.406,5.684-165.171,66.712C1.173,236.45,53.21,337.574,119.456,400.981
			C185.703,464.389,354.816,424.684,428.471,301.377z"/>
		<path style="opacity:0.7;fill:#FFFFFF;" d="M428.471,301.377c0,0,48.501-54.499,33.081-149.341
			c-15.42-94.842-94.606-129.778-147.154-111.52c-52.548,18.259-64.369,50.018-107.29,68.194s-124.406,5.684-165.171,66.712
			C1.173,236.45,53.21,337.574,119.456,400.981C185.703,464.389,354.816,424.684,428.471,301.377z"/>
	</g>
</g>
<g id="Lines">
	<g>
		
			<line style="fill:none;stroke:#263238;stroke-linecap:round;stroke-linejoin:round;stroke-miterlimit:10;" x1="244.884" y1="27.863" x2="244.884" y2="55.014"/>
		
			<line style="fill:none;stroke:#263238;stroke-linecap:round;stroke-linejoin:round;stroke-miterlimit:10;" x1="340.279" y1="46.208" x2="321.2" y2="71.892"/>
		
			<line style="fill:none;stroke:#263238;stroke-linecap:round;stroke-linejoin:round;stroke-miterlimit:10;" x1="363.027" y1="148.941" x2="392.379" y2="148.941"/>
		
			<line style="fill:none;stroke:#263238;stroke-linecap:round;stroke-linejoin:round;stroke-miterlimit:10;" x1="151.691" y1="46.208" x2="170.77" y2="71.892"/>
		
			<line style="fill:none;stroke:#263238;stroke-linecap:round;stroke-linejoin:round;stroke-miterlimit:10;" x1="128.943" y1="148.941" x2="99.59" y2="148.941"/>
	</g>
</g>
<g id="Floor">
	
		<line style="fill:none;stroke:#263238;stroke-linecap:round;stroke-linejoin:round;stroke-miterlimit:10;" x1="55.865" y1="457.771" x2="443.009" y2="457.771"/>
</g>
<g id="Plants">
	<g>
		<path style="fill:#263238;" d="M435.967,414.31c0.028,0.023,0.926-2.226,0.967-2.375c0.467-1.718,0.361-5.312-1.31-6.4
			c-1.203-0.784-2.733-0.222-3.365,1.003c-0.645,1.251-0.246,2.938,0.329,4.137C433.264,412.083,435.965,414.309,435.967,414.31z"/>
		<path style="fill:#263238;" d="M400.955,409.054c1.34,0.802,4.821,1.168,4.824,1.168c0.036,0.004-0.455-2.368-0.503-2.514
			c-0.558-1.691-2.63-4.629-4.624-4.616c-1.436,0.01-2.402,1.323-2.253,2.693C398.55,407.185,399.814,408.371,400.955,409.054z"/>
		<path style="fill:#263238;" d="M400.866,419.262c1.444,0.403,4.657-0.099,4.913-0.14c0.267,1.797,0.687,3.618,1.214,5.439
			c0.3,1.041,0.634,2.081,0.983,3.118c-0.229-0.45-0.438-0.851-0.473-0.904c-0.985-1.484-3.759-3.771-5.678-3.231
			c-1.383,0.389-1.968,1.91-1.462,3.192c0.516,1.31,2.048,2.121,3.329,2.478c1.3,0.362,4.047-0.01,4.773-0.119
			c0.138,0.397,0.271,0.795,0.41,1.191c0.669,1.901,1.344,3.795,1.949,5.673c0.214,0.662,0.4,1.321,0.589,1.98
			c-0.205-0.4-0.38-0.734-0.412-0.783c-0.984-1.483-3.759-3.771-5.678-3.231c-1.383,0.389-1.968,1.91-1.463,3.192
			c0.516,1.31,2.048,2.12,3.329,2.478c1.24,0.346,3.78,0.025,4.643-0.1c0.173,0.681,0.347,1.363,0.484,2.03
			c0.083,0.458,0.195,0.893,0.253,1.358c0.067,0.459,0.133,0.913,0.199,1.363c0.094,0.871,0.197,1.769,0.268,2.621
			c0.054,0.592,0.094,1.157,0.137,1.727c-0.205-0.661-0.634-1.947-0.682-2.051c-0.748-1.615-3.144-4.297-5.123-4.054
			c-1.426,0.175-2.234,1.59-1.929,2.934c0.312,1.372,1.703,2.406,2.915,2.953c1.334,0.602,4.459,0.608,4.849,0.606
			c0.067,0.942,0.123,1.86,0.161,2.726c0.112,2.377,0.138,4.435,0.133,6.061h1.314c-0.031-1.646-0.102-3.727-0.268-6.129
			c-0.064-0.957-0.151-1.979-0.251-3.027c0.243-0.062,1.622-0.425,2.867-0.925c0.872,1.226,3.301,2.84,3.616,3.047
			c-0.464,0.823-0.924,1.619-1.369,2.362c-1.085,1.821-2.087,3.392-2.93,4.672h1.534c0.725-1.17,1.544-2.537,2.417-4.078
			c0.475-0.833,0.966-1.734,1.461-2.663c0.362,0.125,3.327,1.133,4.786,0.994c1.324-0.126,2.975-0.654,3.714-1.852
			c0.723-1.173,0.415-2.773-0.878-3.4c-1.794-0.87-4.928,0.893-6.158,2.18c-0.073,0.076-0.768,0.987-1.198,1.57
			c0.2-0.381,0.399-0.748,0.6-1.143c0.404-0.777,0.784-1.565,1.195-2.41c0.185-0.415,0.371-0.835,0.559-1.259
			c0.196-0.416,0.349-0.881,0.528-1.325c0.392-1.038,0.739-2.109,1.064-3.195c0.682,0.352,3.12,1.566,4.453,1.642
			c1.327,0.076,3.04-0.196,3.951-1.269c0.892-1.05,0.831-2.678-0.352-3.494c-1.642-1.131-5.006,0.137-6.418,1.222
			c-0.088,0.068-1.013,0.96-1.512,1.461c0.19-0.655,0.384-1.307,0.555-1.976c0.495-1.93,0.935-3.898,1.383-5.86
			c0.137-0.601,0.28-1.198,0.422-1.797c0.241,0.128,3.108,1.634,4.601,1.719c1.327,0.076,3.04-0.196,3.951-1.269
			c0.892-1.05,0.83-2.679-0.352-3.494c-1.642-1.131-5.006,0.136-6.418,1.222c-0.106,0.082-1.435,1.368-1.757,1.712
			c0.312-1.318,0.635-2.628,1.006-3.907c0.51-1.765,1.107-3.469,1.808-5.077c0.112,0.06,3.097,1.645,4.627,1.733
			c1.328,0.076,3.04-0.196,3.952-1.269c0.892-1.05,0.83-2.678-0.352-3.493c-1.642-1.131-5.006,0.136-6.418,1.222
			c-0.092,0.071-1.106,1.05-1.577,1.527c-0.052-0.036-0.042-0.029-0.094-0.065c0.772-1.713,1.735-3.276,2.709-4.694
			c0.562-0.822,1.146-1.577,1.73-2.298c0.526,0.352,2.945,1.935,4.314,2.166c1.311,0.221,3.043,0.139,4.067-0.827
			c1.002-0.946,1.12-2.571,0.034-3.511c-1.508-1.305-4.991-0.414-6.513,0.51c-0.083,0.05-0.868,0.654-1.433,1.102
			c0.269-0.322,0.54-0.658,0.803-0.962c0.987-1.14,1.96-2.123,2.83-2.987c0.499-0.487,0.959-0.918,1.393-1.316
			c0.696,0.077,3.505,0.349,4.802-0.068c1.266-0.408,2.765-1.279,3.228-2.608c0.454-1.301-0.191-2.798-1.588-3.132
			c-1.939-0.463-4.62,1.932-5.545,3.454c-0.08,0.132-1.094,2.331-1.057,2.336c0,0,0.034,0.004,0.042,0.005
			c-0.426,0.375-0.879,0.782-1.364,1.236c-0.89,0.846-1.888,1.811-2.903,2.934c-1.017,1.12-2.092,2.365-3.104,3.778
			c-1.017,1.416-2.015,2.956-2.837,4.677c-0.009,0.019-0.017,0.041-0.026,0.06c0.084-0.578,0.266-2.202,0.266-2.328
			c-0.003-1.78-1.055-5.219-2.953-5.827c-1.368-0.438-2.695,0.508-2.981,1.856c-0.292,1.377,0.539,2.899,1.41,3.903
			c0.983,1.133,3.939,2.487,4.175,2.594c-0.768,1.646-1.423,3.397-1.988,5.206c-0.324,1.034-0.619,2.085-0.901,3.143
			c0.057-0.502,0.104-0.951,0.104-1.015c-0.003-1.78-1.055-5.219-2.954-5.827c-1.368-0.438-2.695,0.508-2.981,1.856
			c-0.292,1.377,0.539,2.899,1.41,3.903c0.884,1.019,3.382,2.224,4.047,2.534c-0.104,0.407-0.212,0.812-0.314,1.219
			c-0.491,1.954-0.973,3.907-1.504,5.807c-0.187,0.67-0.396,1.323-0.602,1.977c0.05-0.446,0.088-0.822,0.088-0.88
			c-0.003-1.78-1.055-5.219-2.954-5.827c-1.368-0.438-2.695,0.507-2.981,1.856c-0.292,1.377,0.539,2.898,1.41,3.903
			c0.844,0.973,3.139,2.105,3.928,2.478c-0.232,0.663-0.462,1.328-0.717,1.96c-0.184,0.428-0.33,0.852-0.538,1.272
			c-0.197,0.419-0.393,0.835-0.586,1.246c-0.402,0.779-0.811,1.585-1.222,2.334c-0.282,0.524-0.56,1.017-0.839,1.516
			c0.194-0.665,0.546-1.974,0.563-2.086c0.177-1.17,0.005-3.13-0.653-4.577c0.027-0.173,0.039-0.347,0.034-0.522
			c-0.044-1.377-1.184-2.542-2.608-2.352c-1.976,0.264-3.617,3.464-3.934,5.216c-0.019,0.103-0.096,1.247-0.133,1.97
			c-0.043-0.428-0.08-0.844-0.13-1.284c-0.092-0.871-0.21-1.737-0.333-2.67c-0.075-0.448-0.152-0.901-0.229-1.358
			c-0.066-0.455-0.195-0.927-0.29-1.396c-0.246-1.082-0.547-2.166-0.875-3.252c0.762-0.083,3.466-0.415,4.62-1.087
			c1.149-0.669,2.427-1.841,2.596-3.238c0.165-1.368-0.785-2.692-2.221-2.72c-1.993-0.038-4.1,2.876-4.678,4.56
			c-0.036,0.105-0.315,1.36-0.455,2.052c-0.202-0.651-0.401-1.302-0.627-1.954c-0.652-1.882-1.371-3.767-2.08-5.65
			c-0.217-0.577-0.427-1.154-0.639-1.731c0.271-0.026,3.493-0.352,4.786-1.105c1.149-0.669,2.427-1.841,2.596-3.238
			c0.165-1.368-0.785-2.692-2.221-2.719c-1.993-0.038-4.1,2.876-4.679,4.56c-0.043,0.127-0.442,1.933-0.521,2.397
			c-0.467-1.271-0.92-2.542-1.316-3.814c-0.549-1.754-0.99-3.504-1.292-5.232c0.126-0.012,3.49-0.337,4.815-1.108
			c1.149-0.669,2.427-1.84,2.596-3.238c0.165-1.368-0.785-2.692-2.221-2.719c-1.994-0.038-4.101,2.875-4.678,4.559
			c-0.038,0.111-0.344,1.487-0.473,2.145c-0.063-0.001-0.051-0.001-0.114-0.002c-0.302-1.855-0.36-3.69-0.33-5.41
			c0.015-0.996,0.086-1.948,0.175-2.872c0.633,0.004,3.524-0.011,4.793-0.573c1.216-0.539,2.615-1.563,2.936-2.933
			c0.314-1.342-0.485-2.762-1.909-2.947c-1.977-0.257-4.391,2.408-5.151,4.018c-0.041,0.087-0.363,1.024-0.587,1.71
			c0.047-0.416,0.087-0.847,0.14-1.245c0.194-1.495,0.464-2.852,0.712-4.052c0.147-0.681,0.293-1.294,0.436-1.867
			c0.623-0.32,3.117-1.642,3.968-2.706c0.831-1.038,1.6-2.592,1.254-3.956c-0.339-1.336-1.703-2.228-3.052-1.736
			c-1.873,0.683-2.788,4.161-2.72,5.94c0.006,0.154,0.374,2.548,0.407,2.531c0,0,0.03-0.016,0.037-0.019
			c-0.149,0.548-0.302,1.137-0.456,1.784c-0.275,1.197-0.576,2.552-0.803,4.049c-0.231,1.495-0.44,3.126-0.505,4.864
			c-0.068,1.742-0.05,3.578,0.213,5.466c0.003,0.021,0.009,0.043,0.012,0.064c-0.249-0.528-0.993-1.983-1.063-2.088
			c-0.985-1.483-3.759-3.771-5.678-3.231c-1.383,0.389-1.968,1.91-1.462,3.192C398.053,418.094,399.585,418.905,400.866,419.262z"/>
		<path style="opacity:0.3;fill:#263238;" d="M400.955,409.054c1.34,0.802,4.821,1.168,4.824,1.168
			c0.036,0.004-0.455-2.368-0.503-2.514c-0.558-1.691-2.63-4.629-4.624-4.616c-1.436,0.01-2.402,1.323-2.253,2.693
			C398.55,407.185,399.814,408.371,400.955,409.054z"/>
		<path style="opacity:0.3;fill:#263238;" d="M435.967,414.31c0.028,0.023,0.926-2.226,0.967-2.375
			c0.467-1.718,0.361-5.312-1.31-6.4c-1.203-0.784-2.733-0.222-3.365,1.003c-0.645,1.251-0.246,2.938,0.329,4.137
			C433.264,412.083,435.965,414.309,435.967,414.31z"/>
		<path style="opacity:0.3;fill:#263238;" d="M400.866,419.262c1.444,0.403,4.657-0.099,4.913-0.14
			c0.267,1.797,0.687,3.618,1.214,5.439c0.3,1.041,0.634,2.081,0.983,3.118c-0.229-0.45-0.438-0.851-0.473-0.904
			c-0.985-1.484-3.759-3.771-5.678-3.231c-1.383,0.389-1.968,1.91-1.462,3.192c0.516,1.31,2.048,2.121,3.329,2.478
			c1.3,0.362,4.047-0.01,4.773-0.119c0.138,0.397,0.271,0.795,0.41,1.191c0.669,1.901,1.344,3.795,1.949,5.673
			c0.214,0.662,0.4,1.321,0.589,1.98c-0.205-0.4-0.38-0.734-0.412-0.783c-0.984-1.483-3.759-3.771-5.678-3.231
			c-1.383,0.389-1.968,1.91-1.463,3.192c0.516,1.31,2.048,2.12,3.329,2.478c1.24,0.346,3.78,0.025,4.643-0.1
			c0.173,0.681,0.347,1.363,0.484,2.03c0.083,0.458,0.195,0.893,0.253,1.358c0.067,0.459,0.133,0.913,0.199,1.363
			c0.094,0.871,0.197,1.769,0.268,2.621c0.054,0.592,0.094,1.157,0.137,1.727c-0.205-0.661-0.634-1.947-0.682-2.051
			c-0.748-1.615-3.144-4.297-5.123-4.054c-1.426,0.175-2.234,1.59-1.929,2.934c0.312,1.372,1.703,2.406,2.915,2.953
			c1.334,0.602,4.459,0.608,4.849,0.606c0.067,0.942,0.123,1.86,0.161,2.726c0.112,2.377,0.138,4.435,0.133,6.061h1.314
			c-0.031-1.646-0.102-3.727-0.268-6.129c-0.064-0.957-0.151-1.979-0.251-3.027c0.243-0.062,1.622-0.425,2.867-0.925
			c0.872,1.226,3.301,2.84,3.616,3.047c-0.464,0.823-0.924,1.619-1.369,2.362c-1.085,1.821-2.087,3.392-2.93,4.672h1.534
			c0.725-1.17,1.544-2.537,2.417-4.078c0.475-0.833,0.966-1.734,1.461-2.663c0.362,0.125,3.327,1.133,4.786,0.994
			c1.324-0.126,2.975-0.654,3.714-1.852c0.723-1.173,0.415-2.773-0.878-3.4c-1.794-0.87-4.928,0.893-6.158,2.18
			c-0.073,0.076-0.768,0.987-1.198,1.57c0.2-0.381,0.399-0.748,0.6-1.143c0.404-0.777,0.784-1.565,1.195-2.41
			c0.185-0.415,0.371-0.835,0.559-1.259c0.196-0.416,0.349-0.881,0.528-1.325c0.392-1.038,0.739-2.109,1.064-3.195
			c0.682,0.352,3.12,1.566,4.453,1.642c1.327,0.076,3.04-0.196,3.951-1.269c0.892-1.05,0.831-2.678-0.352-3.494
			c-1.642-1.131-5.006,0.137-6.418,1.222c-0.088,0.068-1.013,0.96-1.512,1.461c0.19-0.655,0.384-1.307,0.555-1.976
			c0.495-1.93,0.935-3.898,1.383-5.86c0.137-0.601,0.28-1.198,0.422-1.797c0.241,0.128,3.108,1.634,4.601,1.719
			c1.327,0.076,3.04-0.196,3.951-1.269c0.892-1.05,0.83-2.679-0.352-3.494c-1.642-1.131-5.006,0.136-6.418,1.222
			c-0.106,0.082-1.435,1.368-1.757,1.712c0.312-1.318,0.635-2.628,1.006-3.907c0.51-1.765,1.107-3.469,1.808-5.077
			c0.112,0.06,3.097,1.645,4.627,1.733c1.328,0.076,3.04-0.196,3.952-1.269c0.892-1.05,0.83-2.678-0.352-3.493
			c-1.642-1.131-5.006,0.136-6.418,1.222c-0.092,0.071-1.106,1.05-1.577,1.527c-0.052-0.036-0.042-0.029-0.094-0.065
			c0.772-1.713,1.735-3.276,2.709-4.694c0.562-0.822,1.146-1.577,1.73-2.298c0.526,0.352,2.945,1.935,4.314,2.166
			c1.311,0.221,3.043,0.139,4.067-0.827c1.002-0.946,1.12-2.571,0.034-3.511c-1.508-1.305-4.991-0.414-6.513,0.51
			c-0.083,0.05-0.868,0.654-1.433,1.102c0.269-0.322,0.54-0.658,0.803-0.962c0.987-1.14,1.96-2.123,2.83-2.987
			c0.499-0.487,0.959-0.918,1.393-1.316c0.696,0.077,3.505,0.349,4.802-0.068c1.266-0.408,2.765-1.279,3.228-2.608
			c0.454-1.301-0.191-2.798-1.588-3.132c-1.939-0.463-4.62,1.932-5.545,3.454c-0.08,0.132-1.094,2.331-1.057,2.336
			c0,0,0.034,0.004,0.042,0.005c-0.426,0.375-0.879,0.782-1.364,1.236c-0.89,0.846-1.888,1.811-2.903,2.934
			c-1.017,1.12-2.092,2.365-3.104,3.778c-1.017,1.416-2.015,2.956-2.837,4.677c-0.009,0.019-0.017,0.041-0.026,0.06
			c0.084-0.578,0.266-2.202,0.266-2.328c-0.003-1.78-1.055-5.219-2.953-5.827c-1.368-0.438-2.695,0.508-2.981,1.856
			c-0.292,1.377,0.539,2.899,1.41,3.903c0.983,1.133,3.939,2.487,4.175,2.594c-0.768,1.646-1.423,3.397-1.988,5.206
			c-0.324,1.034-0.619,2.085-0.901,3.143c0.057-0.502,0.104-0.951,0.104-1.015c-0.003-1.78-1.055-5.219-2.954-5.827
			c-1.368-0.438-2.695,0.508-2.981,1.856c-0.292,1.377,0.539,2.899,1.41,3.903c0.884,1.019,3.382,2.224,4.047,2.534
			c-0.104,0.407-0.212,0.812-0.314,1.219c-0.491,1.954-0.973,3.907-1.504,5.807c-0.187,0.67-0.396,1.323-0.602,1.977
			c0.05-0.446,0.088-0.822,0.088-0.88c-0.003-1.78-1.055-5.219-2.954-5.827c-1.368-0.438-2.695,0.507-2.981,1.856
			c-0.292,1.377,0.539,2.898,1.41,3.903c0.844,0.973,3.139,2.105,3.928,2.478c-0.232,0.663-0.462,1.328-0.717,1.96
			c-0.184,0.428-0.33,0.852-0.538,1.272c-0.197,0.419-0.393,0.835-0.586,1.246c-0.402,0.779-0.811,1.585-1.222,2.334
			c-0.282,0.524-0.56,1.017-0.839,1.516c0.194-0.665,0.546-1.974,0.563-2.086c0.177-1.17,0.005-3.13-0.653-4.577
			c0.027-0.173,0.039-0.347,0.034-0.522c-0.044-1.377-1.184-2.542-2.608-2.352c-1.976,0.264-3.617,3.464-3.934,5.216
			c-0.019,0.103-0.096,1.247-0.133,1.97c-0.043-0.428-0.08-0.844-0.13-1.284c-0.092-0.871-0.21-1.737-0.333-2.67
			c-0.075-0.448-0.152-0.901-0.229-1.358c-0.066-0.455-0.195-0.927-0.29-1.396c-0.246-1.082-0.547-2.166-0.875-3.252
			c0.762-0.083,3.466-0.415,4.62-1.087c1.149-0.669,2.427-1.841,2.596-3.238c0.165-1.368-0.785-2.692-2.221-2.72
			c-1.993-0.038-4.1,2.876-4.678,4.56c-0.036,0.105-0.315,1.36-0.455,2.052c-0.202-0.651-0.401-1.302-0.627-1.954
			c-0.652-1.882-1.371-3.767-2.08-5.65c-0.217-0.577-0.427-1.154-0.639-1.731c0.271-0.026,3.493-0.352,4.786-1.105
			c1.149-0.669,2.427-1.841,2.596-3.238c0.165-1.368-0.785-2.692-2.221-2.719c-1.993-0.038-4.1,2.876-4.679,4.56
			c-0.043,0.127-0.442,1.933-0.521,2.397c-0.467-1.271-0.92-2.542-1.316-3.814c-0.549-1.754-0.99-3.504-1.292-5.232
			c0.126-0.012,3.49-0.337,4.815-1.108c1.149-0.669,2.427-1.84,2.596-3.238c0.165-1.368-0.785-2.692-2.221-2.719
			c-1.994-0.038-4.101,2.875-4.678,4.559c-0.038,0.111-0.344,1.487-0.473,2.145c-0.063-0.001-0.051-0.001-0.114-0.002
			c-0.302-1.855-0.36-3.69-0.33-5.41c0.015-0.996,0.086-1.948,0.175-2.872c0.633,0.004,3.524-0.011,4.793-0.573
			c1.216-0.539,2.615-1.563,2.936-2.933c0.314-1.342-0.485-2.762-1.909-2.947c-1.977-0.257-4.391,2.408-5.151,4.018
			c-0.041,0.087-0.363,1.024-0.587,1.71c0.047-0.416,0.087-0.847,0.14-1.245c0.194-1.495,0.464-2.852,0.712-4.052
			c0.147-0.681,0.293-1.294,0.436-1.867c0.623-0.32,3.117-1.642,3.968-2.706c0.831-1.038,1.6-2.592,1.254-3.956
			c-0.339-1.336-1.703-2.228-3.052-1.736c-1.873,0.683-2.788,4.161-2.72,5.94c0.006,0.154,0.374,2.548,0.407,2.531
			c0,0,0.03-0.016,0.037-0.019c-0.149,0.548-0.302,1.137-0.456,1.784c-0.275,1.197-0.576,2.552-0.803,4.049
			c-0.231,1.495-0.44,3.126-0.505,4.864c-0.068,1.742-0.05,3.578,0.213,5.466c0.003,0.021,0.009,0.043,0.012,0.064
			c-0.249-0.528-0.993-1.983-1.063-2.088c-0.985-1.483-3.759-3.771-5.678-3.231c-1.383,0.389-1.968,1.91-1.462,3.192
			C398.053,418.094,399.585,418.905,400.866,419.262z"/>
	</g>
	<g>
		<path style="fill:#263238;" d="M63.293,429.794c-0.018,0.015-0.596-1.433-0.623-1.529c-0.301-1.106-0.232-3.419,0.843-4.12
			c0.775-0.505,1.759-0.143,2.166,0.645c0.415,0.805,0.158,1.891-0.212,2.663C65.034,428.36,63.295,429.793,63.293,429.794z"/>
		<path style="fill:#263238;" d="M85.832,426.41c-0.862,0.516-3.104,0.752-3.105,0.752c-0.023,0.003,0.293-1.524,0.324-1.618
			c0.359-1.088,1.693-2.98,2.976-2.971c0.925,0.007,1.546,0.851,1.451,1.733C87.38,425.207,86.567,425.971,85.832,426.41z"/>
		<path style="fill:#263238;" d="M85.889,432.982c-0.93,0.259-2.998-0.064-3.163-0.09c-0.172,1.157-0.442,2.329-0.781,3.501
			c-0.193,0.67-0.408,1.339-0.632,2.007c0.148-0.29,0.282-0.548,0.305-0.582c0.634-0.955,2.42-2.427,3.655-2.08
			c0.89,0.25,1.267,1.229,0.941,2.055c-0.332,0.843-1.318,1.365-2.143,1.595c-0.837,0.233-2.605-0.007-3.073-0.077
			c-0.089,0.255-0.174,0.511-0.264,0.766c-0.43,1.224-0.865,2.443-1.255,3.652c-0.138,0.426-0.258,0.85-0.379,1.275
			c0.132-0.257,0.245-0.473,0.265-0.504c0.634-0.955,2.42-2.427,3.655-2.08c0.89,0.25,1.267,1.23,0.941,2.055
			c-0.332,0.843-1.318,1.365-2.143,1.595c-0.798,0.223-2.433,0.016-2.989-0.064c-0.111,0.438-0.224,0.877-0.312,1.307
			c-0.053,0.295-0.125,0.575-0.163,0.874c-0.043,0.295-0.086,0.588-0.128,0.877c-0.061,0.56-0.127,1.139-0.173,1.687
			c-0.035,0.381-0.061,0.745-0.088,1.111c0.132-0.426,0.408-1.253,0.439-1.32c0.482-1.04,2.024-2.766,3.298-2.609
			c0.918,0.113,1.438,1.023,1.242,1.889c-0.201,0.883-1.096,1.549-1.877,1.901c-0.859,0.388-2.87,0.391-3.121,0.39
			c-0.043,0.607-0.079,1.197-0.104,1.755c-0.072,1.53-0.089,2.855-0.086,3.902h-0.846c0.02-1.059,0.066-2.399,0.172-3.945
			c0.041-0.616,0.097-1.274,0.161-1.948c-0.156-0.04-1.044-0.274-1.846-0.596c-0.561,0.789-2.125,1.828-2.328,1.961
			c0.299,0.53,0.594,1.042,0.881,1.521c0.698,1.172,1.343,2.183,1.886,3.007h-0.988c-0.466-0.753-0.994-1.633-1.556-2.625
			c-0.306-0.536-0.622-1.116-0.94-1.714c-0.233,0.081-2.142,0.729-3.081,0.64c-0.852-0.081-1.915-0.421-2.39-1.193
			c-0.466-0.755-0.267-1.785,0.565-2.189c1.155-0.56,3.172,0.575,3.964,1.403c0.047,0.049,0.494,0.636,0.771,1.011
			c-0.129-0.245-0.257-0.482-0.386-0.736c-0.26-0.5-0.504-1.007-0.769-1.552c-0.119-0.267-0.239-0.538-0.36-0.81
			c-0.126-0.268-0.225-0.567-0.34-0.853c-0.252-0.668-0.475-1.357-0.685-2.057c-0.439,0.226-2.008,1.008-2.867,1.057
			c-0.854,0.049-1.957-0.126-2.543-0.817c-0.574-0.676-0.535-1.724,0.227-2.249c1.057-0.728,3.223,0.088,4.131,0.787
			c0.057,0.044,0.652,0.618,0.973,0.94c-0.123-0.421-0.247-0.841-0.357-1.272c-0.318-1.242-0.602-2.509-0.89-3.772
			c-0.088-0.387-0.181-0.771-0.272-1.157c-0.155,0.082-2,1.052-2.962,1.107c-0.854,0.049-1.957-0.126-2.544-0.817
			c-0.574-0.676-0.535-1.724,0.227-2.249c1.057-0.728,3.223,0.088,4.131,0.787c0.068,0.053,0.924,0.881,1.131,1.102
			c-0.201-0.848-0.409-1.692-0.648-2.515c-0.328-1.136-0.713-2.233-1.164-3.268c-0.072,0.039-1.994,1.059-2.978,1.115
			c-0.855,0.049-1.957-0.126-2.544-0.817c-0.574-0.676-0.535-1.724,0.227-2.249c1.057-0.728,3.223,0.088,4.131,0.787
			c0.06,0.046,0.712,0.676,1.015,0.983c0.033-0.023,0.027-0.019,0.06-0.042c-0.497-1.103-1.117-2.109-1.744-3.021
			c-0.362-0.529-0.738-1.015-1.114-1.48c-0.338,0.227-1.896,1.246-2.777,1.394c-0.844,0.142-1.959,0.089-2.618-0.532
			c-0.645-0.609-0.721-1.655-0.022-2.26c0.97-0.84,3.213-0.267,4.192,0.328c0.053,0.033,0.558,0.421,0.922,0.71
			c-0.173-0.207-0.348-0.424-0.517-0.619c-0.635-0.734-1.262-1.367-1.822-1.923c-0.321-0.314-0.617-0.591-0.897-0.847
			c-0.448,0.049-2.257,0.225-3.091-0.044c-0.815-0.263-1.78-0.823-2.078-1.679c-0.292-0.838,0.123-1.801,1.022-2.016
			c1.248-0.298,2.974,1.244,3.57,2.223c0.051,0.085,0.704,1.501,0.681,1.503c0,0-0.022,0.002-0.027,0.003
			c0.274,0.241,0.566,0.503,0.878,0.796c0.573,0.545,1.215,1.166,1.869,1.889c0.655,0.721,1.346,1.522,1.998,2.432
			c0.655,0.911,1.297,1.903,1.826,3.011c0.006,0.013,0.011,0.026,0.017,0.039c-0.054-0.372-0.171-1.417-0.171-1.499
			c0.002-1.146,0.679-3.359,1.901-3.751c0.881-0.282,1.735,0.327,1.919,1.195c0.188,0.886-0.347,1.866-0.908,2.513
			c-0.633,0.729-2.536,1.601-2.688,1.669c0.495,1.06,0.916,2.187,1.28,3.351c0.209,0.665,0.398,1.342,0.58,2.023
			c-0.037-0.323-0.067-0.612-0.067-0.653c0.002-1.146,0.679-3.359,1.901-3.751c0.881-0.282,1.735,0.327,1.919,1.195
			c0.188,0.886-0.347,1.866-0.908,2.513c-0.569,0.656-2.177,1.432-2.605,1.631c0.067,0.262,0.136,0.523,0.202,0.785
			c0.316,1.258,0.626,2.515,0.968,3.738c0.12,0.431,0.255,0.852,0.387,1.272c-0.032-0.287-0.057-0.529-0.057-0.566
			c0.002-1.146,0.679-3.359,1.901-3.751c0.881-0.282,1.735,0.327,1.919,1.195c0.188,0.886-0.347,1.866-0.908,2.512
			c-0.543,0.626-2.021,1.355-2.528,1.595c0.149,0.427,0.298,0.855,0.461,1.262c0.118,0.275,0.213,0.549,0.347,0.819
			c0.127,0.27,0.253,0.537,0.377,0.802c0.259,0.501,0.522,1.02,0.786,1.503c0.182,0.337,0.361,0.655,0.54,0.975
			c-0.125-0.428-0.351-1.271-0.362-1.343c-0.114-0.753-0.003-2.015,0.42-2.946c-0.018-0.111-0.025-0.223-0.022-0.336
			c0.029-0.887,0.762-1.636,1.679-1.514c1.272,0.17,2.329,2.23,2.532,3.357c0.012,0.066,0.062,0.803,0.085,1.268
			c0.028-0.276,0.051-0.543,0.083-0.827c0.059-0.561,0.135-1.118,0.214-1.719c0.049-0.288,0.098-0.58,0.147-0.874
			c0.043-0.293,0.125-0.597,0.187-0.899c0.158-0.696,0.352-1.394,0.563-2.093c-0.491-0.053-2.231-0.267-2.974-0.7
			c-0.74-0.431-1.562-1.185-1.671-2.084c-0.106-0.881,0.505-1.733,1.43-1.751c1.283-0.024,2.64,1.851,3.012,2.935
			c0.023,0.068,0.203,0.875,0.293,1.321c0.13-0.419,0.258-0.838,0.404-1.258c0.42-1.212,0.883-2.425,1.339-3.637
			c0.14-0.371,0.275-0.743,0.412-1.114c-0.175-0.017-2.249-0.227-3.081-0.711c-0.74-0.431-1.563-1.185-1.671-2.084
			c-0.106-0.881,0.505-1.733,1.43-1.751c1.283-0.024,2.639,1.851,3.012,2.935c0.028,0.082,0.285,1.244,0.336,1.543
			c0.3-0.818,0.592-1.637,0.847-2.455c0.353-1.129,0.637-2.256,0.832-3.368c-0.081-0.008-2.247-0.217-3.099-0.713
			c-0.74-0.43-1.562-1.185-1.671-2.084c-0.106-0.881,0.505-1.733,1.43-1.751c1.283-0.024,2.64,1.851,3.012,2.935
			c0.025,0.071,0.221,0.958,0.305,1.381c0.04-0.001,0.033-0.001,0.073-0.001c0.194-1.194,0.232-2.375,0.212-3.483
			c-0.01-0.641-0.055-1.254-0.113-1.849c-0.407,0.003-2.269-0.007-3.085-0.369c-0.783-0.347-1.683-1.006-1.89-1.888
			c-0.202-0.864,0.312-1.778,1.229-1.897c1.273-0.165,2.827,1.55,3.316,2.587c0.027,0.056,0.233,0.659,0.378,1.1
			c-0.03-0.268-0.056-0.545-0.09-0.802c-0.125-0.962-0.298-1.836-0.458-2.609c-0.095-0.439-0.189-0.833-0.281-1.202
			c-0.401-0.206-2.006-1.057-2.554-1.742c-0.535-0.668-1.03-1.669-0.807-2.547c0.219-0.86,1.096-1.434,1.965-1.117
			c1.206,0.44,1.794,2.678,1.751,3.824c-0.004,0.099-0.241,1.64-0.262,1.63c0,0-0.02-0.01-0.024-0.013
			c0.096,0.353,0.194,0.732,0.293,1.148c0.177,0.77,0.371,1.643,0.517,2.606c0.149,0.962,0.283,2.012,0.325,3.131
			c0.043,1.121,0.032,2.303-0.137,3.519c-0.002,0.014-0.006,0.028-0.008,0.042c0.16-0.34,0.639-1.277,0.684-1.344
			c0.634-0.955,2.42-2.427,3.655-2.08c0.89,0.251,1.267,1.229,0.941,2.055C87.7,432.23,86.714,432.752,85.889,432.982z"/>
		<path style="opacity:0.3;fill:#263238;" d="M85.832,426.41c-0.862,0.516-3.104,0.752-3.105,0.752
			c-0.023,0.003,0.293-1.524,0.324-1.618c0.359-1.088,1.693-2.98,2.976-2.971c0.925,0.007,1.546,0.851,1.451,1.733
			C87.38,425.207,86.567,425.971,85.832,426.41z"/>
		<path style="opacity:0.3;fill:#263238;" d="M63.293,429.794c-0.018,0.015-0.596-1.433-0.623-1.529
			c-0.301-1.106-0.232-3.419,0.843-4.12c0.775-0.505,1.759-0.143,2.166,0.645c0.415,0.805,0.158,1.891-0.212,2.663
			C65.034,428.36,63.295,429.793,63.293,429.794z"/>
		<path style="opacity:0.3;fill:#263238;" d="M85.889,432.982c-0.93,0.259-2.998-0.064-3.163-0.09
			c-0.172,1.157-0.442,2.329-0.781,3.501c-0.193,0.67-0.408,1.339-0.632,2.007c0.148-0.29,0.282-0.548,0.305-0.582
			c0.634-0.955,2.42-2.427,3.655-2.08c0.89,0.25,1.267,1.229,0.941,2.055c-0.332,0.843-1.318,1.365-2.143,1.595
			c-0.837,0.233-2.605-0.007-3.073-0.077c-0.089,0.255-0.174,0.511-0.264,0.766c-0.43,1.224-0.865,2.443-1.255,3.652
			c-0.138,0.426-0.258,0.85-0.379,1.275c0.132-0.257,0.245-0.473,0.265-0.504c0.634-0.955,2.42-2.427,3.655-2.08
			c0.89,0.25,1.267,1.23,0.941,2.055c-0.332,0.843-1.318,1.365-2.143,1.595c-0.798,0.223-2.433,0.016-2.989-0.064
			c-0.111,0.438-0.224,0.877-0.312,1.307c-0.053,0.295-0.125,0.575-0.163,0.874c-0.043,0.295-0.086,0.588-0.128,0.877
			c-0.061,0.56-0.127,1.139-0.173,1.687c-0.035,0.381-0.061,0.745-0.088,1.111c0.132-0.426,0.408-1.253,0.439-1.32
			c0.482-1.04,2.024-2.766,3.298-2.609c0.918,0.113,1.438,1.023,1.242,1.889c-0.201,0.883-1.096,1.549-1.877,1.901
			c-0.859,0.388-2.87,0.391-3.121,0.39c-0.043,0.607-0.079,1.197-0.104,1.755c-0.072,1.53-0.089,2.855-0.086,3.902h-0.846
			c0.02-1.059,0.066-2.399,0.172-3.945c0.041-0.616,0.097-1.274,0.161-1.948c-0.156-0.04-1.044-0.274-1.846-0.596
			c-0.561,0.789-2.125,1.828-2.328,1.961c0.299,0.53,0.594,1.042,0.881,1.521c0.698,1.172,1.343,2.183,1.886,3.007h-0.988
			c-0.466-0.753-0.994-1.633-1.556-2.625c-0.306-0.536-0.622-1.116-0.94-1.714c-0.233,0.081-2.142,0.729-3.081,0.64
			c-0.852-0.081-1.915-0.421-2.39-1.193c-0.466-0.755-0.267-1.785,0.565-2.189c1.155-0.56,3.172,0.575,3.964,1.403
			c0.047,0.049,0.494,0.636,0.771,1.011c-0.129-0.245-0.257-0.482-0.386-0.736c-0.26-0.5-0.504-1.007-0.769-1.552
			c-0.119-0.267-0.239-0.538-0.36-0.81c-0.126-0.268-0.225-0.567-0.34-0.853c-0.252-0.668-0.475-1.357-0.685-2.057
			c-0.439,0.226-2.008,1.008-2.867,1.057c-0.854,0.049-1.957-0.126-2.543-0.817c-0.574-0.676-0.535-1.724,0.227-2.249
			c1.057-0.728,3.223,0.088,4.131,0.787c0.057,0.044,0.652,0.618,0.973,0.94c-0.123-0.421-0.247-0.841-0.357-1.272
			c-0.318-1.242-0.602-2.509-0.89-3.772c-0.088-0.387-0.181-0.771-0.272-1.157c-0.155,0.082-2,1.052-2.962,1.107
			c-0.854,0.049-1.957-0.126-2.544-0.817c-0.574-0.676-0.535-1.724,0.227-2.249c1.057-0.728,3.223,0.088,4.131,0.787
			c0.068,0.053,0.924,0.881,1.131,1.102c-0.201-0.848-0.409-1.692-0.648-2.515c-0.328-1.136-0.713-2.233-1.164-3.268
			c-0.072,0.039-1.994,1.059-2.978,1.115c-0.855,0.049-1.957-0.126-2.544-0.817c-0.574-0.676-0.535-1.724,0.227-2.249
			c1.057-0.728,3.223,0.088,4.131,0.787c0.06,0.046,0.712,0.676,1.015,0.983c0.033-0.023,0.027-0.019,0.06-0.042
			c-0.497-1.103-1.117-2.109-1.744-3.021c-0.362-0.529-0.738-1.015-1.114-1.48c-0.338,0.227-1.896,1.246-2.777,1.394
			c-0.844,0.142-1.959,0.089-2.618-0.532c-0.645-0.609-0.721-1.655-0.022-2.26c0.97-0.84,3.213-0.267,4.192,0.328
			c0.053,0.033,0.558,0.421,0.922,0.71c-0.173-0.207-0.348-0.424-0.517-0.619c-0.635-0.734-1.262-1.367-1.822-1.923
			c-0.321-0.314-0.617-0.591-0.897-0.847c-0.448,0.049-2.257,0.225-3.091-0.044c-0.815-0.263-1.78-0.823-2.078-1.679
			c-0.292-0.838,0.123-1.801,1.022-2.016c1.248-0.298,2.974,1.244,3.57,2.223c0.051,0.085,0.704,1.501,0.681,1.503
			c0,0-0.022,0.002-0.027,0.003c0.274,0.241,0.566,0.503,0.878,0.796c0.573,0.545,1.215,1.166,1.869,1.889
			c0.655,0.721,1.346,1.522,1.998,2.432c0.655,0.911,1.297,1.903,1.826,3.011c0.006,0.013,0.011,0.026,0.017,0.039
			c-0.054-0.372-0.171-1.417-0.171-1.499c0.002-1.146,0.679-3.359,1.901-3.751c0.881-0.282,1.735,0.327,1.919,1.195
			c0.188,0.886-0.347,1.866-0.908,2.513c-0.633,0.729-2.536,1.601-2.688,1.669c0.495,1.06,0.916,2.187,1.28,3.351
			c0.209,0.665,0.398,1.342,0.58,2.023c-0.037-0.323-0.067-0.612-0.067-0.653c0.002-1.146,0.679-3.359,1.901-3.751
			c0.881-0.282,1.735,0.327,1.919,1.195c0.188,0.886-0.347,1.866-0.908,2.513c-0.569,0.656-2.177,1.432-2.605,1.631
			c0.067,0.262,0.136,0.523,0.202,0.785c0.316,1.258,0.626,2.515,0.968,3.738c0.12,0.431,0.255,0.852,0.387,1.272
			c-0.032-0.287-0.057-0.529-0.057-0.566c0.002-1.146,0.679-3.359,1.901-3.751c0.881-0.282,1.735,0.327,1.919,1.195
			c0.188,0.886-0.347,1.866-0.908,2.512c-0.543,0.626-2.021,1.355-2.528,1.595c0.149,0.427,0.298,0.855,0.461,1.262
			c0.118,0.275,0.213,0.549,0.347,0.819c0.127,0.27,0.253,0.537,0.377,0.802c0.259,0.501,0.522,1.02,0.786,1.503
			c0.182,0.337,0.361,0.655,0.54,0.975c-0.125-0.428-0.351-1.271-0.362-1.343c-0.114-0.753-0.003-2.015,0.42-2.946
			c-0.018-0.111-0.025-0.223-0.022-0.336c0.029-0.887,0.762-1.636,1.679-1.514c1.272,0.17,2.329,2.23,2.532,3.357
			c0.012,0.066,0.062,0.803,0.085,1.268c0.028-0.276,0.051-0.543,0.083-0.827c0.059-0.561,0.135-1.118,0.214-1.719
			c0.049-0.288,0.098-0.58,0.147-0.874c0.043-0.293,0.125-0.597,0.187-0.899c0.158-0.696,0.352-1.394,0.563-2.093
			c-0.491-0.053-2.231-0.267-2.974-0.7c-0.74-0.431-1.562-1.185-1.671-2.084c-0.106-0.881,0.505-1.733,1.43-1.751
			c1.283-0.024,2.64,1.851,3.012,2.935c0.023,0.068,0.203,0.875,0.293,1.321c0.13-0.419,0.258-0.838,0.404-1.258
			c0.42-1.212,0.883-2.425,1.339-3.637c0.14-0.371,0.275-0.743,0.412-1.114c-0.175-0.017-2.249-0.227-3.081-0.711
			c-0.74-0.431-1.563-1.185-1.671-2.084c-0.106-0.881,0.505-1.733,1.43-1.751c1.283-0.024,2.639,1.851,3.012,2.935
			c0.028,0.082,0.285,1.244,0.336,1.543c0.3-0.818,0.592-1.637,0.847-2.455c0.353-1.129,0.637-2.256,0.832-3.368
			c-0.081-0.008-2.247-0.217-3.099-0.713c-0.74-0.43-1.562-1.185-1.671-2.084c-0.106-0.881,0.505-1.733,1.43-1.751
			c1.283-0.024,2.64,1.851,3.012,2.935c0.025,0.071,0.221,0.958,0.305,1.381c0.04-0.001,0.033-0.001,0.073-0.001
			c0.194-1.194,0.232-2.375,0.212-3.483c-0.01-0.641-0.055-1.254-0.113-1.849c-0.407,0.003-2.269-0.007-3.085-0.369
			c-0.783-0.347-1.683-1.006-1.89-1.888c-0.202-0.864,0.312-1.778,1.229-1.897c1.273-0.165,2.827,1.55,3.316,2.587
			c0.027,0.056,0.233,0.659,0.378,1.1c-0.03-0.268-0.056-0.545-0.09-0.802c-0.125-0.962-0.298-1.836-0.458-2.609
			c-0.095-0.439-0.189-0.833-0.281-1.202c-0.401-0.206-2.006-1.057-2.554-1.742c-0.535-0.668-1.03-1.669-0.807-2.547
			c0.219-0.86,1.096-1.434,1.965-1.117c1.206,0.44,1.794,2.678,1.751,3.824c-0.004,0.099-0.241,1.64-0.262,1.63
			c0,0-0.02-0.01-0.024-0.013c0.096,0.353,0.194,0.732,0.293,1.148c0.177,0.77,0.371,1.643,0.517,2.606
			c0.149,0.962,0.283,2.012,0.325,3.131c0.043,1.121,0.032,2.303-0.137,3.519c-0.002,0.014-0.006,0.028-0.008,0.042
			c0.16-0.34,0.639-1.277,0.684-1.344c0.634-0.955,2.42-2.427,3.655-2.08c0.89,0.251,1.267,1.229,0.941,2.055
			C87.7,432.23,86.714,432.752,85.889,432.982z"/>
	</g>
	<g>
		<path style="fill:#263238;" d="M104.967,440.813c0.011,0.009,0.362-0.869,0.377-0.927c0.182-0.67,0.141-2.073-0.511-2.497
			c-0.469-0.306-1.066-0.087-1.313,0.391c-0.252,0.488-0.096,1.146,0.128,1.614C103.912,439.944,104.966,440.812,104.967,440.813z"
			/>
		<path style="fill:#263238;" d="M91.305,438.762c0.523,0.313,1.881,0.456,1.882,0.456c0.014,0.001-0.178-0.924-0.196-0.981
			c-0.218-0.66-1.026-1.806-1.804-1.801c-0.56,0.004-0.937,0.516-0.879,1.051C90.367,438.032,90.86,438.495,91.305,438.762z"/>
		<path style="fill:#263238;" d="M91.271,442.745c0.564,0.157,1.817-0.039,1.917-0.055c0.104,0.701,0.268,1.412,0.474,2.122
			c0.117,0.406,0.247,0.812,0.383,1.217c-0.09-0.176-0.171-0.332-0.185-0.353c-0.384-0.579-1.467-1.471-2.215-1.261
			c-0.54,0.152-0.768,0.745-0.571,1.246c0.201,0.511,0.799,0.828,1.299,0.967c0.507,0.141,1.579-0.004,1.863-0.046
			c0.054,0.155,0.106,0.31,0.16,0.465c0.261,0.742,0.524,1.481,0.76,2.214c0.083,0.258,0.156,0.515,0.23,0.773
			c-0.08-0.156-0.148-0.286-0.161-0.305c-0.384-0.579-1.467-1.471-2.215-1.261c-0.539,0.152-0.768,0.745-0.571,1.246
			c0.201,0.511,0.799,0.827,1.299,0.967c0.484,0.135,1.475,0.01,1.812-0.039c0.067,0.266,0.135,0.532,0.189,0.792
			c0.032,0.179,0.076,0.349,0.099,0.53c0.026,0.179,0.052,0.356,0.078,0.532c0.037,0.34,0.077,0.69,0.105,1.023
			c0.021,0.231,0.037,0.452,0.053,0.674c-0.08-0.258-0.247-0.76-0.266-0.8c-0.292-0.63-1.227-1.676-1.999-1.582
			c-0.556,0.069-0.872,0.62-0.753,1.145c0.122,0.535,0.665,0.939,1.138,1.152c0.521,0.235,1.74,0.237,1.892,0.236
			c0.026,0.368,0.048,0.726,0.063,1.064c0.044,0.927,0.054,1.73,0.052,2.365h0.513c-0.012-0.642-0.04-1.454-0.104-2.391
			c-0.025-0.374-0.059-0.772-0.098-1.181c0.095-0.024,0.633-0.166,1.119-0.361c0.34,0.478,1.288,1.108,1.411,1.189
			c-0.181,0.321-0.36,0.632-0.534,0.922c-0.423,0.711-0.814,1.324-1.143,1.823h0.599c0.283-0.457,0.603-0.99,0.943-1.591
			c0.185-0.325,0.377-0.676,0.57-1.039c0.141,0.049,1.298,0.442,1.868,0.388c0.516-0.049,1.161-0.255,1.449-0.723
			c0.282-0.458,0.162-1.082-0.342-1.327c-0.7-0.339-1.923,0.349-2.403,0.851c-0.028,0.03-0.3,0.385-0.467,0.613
			c0.078-0.149,0.156-0.292,0.234-0.446c0.158-0.303,0.306-0.61,0.466-0.941c0.072-0.162,0.145-0.326,0.218-0.491
			c0.076-0.162,0.136-0.344,0.206-0.517c0.153-0.405,0.288-0.823,0.415-1.247c0.266,0.137,1.217,0.611,1.738,0.641
			c0.518,0.03,1.186-0.077,1.542-0.495c0.348-0.41,0.324-1.045-0.137-1.363c-0.641-0.441-1.953,0.053-2.504,0.477
			c-0.034,0.026-0.395,0.375-0.59,0.57c0.074-0.256,0.15-0.51,0.216-0.771c0.193-0.753,0.365-1.521,0.539-2.287
			c0.053-0.235,0.109-0.468,0.165-0.701c0.094,0.05,1.213,0.637,1.795,0.671c0.518,0.03,1.186-0.077,1.542-0.495
			c0.348-0.41,0.324-1.045-0.137-1.363c-0.641-0.441-1.953,0.053-2.504,0.477c-0.041,0.032-0.56,0.534-0.686,0.668
			c0.122-0.514,0.248-1.025,0.393-1.524c0.199-0.689,0.432-1.354,0.706-1.981c0.044,0.023,1.208,0.642,1.805,0.676
			c0.518,0.03,1.186-0.077,1.542-0.495c0.348-0.41,0.324-1.045-0.138-1.363c-0.641-0.441-1.953,0.053-2.504,0.477
			c-0.036,0.028-0.431,0.41-0.615,0.596c-0.02-0.014-0.016-0.011-0.037-0.025c0.301-0.668,0.677-1.278,1.057-1.831
			c0.22-0.321,0.447-0.615,0.675-0.897c0.205,0.137,1.149,0.755,1.683,0.845c0.512,0.086,1.187,0.054,1.587-0.323
			c0.391-0.369,0.437-1.003,0.013-1.37c-0.588-0.509-1.947-0.162-2.541,0.199c-0.032,0.02-0.339,0.255-0.559,0.43
			c0.105-0.125,0.211-0.257,0.313-0.375c0.385-0.445,0.765-0.828,1.104-1.165c0.195-0.19,0.374-0.358,0.544-0.513
			c0.272,0.03,1.368,0.136,1.874-0.027c0.494-0.159,1.079-0.499,1.26-1.018c0.177-0.508-0.075-1.092-0.62-1.222
			c-0.757-0.181-1.803,0.754-2.164,1.348c-0.031,0.051-0.427,0.91-0.413,0.911c0,0,0.013,0.001,0.016,0.002
			c-0.166,0.146-0.343,0.305-0.532,0.483c-0.347,0.33-0.737,0.707-1.133,1.145c-0.397,0.437-0.816,0.923-1.211,1.474
			c-0.397,0.552-0.786,1.154-1.107,1.825c-0.004,0.008-0.007,0.016-0.01,0.024c0.033-0.225,0.104-0.859,0.104-0.908
			c-0.001-0.695-0.412-2.036-1.152-2.274c-0.534-0.171-1.052,0.198-1.163,0.724c-0.114,0.537,0.21,1.131,0.55,1.523
			c0.383,0.442,1.537,0.97,1.629,1.012c-0.3,0.642-0.555,1.326-0.776,2.031c-0.127,0.403-0.242,0.814-0.351,1.226
			c0.022-0.196,0.041-0.371,0.04-0.396c-0.001-0.695-0.412-2.036-1.152-2.274c-0.534-0.171-1.052,0.198-1.163,0.724
			c-0.114,0.537,0.21,1.131,0.55,1.523c0.345,0.398,1.32,0.868,1.579,0.989c-0.041,0.159-0.083,0.317-0.123,0.476
			c-0.192,0.763-0.379,1.524-0.587,2.266c-0.073,0.262-0.154,0.516-0.235,0.771c0.02-0.174,0.035-0.321,0.035-0.343
			c-0.001-0.695-0.412-2.036-1.153-2.274c-0.534-0.171-1.051,0.198-1.163,0.724c-0.114,0.537,0.21,1.131,0.55,1.523
			c0.329,0.38,1.225,0.822,1.533,0.967c-0.09,0.259-0.18,0.518-0.28,0.765c-0.072,0.167-0.129,0.333-0.21,0.496
			c-0.077,0.164-0.153,0.326-0.229,0.486c-0.157,0.304-0.316,0.618-0.477,0.911c-0.11,0.204-0.218,0.397-0.327,0.591
			c0.076-0.259,0.213-0.77,0.22-0.814c0.069-0.456,0.002-1.221-0.255-1.786c0.011-0.067,0.015-0.135,0.013-0.204
			c-0.017-0.537-0.462-0.992-1.017-0.918c-0.771,0.103-1.411,1.352-1.535,2.035c-0.007,0.04-0.037,0.487-0.052,0.769
			c-0.017-0.167-0.031-0.329-0.05-0.501c-0.036-0.34-0.082-0.678-0.13-1.042c-0.029-0.175-0.059-0.352-0.089-0.53
			c-0.026-0.178-0.076-0.362-0.113-0.545c-0.096-0.422-0.214-0.845-0.341-1.269c0.297-0.032,1.352-0.162,1.803-0.424
			c0.448-0.261,0.947-0.718,1.013-1.263c0.064-0.534-0.306-1.051-0.867-1.061c-0.778-0.015-1.6,1.122-1.826,1.779
			c-0.014,0.041-0.123,0.531-0.178,0.801c-0.079-0.254-0.156-0.508-0.245-0.762c-0.255-0.734-0.535-1.47-0.812-2.205
			c-0.085-0.225-0.167-0.45-0.25-0.676c0.106-0.01,1.363-0.137,1.868-0.431c0.448-0.261,0.947-0.718,1.013-1.263
			c0.064-0.534-0.306-1.05-0.867-1.061c-0.778-0.015-1.6,1.122-1.826,1.779c-0.017,0.049-0.173,0.754-0.203,0.935
			c-0.182-0.496-0.359-0.992-0.513-1.488c-0.214-0.684-0.386-1.367-0.504-2.042c0.049-0.005,1.362-0.131,1.879-0.432
			c0.448-0.261,0.947-0.718,1.013-1.263c0.064-0.534-0.306-1.05-0.867-1.061c-0.778-0.015-1.6,1.122-1.826,1.779
			c-0.015,0.043-0.134,0.58-0.185,0.837c-0.024,0-0.02,0-0.044-0.001c-0.118-0.724-0.14-1.44-0.129-2.111
			c0.006-0.389,0.033-0.76,0.068-1.121c0.247,0.002,1.375-0.004,1.87-0.224c0.474-0.21,1.02-0.61,1.146-1.144
			c0.123-0.524-0.189-1.078-0.745-1.15c-0.771-0.1-1.713,0.94-2.01,1.568c-0.016,0.034-0.141,0.4-0.229,0.667
			c0.018-0.162,0.034-0.331,0.055-0.486c0.076-0.583,0.181-1.113,0.278-1.581c0.057-0.266,0.115-0.505,0.17-0.728
			c0.243-0.125,1.216-0.641,1.548-1.056c0.324-0.405,0.625-1.011,0.489-1.544c-0.132-0.521-0.665-0.869-1.191-0.677
			c-0.731,0.267-1.088,1.624-1.061,2.318c0.002,0.06,0.146,0.994,0.159,0.988c0,0,0.012-0.006,0.015-0.007
			c-0.058,0.214-0.118,0.444-0.178,0.696c-0.107,0.467-0.225,0.996-0.313,1.58c-0.09,0.583-0.172,1.22-0.197,1.898
			c-0.026,0.68-0.02,1.396,0.083,2.133c0.001,0.008,0.003,0.017,0.005,0.025c-0.097-0.206-0.387-0.774-0.415-0.815
			c-0.384-0.579-1.467-1.471-2.216-1.261c-0.539,0.152-0.768,0.745-0.571,1.246C90.173,442.289,90.771,442.605,91.271,442.745z"/>
		<path style="opacity:0.3;fill:#263238;" d="M91.305,438.762c0.523,0.313,1.881,0.456,1.882,0.456
			c0.014,0.001-0.178-0.924-0.196-0.981c-0.218-0.66-1.026-1.806-1.804-1.801c-0.56,0.004-0.937,0.516-0.879,1.051
			C90.367,438.032,90.86,438.495,91.305,438.762z"/>
		<path style="opacity:0.3;fill:#263238;" d="M104.967,440.813c0.011,0.009,0.362-0.869,0.377-0.927
			c0.182-0.67,0.141-2.073-0.511-2.497c-0.469-0.306-1.066-0.087-1.313,0.391c-0.252,0.488-0.096,1.146,0.128,1.614
			C103.912,439.944,104.966,440.812,104.967,440.813z"/>
		<path style="opacity:0.3;fill:#263238;" d="M91.271,442.745c0.564,0.157,1.817-0.039,1.917-0.055
			c0.104,0.701,0.268,1.412,0.474,2.122c0.117,0.406,0.247,0.812,0.383,1.217c-0.09-0.176-0.171-0.332-0.185-0.353
			c-0.384-0.579-1.467-1.471-2.215-1.261c-0.54,0.152-0.768,0.745-0.571,1.246c0.201,0.511,0.799,0.828,1.299,0.967
			c0.507,0.141,1.579-0.004,1.863-0.046c0.054,0.155,0.106,0.31,0.16,0.465c0.261,0.742,0.524,1.481,0.76,2.214
			c0.083,0.258,0.156,0.515,0.23,0.773c-0.08-0.156-0.148-0.286-0.161-0.305c-0.384-0.579-1.467-1.471-2.215-1.261
			c-0.539,0.152-0.768,0.745-0.571,1.246c0.201,0.511,0.799,0.827,1.299,0.967c0.484,0.135,1.475,0.01,1.812-0.039
			c0.067,0.266,0.135,0.532,0.189,0.792c0.032,0.179,0.076,0.349,0.099,0.53c0.026,0.179,0.052,0.356,0.078,0.532
			c0.037,0.34,0.077,0.69,0.105,1.023c0.021,0.231,0.037,0.452,0.053,0.674c-0.08-0.258-0.247-0.76-0.266-0.8
			c-0.292-0.63-1.227-1.676-1.999-1.582c-0.556,0.069-0.872,0.62-0.753,1.145c0.122,0.535,0.665,0.939,1.138,1.152
			c0.521,0.235,1.74,0.237,1.892,0.236c0.026,0.368,0.048,0.726,0.063,1.064c0.044,0.927,0.054,1.73,0.052,2.365h0.513
			c-0.012-0.642-0.04-1.454-0.104-2.391c-0.025-0.374-0.059-0.772-0.098-1.181c0.095-0.024,0.633-0.166,1.119-0.361
			c0.34,0.478,1.288,1.108,1.411,1.189c-0.181,0.321-0.36,0.632-0.534,0.922c-0.423,0.711-0.814,1.324-1.143,1.823h0.599
			c0.283-0.457,0.603-0.99,0.943-1.591c0.185-0.325,0.377-0.676,0.57-1.039c0.141,0.049,1.298,0.442,1.868,0.388
			c0.516-0.049,1.161-0.255,1.449-0.723c0.282-0.458,0.162-1.082-0.342-1.327c-0.7-0.339-1.923,0.349-2.403,0.851
			c-0.028,0.03-0.3,0.385-0.467,0.613c0.078-0.149,0.156-0.292,0.234-0.446c0.158-0.303,0.306-0.61,0.466-0.941
			c0.072-0.162,0.145-0.326,0.218-0.491c0.076-0.162,0.136-0.344,0.206-0.517c0.153-0.405,0.288-0.823,0.415-1.247
			c0.266,0.137,1.217,0.611,1.738,0.641c0.518,0.03,1.186-0.077,1.542-0.495c0.348-0.41,0.324-1.045-0.137-1.363
			c-0.641-0.441-1.953,0.053-2.504,0.477c-0.034,0.026-0.395,0.375-0.59,0.57c0.074-0.256,0.15-0.51,0.216-0.771
			c0.193-0.753,0.365-1.521,0.539-2.287c0.053-0.235,0.109-0.468,0.165-0.701c0.094,0.05,1.213,0.637,1.795,0.671
			c0.518,0.03,1.186-0.077,1.542-0.495c0.348-0.41,0.324-1.045-0.137-1.363c-0.641-0.441-1.953,0.053-2.504,0.477
			c-0.041,0.032-0.56,0.534-0.686,0.668c0.122-0.514,0.248-1.025,0.393-1.524c0.199-0.689,0.432-1.354,0.706-1.981
			c0.044,0.023,1.208,0.642,1.805,0.676c0.518,0.03,1.186-0.077,1.542-0.495c0.348-0.41,0.324-1.045-0.138-1.363
			c-0.641-0.441-1.953,0.053-2.504,0.477c-0.036,0.028-0.431,0.41-0.615,0.596c-0.02-0.014-0.016-0.011-0.037-0.025
			c0.301-0.668,0.677-1.278,1.057-1.831c0.22-0.321,0.447-0.615,0.675-0.897c0.205,0.137,1.149,0.755,1.683,0.845
			c0.512,0.086,1.187,0.054,1.587-0.323c0.391-0.369,0.437-1.003,0.013-1.37c-0.588-0.509-1.947-0.162-2.541,0.199
			c-0.032,0.02-0.339,0.255-0.559,0.43c0.105-0.125,0.211-0.257,0.313-0.375c0.385-0.445,0.765-0.828,1.104-1.165
			c0.195-0.19,0.374-0.358,0.544-0.513c0.272,0.03,1.368,0.136,1.874-0.027c0.494-0.159,1.079-0.499,1.26-1.018
			c0.177-0.508-0.075-1.092-0.62-1.222c-0.757-0.181-1.803,0.754-2.164,1.348c-0.031,0.051-0.427,0.91-0.413,0.911
			c0,0,0.013,0.001,0.016,0.002c-0.166,0.146-0.343,0.305-0.532,0.483c-0.347,0.33-0.737,0.707-1.133,1.145
			c-0.397,0.437-0.816,0.923-1.211,1.474c-0.397,0.552-0.786,1.154-1.107,1.825c-0.004,0.008-0.007,0.016-0.01,0.024
			c0.033-0.225,0.104-0.859,0.104-0.908c-0.001-0.695-0.412-2.036-1.152-2.274c-0.534-0.171-1.052,0.198-1.163,0.724
			c-0.114,0.537,0.21,1.131,0.55,1.523c0.383,0.442,1.537,0.97,1.629,1.012c-0.3,0.642-0.555,1.326-0.776,2.031
			c-0.127,0.403-0.242,0.814-0.351,1.226c0.022-0.196,0.041-0.371,0.04-0.396c-0.001-0.695-0.412-2.036-1.152-2.274
			c-0.534-0.171-1.052,0.198-1.163,0.724c-0.114,0.537,0.21,1.131,0.55,1.523c0.345,0.398,1.32,0.868,1.579,0.989
			c-0.041,0.159-0.083,0.317-0.123,0.476c-0.192,0.763-0.379,1.524-0.587,2.266c-0.073,0.262-0.154,0.516-0.235,0.771
			c0.02-0.174,0.035-0.321,0.035-0.343c-0.001-0.695-0.412-2.036-1.153-2.274c-0.534-0.171-1.051,0.198-1.163,0.724
			c-0.114,0.537,0.21,1.131,0.55,1.523c0.329,0.38,1.225,0.822,1.533,0.967c-0.09,0.259-0.18,0.518-0.28,0.765
			c-0.072,0.167-0.129,0.333-0.21,0.496c-0.077,0.164-0.153,0.326-0.229,0.486c-0.157,0.304-0.316,0.618-0.477,0.911
			c-0.11,0.204-0.218,0.397-0.327,0.591c0.076-0.259,0.213-0.77,0.22-0.814c0.069-0.456,0.002-1.221-0.255-1.786
			c0.011-0.067,0.015-0.135,0.013-0.204c-0.017-0.537-0.462-0.992-1.017-0.918c-0.771,0.103-1.411,1.352-1.535,2.035
			c-0.007,0.04-0.037,0.487-0.052,0.769c-0.017-0.167-0.031-0.329-0.05-0.501c-0.036-0.34-0.082-0.678-0.13-1.042
			c-0.029-0.175-0.059-0.352-0.089-0.53c-0.026-0.178-0.076-0.362-0.113-0.545c-0.096-0.422-0.214-0.845-0.341-1.269
			c0.297-0.032,1.352-0.162,1.803-0.424c0.448-0.261,0.947-0.718,1.013-1.263c0.064-0.534-0.306-1.051-0.867-1.061
			c-0.778-0.015-1.6,1.122-1.826,1.779c-0.014,0.041-0.123,0.531-0.178,0.801c-0.079-0.254-0.156-0.508-0.245-0.762
			c-0.255-0.734-0.535-1.47-0.812-2.205c-0.085-0.225-0.167-0.45-0.25-0.676c0.106-0.01,1.363-0.137,1.868-0.431
			c0.448-0.261,0.947-0.718,1.013-1.263c0.064-0.534-0.306-1.05-0.867-1.061c-0.778-0.015-1.6,1.122-1.826,1.779
			c-0.017,0.049-0.173,0.754-0.203,0.935c-0.182-0.496-0.359-0.992-0.513-1.488c-0.214-0.684-0.386-1.367-0.504-2.042
			c0.049-0.005,1.362-0.131,1.879-0.432c0.448-0.261,0.947-0.718,1.013-1.263c0.064-0.534-0.306-1.05-0.867-1.061
			c-0.778-0.015-1.6,1.122-1.826,1.779c-0.015,0.043-0.134,0.58-0.185,0.837c-0.024,0-0.02,0-0.044-0.001
			c-0.118-0.724-0.14-1.44-0.129-2.111c0.006-0.389,0.033-0.76,0.068-1.121c0.247,0.002,1.375-0.004,1.87-0.224
			c0.474-0.21,1.02-0.61,1.146-1.144c0.123-0.524-0.189-1.078-0.745-1.15c-0.771-0.1-1.713,0.94-2.01,1.568
			c-0.016,0.034-0.141,0.4-0.229,0.667c0.018-0.162,0.034-0.331,0.055-0.486c0.076-0.583,0.181-1.113,0.278-1.581
			c0.057-0.266,0.115-0.505,0.17-0.728c0.243-0.125,1.216-0.641,1.548-1.056c0.324-0.405,0.625-1.011,0.489-1.544
			c-0.132-0.521-0.665-0.869-1.191-0.677c-0.731,0.267-1.088,1.624-1.061,2.318c0.002,0.06,0.146,0.994,0.159,0.988
			c0,0,0.012-0.006,0.015-0.007c-0.058,0.214-0.118,0.444-0.178,0.696c-0.107,0.467-0.225,0.996-0.313,1.58
			c-0.09,0.583-0.172,1.22-0.197,1.898c-0.026,0.68-0.02,1.396,0.083,2.133c0.001,0.008,0.003,0.017,0.005,0.025
			c-0.097-0.206-0.387-0.774-0.415-0.815c-0.384-0.579-1.467-1.471-2.216-1.261c-0.539,0.152-0.768,0.745-0.571,1.246
			C90.173,442.289,90.771,442.605,91.271,442.745z"/>
	</g>
</g>
<g id="Broken_Pieces">
	<g>
		<path style="fill:#35c0e7;stroke:#263238;stroke-linecap:round;stroke-linejoin:round;stroke-miterlimit:10;" d="M359.54,446.779
			l-17.708-1.221c0,0-31.753,12.213-35.417,13.434c-3.664,1.221,31.753,6.717,31.753,6.717l18.93-6.106l20.151,0.611L359.54,446.779
			z"/>
		<g>
			<g>
				<path style="fill:#35c0e7;" d="M326.116,442.847l13.246-1.946l7.506,2.335l14.129-6.616c0,0-1.766,6.227-2.649,8.951
					c-0.883,2.724-3.902,7.297-3.902,7.297l-10.227,2.822l-10.155,0.389L326.116,442.847z"/>
				<path style="opacity:0.5;fill:#FFFFFF;" d="M326.116,442.847l13.246-1.946l7.506,2.335l14.129-6.616
					c0,0-1.766,6.227-2.649,8.951c-0.883,2.724-3.902,7.297-3.902,7.297l-10.227,2.822l-10.155,0.389L326.116,442.847z"/>
				<path style="fill:none;stroke:#263238;stroke-linecap:round;stroke-linejoin:round;stroke-miterlimit:10;" d="M326.116,442.847
					l13.246-1.946l7.506,2.335l14.129-6.616c0,0-1.766,6.227-2.649,8.951c-0.883,2.724-3.902,7.297-3.902,7.297l-10.227,2.822
					l-10.155,0.389L326.116,442.847z"/>
			</g>
			<path style="fill:#35c0e7;stroke:#263238;stroke-linecap:round;stroke-linejoin:round;stroke-miterlimit:10;" d="M349.98,448.675
				l-11.611,0.482l-14.174-31.696l0.7,10.951c-23.442,9.503-57.694,13.49-86.941,0.142c-0.942-0.43-1.865-0.879-2.778-1.339
				c6.228,14.645,18.392,27.385,35.389,35.143c28.255,12.896,61.556,8.234,83.88-9.49L349.98,448.675z"/>
			<polyline style="fill:#35c0e7;stroke:#263238;stroke-linecap:round;stroke-linejoin:round;stroke-miterlimit:10;" points="
				324.894,428.411 323.183,432.401 313.022,437.351 312.761,443.343 315.627,455.328 312.501,457.934 302.34,463.144 			"/>
			<polyline style="fill:#35c0e7;stroke:#263238;stroke-linecap:round;stroke-linejoin:round;stroke-miterlimit:10;" points="
				315.627,455.328 313.282,461.06 318.233,463.144 			"/>
		</g>
		<path style="fill:#35c0e7;stroke:#263238;stroke-linecap:round;stroke-linejoin:round;stroke-miterlimit:10;" d="M232.027,446.779
			l-17.708-1.221c0,0-31.753,12.213-35.417,13.434c-3.664,1.221,31.753,6.717,31.753,6.717l18.93-6.106l20.151,0.611
			L232.027,446.779z"/>
		<path style="fill:#35c0e7;stroke:#263238;stroke-linecap:round;stroke-linejoin:round;stroke-miterlimit:10;" d="M280.267,455.939
			c0,0-6.106,1.832-18.319,3.053c-12.213,1.221-32.364,0.611-32.364,0.611s6.717,6.717,23.204,7.938
			C269.276,468.762,280.267,455.939,280.267,455.939z"/>
		<path style="fill:#35c0e7;stroke:#263238;stroke-linecap:round;stroke-linejoin:round;stroke-miterlimit:10;" d="M142.437,464.554
			c0,0,6.106-1.832,18.319-3.053c12.213-1.221,32.364-0.611,32.364-0.611s-6.717-6.717-23.204-7.938
			C153.428,451.731,142.437,464.554,142.437,464.554z"/>
		<path style="fill:#35c0e7;stroke:#263238;stroke-linecap:round;stroke-linejoin:round;stroke-miterlimit:10;" d="M136.425,457.876
			l-18.299,3.931c0,0,8.668,0,11.557,3.145c2.889,3.145,26.594,1.479,26.594,1.479L136.425,457.876z"/>
		<g>
			<polygon style="fill:#35c0e7;" points="201.088,451.469 212.951,445.514 221.269,437.565 228.181,445.189 238.222,454.647 
				238.285,459.826 217.607,457.635 			"/>
			<polygon style="opacity:0.5;fill:#FFFFFF;" points="201.088,451.469 212.951,445.514 221.269,437.565 228.181,445.189 
				238.222,454.647 238.285,459.826 217.607,457.635 			"/>
			<polygon style="fill:none;stroke:#263238;stroke-linecap:round;stroke-linejoin:round;stroke-miterlimit:10;" points="
				201.088,451.469 212.951,445.514 221.269,437.565 228.181,445.189 238.222,454.647 238.285,459.826 217.607,457.635 			"/>
			<polygon style="fill:#35c0e7;stroke:#263238;stroke-linecap:round;stroke-linejoin:round;stroke-miterlimit:10;" points="
				238.285,459.826 216.054,454.345 197.81,444.023 185.779,446.862 169.333,450.128 188.391,463.921 205.653,467.657 
				226.684,464.829 			"/>
		</g>
	</g>
</g>
<g id="Light_Bulb">
	<g>
		<g>
			<polygon style="fill:#35c0e7;" points="200.117,155.801 207.84,129.121 231.009,122.802 245.051,91.208 266.816,74.358 
				287.878,97.527 294.197,108.761 325.089,122.1 313.856,167.736 277.347,197.926 249.965,207.053 229.605,202.84 212.755,188.799 
							"/>
			<polygon style="opacity:0.5;fill:#FFFFFF;" points="200.117,155.801 207.84,129.121 231.009,122.802 245.051,91.208 
				266.816,74.358 287.878,97.527 294.197,108.761 325.089,122.1 313.856,167.736 277.347,197.926 249.965,207.053 229.605,202.84 
				212.755,188.799 			"/>
			<polygon style="fill:none;stroke:#263238;stroke-linecap:round;stroke-linejoin:round;stroke-miterlimit:10;" points="
				200.117,155.801 207.84,129.121 231.009,122.802 245.051,91.208 266.816,74.358 287.878,97.527 294.197,108.761 325.089,122.1 
				313.856,167.736 277.347,197.926 249.965,207.053 229.605,202.84 212.755,188.799 			"/>
		</g>
		<path style="fill:#35c0e7;stroke:#263238;stroke-linecap:round;stroke-linejoin:round;stroke-miterlimit:10;" d="M341.141,100.546
			l-7.83-1.842l-5.456,11.903l-9.085,12.196l-14.744,4.213l-11.936,2.106l-14.042,25.275l-9.829,2.106l-21.063,34.402
			l-28.083-18.254l-3.51-12.638l-11.233-11.936l-14.042,0.702l-20.361,4.915l-6.319-19.659l-21.218-6.882
			c-0.031,1.058-0.052,2.118-0.052,3.183c-0.004,17.468,4.25,35.076,12.591,50.336c13.865,25.367,38.487,51.976,33.899,83.663
			c-0.789,5.451-1.37,9.946,1.734,14.565l107.049,0.026c4.554-6.329,3.573-14.229,3.283-23.434
			c-0.536-16.97,4.426-33.627,12.877-48.152c7.101-12.205,17.389-23.007,23.296-35.764c5.888-12.717,8.293-27.186,8.297-41.191
			C345.365,120.015,343.885,110.001,341.141,100.546z"/>
		<g>
			<polyline style="fill:none;stroke:#263238;stroke-linecap:round;stroke-linejoin:round;stroke-miterlimit:10;" points="
				169.927,153.694 181.863,162.821 178.352,174.757 176.948,182.48 			"/>
			<polyline style="fill:none;stroke:#263238;stroke-linecap:round;stroke-linejoin:round;stroke-miterlimit:10;" points="
				191.533,180.469 187.446,190.915 196.935,209.894 			"/>
			
				<line style="fill:none;stroke:#263238;stroke-linecap:round;stroke-linejoin:round;stroke-miterlimit:10;" x1="178.352" y1="174.757" x2="187.002" y2="178.505"/>
			
				<line style="fill:none;stroke:#263238;stroke-linecap:round;stroke-linejoin:round;stroke-miterlimit:10;" x1="290.349" y1="179.122" x2="289.985" y2="184.586"/>
			<polyline style="fill:none;stroke:#263238;stroke-linecap:round;stroke-linejoin:round;stroke-miterlimit:10;" points="
				278.049,154.396 280.155,163.523 287.176,169.14 290.687,174.055 			"/>
		</g>
		<path style="fill:#263238;stroke:#263238;stroke-linecap:round;stroke-linejoin:round;stroke-miterlimit:10;" d="M280.195,355.366
			l-11.105,21.635c-1.199,2.336-3.605,3.806-6.231,3.806h-37.874c-2.626,0-5.032-1.469-6.231-3.806l-11.105-21.635H280.195z"/>
		
			<rect x="190.561" y="278.905" style="fill:#263238;stroke:#263238;stroke-linecap:round;stroke-linejoin:round;stroke-miterlimit:10;" width="106.723" height="75.757"/>
		
			<rect x="204.273" y="278.905" style="fill:#FFFFFF;stroke:#263238;stroke-linecap:round;stroke-linejoin:round;stroke-miterlimit:10;" width="29.233" height="75.757"/>
		<path style="fill:#263238;stroke:#263238;stroke-linecap:round;stroke-linejoin:round;stroke-miterlimit:10;" d="M297.284,354.662
			l-7.815,9.942c-1.798,2.407-4.627,3.824-7.632,3.824h-75.831c-3.005,0-5.833-1.417-7.632-3.824l-7.815-9.942H297.284z"/>
		<path style="fill:#FFFFFF;stroke:#263238;stroke-linecap:round;stroke-linejoin:round;stroke-miterlimit:10;" d="M233.453,364.603
			l-7.815-9.942h-21.046l7.815,9.942c1.799,2.407,4.627,3.824,7.631,3.824h21.046C238.08,368.428,235.252,367.01,233.453,364.603z"
			/>
		
			<rect x="190.561" y="298.841" style="fill:#263238;stroke:#263238;stroke-linecap:round;stroke-linejoin:round;stroke-miterlimit:10;" width="106.723" height="55.821"/>
		<path style="fill:#263238;stroke:#263238;stroke-linecap:round;stroke-linejoin:round;stroke-miterlimit:10;" d="M296.65,311.008
			l-104.976,5.905c-2.355,0.133-4.373-1.67-4.505-4.026l0,0c-0.133-2.355,1.67-4.373,4.026-4.505l104.976-5.905
			c2.356-0.133,4.373,1.67,4.505,4.025l0,0C300.809,308.859,299.006,310.876,296.65,311.008z"/>
		<path style="fill:#FFFFFF;stroke:#263238;stroke-linecap:round;stroke-linejoin:round;stroke-miterlimit:10;" d="M191.195,311.89
			l104.976-5.904c1.81-0.102,3.412,0.944,4.12,2.5c0.273-0.605,0.425-1.274,0.385-1.983c-0.133-2.356-2.15-4.158-4.505-4.025
			l-104.976,5.905c-2.356,0.133-4.158,2.15-4.026,4.505c0.031,0.545,0.172,1.056,0.385,1.525
			C188.188,313.006,189.547,311.983,191.195,311.89z"/>
		<path style="fill:#FFFFFF;stroke:#263238;stroke-linecap:round;stroke-linejoin:round;stroke-miterlimit:10;" d="M296.65,348.508
			l-104.976,5.904c-2.355,0.132-4.373-1.67-4.505-4.026l0,0c-0.133-2.356,1.67-4.373,4.026-4.505l104.976-5.905
			c2.356-0.133,4.373,1.67,4.505,4.025l0,0C300.809,346.359,299.006,348.376,296.65,348.508z"/>
		<path style="fill:#263238;stroke:#263238;stroke-linecap:round;stroke-linejoin:round;stroke-miterlimit:10;" d="M296.65,329.758
			l-104.976,5.905c-2.355,0.133-4.373-1.67-4.505-4.026l0,0c-0.133-2.356,1.67-4.373,4.026-4.505l104.976-5.905
			c2.356-0.133,4.373,1.67,4.505,4.026l0,0C300.809,327.609,299.006,329.626,296.65,329.758z"/>
		<path style="fill:#FFFFFF;stroke:#263238;stroke-linecap:round;stroke-linejoin:round;stroke-miterlimit:10;" d="M191.195,330.64
			l104.976-5.905c1.81-0.102,3.412,0.944,4.12,2.5c0.273-0.605,0.425-1.274,0.385-1.983c-0.133-2.356-2.15-4.158-4.505-4.026
			l-104.976,5.905c-2.356,0.132-4.158,2.149-4.026,4.505c0.031,0.545,0.172,1.056,0.385,1.525
			C188.188,331.756,189.547,330.733,191.195,330.64z"/>
		<path style="fill:#263238;stroke:#263238;stroke-linecap:round;stroke-linejoin:round;stroke-miterlimit:10;" d="M191.195,349.39
			l104.976-5.905c1.81-0.102,3.412,0.944,4.12,2.5c0.273-0.605,0.425-1.274,0.385-1.983c-0.133-2.356-2.15-4.158-4.505-4.025
			l-104.976,5.905c-2.356,0.132-4.158,2.15-4.026,4.505c0.031,0.546,0.172,1.056,0.385,1.525
			C188.188,350.506,189.547,349.483,191.195,349.39z"/>
		<g>
			<path style="fill:none;stroke:#263238;stroke-linecap:round;stroke-linejoin:round;stroke-miterlimit:10;" d="M235.295,235.066
				c-0.28,18.25-1.827,34.881-1.827,34.881"/>
			<path style="fill:none;stroke:#263238;stroke-linecap:round;stroke-linejoin:round;stroke-miterlimit:10;" d="M254.62,259.997
				c-0.193-30.728,2.966-87.562,3.496-109.918c0.381-16.044,12.324-27.979,12.324-6.214c0,41.813-36.15,40.268-45.188,20.134
				c-9.038-20.134-8.216-35.396,3.286-19.289c5.409,7.575,6.821,37.114,6.799,66.285"/>
			<path style="fill:none;stroke:#263238;stroke-linecap:round;stroke-linejoin:round;stroke-miterlimit:10;" d="M254.83,272.412
				c0,0-0.068-2.517-0.135-6.687"/>
		</g>
		<g>
			<path style="fill:#35c0e7;stroke:#263238;stroke-width:2;stroke-linecap:round;stroke-linejoin:round;stroke-miterlimit:10;" d="
				M294.324,240.834c1.765-11.805,6.005-23.186,12.003-33.493c7.101-12.205,17.389-23.007,23.296-35.764
				c5.888-12.717,8.293-27.186,8.296-41.191c0.001-2.593-0.091-5.163-0.273-7.708"/>
			<path style="fill:#35c0e7;stroke:#263238;stroke-width:2;stroke-linecap:round;stroke-linejoin:round;stroke-miterlimit:10;" d="
				M293.277,271.193c0.807-4.677,0.354-9.933,0.172-15.7c-0.033-1.047-0.045-2.093-0.037-3.138"/>
		</g>
	</g>
</g>
</svg>
