<?xml version="1.0" encoding="utf-8"?>
<!-- Generator: Adobe Illustrator 27.5.0, SVG Export Plug-In . SVG Version: 6.00 Build 0)  -->
<svg version="1.1" xmlns="http://www.w3.org/2000/svg" xmlns:xlink="http://www.w3.org/1999/xlink" x="0px" y="0px"
	 viewBox="0 0 500 500" style="enable-background:new 0 0 500 500;" xml:space="preserve">
<g id="Background_Complete">
	<g id="_x3C_Group_x3E__3_">
		<rect y="382.398" style="fill:#EBEBEB;" width="500" height="0.25"/>
		<rect x="52.459" y="391.922" style="fill:#EBEBEB;" width="33.122" height="0.25"/>
		<rect x="171.14" y="389.208" style="fill:#EBEBEB;" width="8.693" height="0.25"/>
		<rect x="86.582" y="401.208" style="fill:#EBEBEB;" width="19.192" height="0.25"/>
		<rect x="406.708" y="399.528" style="fill:#EBEBEB;" width="43.193" height="0.25"/>
		<rect x="391.471" y="399.528" style="fill:#EBEBEB;" width="6.333" height="0.25"/>
		<rect x="277.213" y="395.306" style="fill:#EBEBEB;" width="93.676" height="0.25"/>
		<path style="fill:#EBEBEB;" d="M237.014,337.8H43.915c-3.147,0-5.708-2.561-5.708-5.708V60.66c0-3.147,2.561-5.708,5.708-5.708
			h193.099c3.146,0,5.707,2.561,5.707,5.708v271.432C242.721,335.239,240.16,337.8,237.014,337.8z M43.915,55.203
			c-3.01,0-5.458,2.448-5.458,5.458v271.432c0,3.01,2.448,5.458,5.458,5.458h193.099c3.009,0,5.457-2.448,5.457-5.458V60.66
			c0-3.009-2.448-5.458-5.457-5.458H43.915z"/>
		<path style="fill:#EBEBEB;" d="M453.31,337.8H260.212c-3.147,0-5.707-2.561-5.707-5.708V60.66c0-3.147,2.56-5.708,5.707-5.708
			H453.31c3.148,0,5.708,2.561,5.708,5.708v271.432C459.019,335.239,456.458,337.8,453.31,337.8z M260.212,55.203
			c-3.009,0-5.457,2.448-5.457,5.458v271.432c0,3.01,2.448,5.458,5.457,5.458H453.31c3.01,0,5.458-2.448,5.458-5.458V60.66
			c0-3.009-2.448-5.458-5.458-5.458H260.212z"/>
		<g>
			<rect x="61.385" y="73.675" style="fill:#EBEBEB;" width="192.884" height="214.992"/>
			<rect x="64.315" y="73.675" style="fill:#F5F5F5;" width="196.224" height="214.992"/>
			<rect x="61.385" y="288.667" style="fill:#EBEBEB;" width="192.884" height="11.65"/>
			<rect x="94.093" y="288.667" style="fill:#F0F0F0;" width="196.224" height="11.65"/>
			
				<rect x="63.708" y="91.836" transform="matrix(-1.836970e-16 1 -1 -1.836970e-16 343.5975 18.7443)" style="fill:#FAFAFA;" width="197.438" height="178.67"/>
			<polygon style="fill:#FFFFFF;" points="80.353,279.89 131.868,82.452 156.186,82.452 104.671,279.89 			"/>
			<path style="fill:#F1F1F1;" d="M77.155,195.956c-0.347,0-0.627-0.281-0.627-0.627V88.163c0-0.346,0.28-0.627,0.627-0.627
				c0.347,0,0.627,0.281,0.627,0.627v107.166C77.782,195.675,77.502,195.956,77.155,195.956z"/>
			<polygon style="fill:#FFFFFF;" points="109.895,279.89 161.41,82.452 170.89,82.452 119.375,279.89 			"/>
			
				<rect x="152.485" y="180.614" transform="matrix(-1.836970e-16 1 -1 -1.836970e-16 432.375 -70.0332)" style="fill:#EBEBEB;" width="197.438" height="1.114"/>
			<polygon style="fill:#EBEBEB;" points="262.614,91.934 69.73,91.934 68.923,85.864 261.806,85.864 			"/>
			<polygon style="fill:#EBEBEB;" points="262.614,96.377 69.73,96.377 68.923,90.307 261.806,90.307 			"/>
			<polygon style="fill:#EBEBEB;" points="262.614,101.708 69.73,101.708 68.923,95.638 261.806,95.638 			"/>
			<polygon style="fill:#EBEBEB;" points="262.614,107.641 69.73,107.641 68.923,101.571 261.806,101.571 			"/>
			<polygon style="fill:#EBEBEB;" points="262.614,114.749 69.73,114.749 68.923,108.679 261.806,108.679 			"/>
			<polygon style="fill:#EBEBEB;" points="262.614,122.746 69.73,122.746 68.923,116.676 261.806,116.676 			"/>
		</g>
		<g>
			<polygon style="fill:#EBEBEB;" points="77.666,275.242 99.229,275.242 99.229,277.372 97.865,277.372 96.741,288.667 
				80.154,288.667 79.03,277.372 77.666,277.372 			"/>
			<g>
				<path style="fill:#EBEBEB;" d="M76.081,255.446c-0.007-0.016-0.003-0.033-0.008-0.05c-0.28-0.936-0.539-1.882-0.773-2.836
					c-1.411,1.828-2.782,2.292-3.803,2.292c-0.114,0-0.223-0.006-0.327-0.016c-2.025-0.196-3.965-2.158-5.191-5.248
					c-0.046-0.116-0.04-0.246,0.016-0.358c0.057-0.111,0.158-0.193,0.279-0.225c3.943-1.028,7.068,0.502,8.561,1.484
					c-0.182-0.898-0.337-1.8-0.465-2.701c-0.33,0.058-0.655,0.097-0.97,0.097c-3.304,0-5.727-2.944-5.842-3.086
					c-0.088-0.108-0.118-0.251-0.083-0.385c0.035-0.134,0.132-0.243,0.26-0.294c1.968-0.779,3.636-0.848,4.957-0.2
					c0.817,0.4,1.475,1.075,1.952,1.973c0.71-2.128,2.799-6.197,8.597-7.344c0.126-0.026,0.252,0.006,0.351,0.083
					c0.1,0.077,0.161,0.193,0.168,0.32c0.17,2.999,0.076,6.665-2.175,8.414c-0.854,0.663-1.926,0.994-3.239,0.994
					c-0.908,0-1.938-0.168-3.083-0.484c0.315,2.151,0.793,4.302,1.389,6.408c1.172-1.551,4.228-5.026,8.866-6.223
					c0.234-0.063,0.47,0.079,0.53,0.311c0.681,2.58,0.333,4.676-1.007,6.06c-1.105,1.141-2.83,1.723-5.012,1.723
					c-0.895,0-1.871-0.103-2.908-0.301c0.551,1.766,1.171,3.492,1.831,5.149c1.347-1.191,5.31-4.219,9.617-2.955
					c0.118,0.034,0.217,0.117,0.27,0.229c0.054,0.112,0.058,0.24,0.011,0.355c-1.174,2.856-2.502,4.441-4.179,4.987
					c-0.438,0.142-0.895,0.215-1.379,0.215c-1.061,0-2.247-0.352-3.609-1.058c0.931,2.189,1.907,4.233,2.845,6.059
					c1.015-1.095,3.779-3.352,8.685-2.308c0.215,0.046,0.363,0.246,0.343,0.466c-0.159,1.78-1.422,3.476-3.143,4.219
					c-0.478,0.206-1.167,0.412-2.018,0.412c-0.796,0-1.737-0.189-2.774-0.718c2.18,4.01,3.92,6.56,3.963,6.622
					c0.136,0.198,0.086,0.469-0.112,0.606c-0.075,0.052-0.161,0.077-0.247,0.077c-0.138,0-0.274-0.065-0.359-0.189
					c-0.048-0.069-2.222-3.259-4.77-8.13c-0.032-0.041-0.055-0.086-0.07-0.134c-0.283-0.544-0.57-1.107-0.86-1.69
					c-1.192,1.616-2.777,2.506-4.485,2.506c-0.184,0-0.369-0.01-0.556-0.031c-2-0.222-3.826-1.65-4.441-3.472
					c-0.067-0.199,0.017-0.418,0.2-0.52c3.497-1.955,6.718-1.071,8.388-0.329c-0.627-1.332-1.251-2.742-1.85-4.209
					c-0.038-0.054-0.064-0.116-0.074-0.183c-0.169-0.415-0.335-0.835-0.498-1.259c-1.446,1.82-2.88,2.716-4.37,2.716
					c-0.002,0-0.003,0-0.005,0c-1.814-0.003-3.647-1.34-5.606-4.09c-0.137-0.192-0.096-0.459,0.093-0.601
					c3.081-2.317,7.311-0.737,9.224,0.191c-0.389-1.088-0.756-2.198-1.094-3.323C76.09,255.456,76.084,255.452,76.081,255.446z"/>
				<path style="fill:#EBEBEB;" d="M98.666,267.083c-0.724,0.212-1.435,0.327-2.118,0.327c-1.459,0-2.792-0.482-3.864-1.432
					c-1.652-1.465-2.367-3.777-1.78-5.753c0.06-0.202,0.255-0.332,0.464-0.309c4.805,0.506,7.225,3.699,8.151,5.305
					c0.972-2.179,1.908-4.494,2.733-6.892c-1.266,0.655-2.406,1-3.429,1c-0.494,0-0.962-0.076-1.407-0.227
					c-2.374-0.809-3.808-3.725-5.005-6.756c-0.046-0.115-0.04-0.243,0.015-0.354c0.054-0.111,0.154-0.193,0.273-0.226
					c4.89-1.359,8.847,3.311,10.076,4.978c0.64-2.011,1.192-4.068,1.617-6.139c-1.1,0.2-2.138,0.305-3.094,0.305
					c-2.486,0-4.445-0.671-5.677-1.98c-1.463-1.553-1.818-3.875-1.027-6.716c0.064-0.23,0.3-0.365,0.535-0.304
					c4.993,1.362,8.27,5.156,9.588,6.95c0.063-0.371,0.126-0.741,0.179-1.112c0.014-0.099,0.064-0.18,0.126-0.249
					c0.525-1.583,1.444-2.73,2.675-3.313c1.456-0.69,3.284-0.59,5.435,0.296c0.129,0.053,0.224,0.163,0.257,0.298
					c0.033,0.135,0.001,0.277-0.088,0.384c-0.128,0.154-2.795,3.305-6.381,3.305c-0.371,0-0.755-0.049-1.145-0.124
					c-0.159,1.03-0.351,2.059-0.575,3.085c1.641-1.057,5.123-2.729,9.478-1.529c0.12,0.033,0.22,0.116,0.276,0.229
					c0.054,0.112,0.059,0.242,0.011,0.357c-1.393,3.379-3.551,5.507-5.772,5.69c-0.098,0.009-0.2,0.013-0.305,0.013
					c-1.128,0-2.653-0.518-4.204-2.599c-0.615,2.376-1.372,4.712-2.213,6.963c2.097-0.99,6.814-2.709,10.185-0.1
					c0.187,0.145,0.225,0.412,0.085,0.603c-2.177,2.97-4.194,4.414-6.166,4.414c-0.017,0-0.033,0-0.049,0
					c-1.638-0.02-3.205-1.033-4.772-3.068c-0.896,2.233-1.856,4.362-2.819,6.334c2.096-1.303,4.404-1.096,7.12,0.618
					c0.123,0.077,0.198,0.21,0.203,0.355c0.004,0.145-0.064,0.283-0.181,0.367c-0.152,0.111-2.75,1.952-5.48,1.952
					c-0.978,0-1.972-0.24-2.879-0.876c-3.225,6.2-6.143,10.355-6.202,10.438c-0.094,0.133-0.242,0.203-0.392,0.203
					c-0.097,0-0.194-0.029-0.278-0.089c-0.217-0.153-0.268-0.454-0.114-0.671C90.801,280.938,94.851,275.168,98.666,267.083z"/>
			</g>
		</g>
		<g>
			<rect x="382.169" y="150.604" style="fill:#EBEBEB;" width="45.249" height="49.686"/>
			<path style="fill:#EBEBEB;" d="M422.72,153.769c-0.044,0-0.088-0.011-0.128-0.035c-0.122-0.073-12.196-7.254-16.036-7.254
				c-3.837,0-15.354,7.179-15.47,7.251c-0.114,0.073-0.271,0.039-0.345-0.079c-0.073-0.117-0.038-0.271,0.079-0.345
				c0.478-0.299,11.756-7.327,15.735-7.327c3.977,0,15.791,7.025,16.292,7.324c0.119,0.071,0.157,0.225,0.087,0.343
				C422.888,153.726,422.805,153.769,422.72,153.769z"/>
			<rect x="385.58" y="150.604" style="fill:#F5F5F5;" width="46.739" height="49.686"/>
			
				<rect x="388.022" y="155.994" transform="matrix(-1.836970e-16 1 -1 -1.836970e-16 584.3972 -233.502)" style="fill:#FFFFFF;" width="41.855" height="38.908"/>
			<path style="fill:#F5F5F5;" d="M409.996,180.504c-0.639,0-1.259,0.074-1.859,0.205c0.156-0.522,0.242-1.074,0.242-1.647
				c0-1.411-0.509-2.703-1.351-3.704c0.431,0.128,0.879,0.218,1.351,0.218c2.632,0,4.765-2.133,4.765-4.765
				s-2.133-4.765-4.765-4.765c-2.632,0-4.765,2.133-4.765,4.765c0,1.066,0.363,2.041,0.954,2.835
				c-0.611-0.22-1.266-0.347-1.953-0.347c-3.183,0-5.763,2.58-5.763,5.763c0,3.146,2.523,5.699,5.655,5.758
				c-0.746,1.28-1.181,2.764-1.181,4.353c0,4.787,3.881,8.668,8.668,8.668c4.787,0,8.668-3.881,8.668-8.668
				S414.783,180.504,409.996,180.504z"/>
			<path style="fill:#F5F5F5;" d="M401.618,161.92c0,2.632-2.133,4.765-4.765,4.765s-4.765-2.133-4.765-4.765
				s2.133-4.765,4.765-4.765S401.618,159.289,401.618,161.92z"/>
		</g>
		<g>
			<g>
				<rect x="314.987" y="103.455" style="fill:#EBEBEB;" width="51.14" height="56.155"/>
				<path style="fill:#EBEBEB;" d="M359.818,105.761c-0.044,0-0.088-0.011-0.128-0.035c-0.122-0.073-12.196-7.254-16.036-7.254
					c-3.837,0-15.354,7.179-15.469,7.251c-0.114,0.073-0.27,0.039-0.345-0.079c-0.073-0.117-0.038-0.271,0.079-0.345
					c0.479-0.299,11.755-7.327,15.734-7.327c3.978,0,15.791,7.025,16.292,7.324c0.119,0.071,0.157,0.225,0.087,0.343
					C359.986,105.718,359.903,105.761,359.818,105.761z"/>
				<rect x="318.842" y="103.455" style="fill:#F5F5F5;" width="52.823" height="56.155"/>
				
					<rect x="321.602" y="109.547" transform="matrix(-1.836970e-16 1 -1 -1.836970e-16 476.787 -213.721)" style="fill:#FFFFFF;" width="47.304" height="43.973"/>
			</g>
			<path style="fill:#F5F5F5;" d="M329.56,158.054h-0.773c-0.878,0-1.59-0.712-1.59-1.59v-41.776c0-0.878,0.712-1.59,1.59-1.59
				h0.773c0.878,0,1.59,0.712,1.59,1.59v41.776C331.15,157.342,330.438,158.054,329.56,158.054z"/>
			<path style="fill:#F5F5F5;" d="M342.346,135.576h-2.785c-0.096,0-0.188,0.012-0.279,0.028v-8.771c0-0.878-0.712-1.59-1.59-1.59
				h-2.785c-0.878,0-1.59,0.712-1.59,1.59v29.631c0,0.878,0.712,1.59,1.59,1.59h2.785c0.351,0,0.672-0.117,0.935-0.309
				c0.263,0.192,0.584,0.309,0.935,0.309h2.785c0.878,0,1.59-0.712,1.59-1.59v-19.298
				C343.936,136.288,343.224,135.576,342.346,135.576z"/>
			<path style="fill:#F5F5F5;" d="M357.631,158.054h-10.297c-0.878,0-1.59-0.712-1.59-1.59v-31.221c0-0.878,0.712-1.59,1.59-1.59
				h10.297c0.878,0,1.59,0.712,1.59,1.59v31.221C359.22,157.342,358.509,158.054,357.631,158.054z"/>
			<circle style="fill:#F5F5F5;" cx="360.1" cy="115.021" r="4.874"/>
		</g>
		<path style="fill:#EBEBEB;" d="M183.139,275.167c0,7.456,8.059,13.5,18,13.5c9.941,0,18-6.044,18-13.5H183.139z"/>
	</g>
</g>
<g id="Background_Simple" style="display:none;">
	<g id="_x3C_Group_x3E__13_" style="display:inline;">
		<path id="_x3C_Path_x3E_" style="fill:#407BFF;" d="M127.98,163.969c-9.362,83.555,7.258,169.54,104.758,181.608
			c50.261,6.221,153.777-16.117,156.528-80.494c3.792-88.723-95.256-56.245-136.818-86.003
			c-28.489-20.397-6.471-75.416-59.031-84.632C151.869,87.163,131.872,129.233,127.98,163.969z"/>
		<path id="_x3C_Path_x3E__2_" style="opacity:0.9;fill:#FFFFFF;" d="M127.98,163.969c-9.362,83.555,7.258,169.54,104.758,181.608
			c50.261,6.221,153.777-16.117,156.528-80.494c3.792-88.723-95.256-56.245-136.818-86.003
			c-28.489-20.397-6.471-75.416-59.031-84.632C151.869,87.163,131.872,129.233,127.98,163.969z"/>
	</g>
</g>
<g id="Shadow_1_">
	<ellipse id="_x3C_Path_x3E__1_" style="fill:#F5F5F5;" cx="250" cy="416.238" rx="193.889" ry="11.323"/>
</g>
<g id="Bubble_Speech_1_">
	<g id="_x3C_Group_x3E_">
		<ellipse style="fill:#E6E6E6;" cx="342.629" cy="416.238" rx="18.07" ry="1.114"/>
		<g id="_x3C_Group_x3E__12_">
			<path style="fill:#263238;" d="M219.882,389.989h157.97c15.313,0,27.841-12.529,27.841-27.841V272.87
				c0-15.313-12.529-27.841-27.841-27.841h-157.97c-15.313,0-27.841,12.528-27.841,27.841v89.278
				C192.041,377.461,204.569,389.989,219.882,389.989z"/>
			<polygon id="_x3C_Path_x3E__3_" style="fill:#263238;" points="350.303,416.238 335.353,416.238 304.972,344.265 
				327.849,344.265 			"/>
		</g>
		<g id="_x3C_Group_x3E__7_">
			<g id="_x3C_Group_x3E__11_">
				<rect x="409.194" y="310.167" style="fill:#407BFF;" width="1" height="7.343"/>
				<rect x="409.194" y="310.167" style="opacity:0.2;" width="1" height="7.343"/>
			</g>
			<g id="_x3C_Group_x3E__10_">
				<rect x="409.194" y="278.88" style="fill:#407BFF;" width="1" height="26.277"/>
				<rect x="409.194" y="278.88" style="opacity:0.2;" width="1" height="26.277"/>
			</g>
			<g id="_x3C_Group_x3E__8_">
				<rect x="269.583" y="240.529" style="fill:#407BFF;" width="13.564" height="1"/>
				<rect x="269.583" y="240.529" style="opacity:0.2;" width="13.564" height="1"/>
			</g>
			<g id="_x3C_Group_x3E__9_">
				<polygon style="fill:#407BFF;" points="391.44,344.265 350.271,416.238 319.89,344.265 				"/>
				<polygon style="opacity:0.2;" points="391.452,344.265 350.283,416.238 319.902,344.265 				"/>
			</g>
			<g id="_x3C_Group_x3E__4_">
				<path id="_x3C_Rectangle_x3E__1_" style="fill:#407BFF;" d="M232.459,389.989h145.393c15.313,0,27.841-12.529,27.841-27.841
					V272.87c0-15.313-12.529-27.841-27.841-27.841H232.459c-15.313,0-27.841,12.528-27.841,27.841v89.278
					C204.618,377.461,217.147,389.989,232.459,389.989z"/>
				<path id="_x3C_Rectangle_x3E_" style="opacity:0.2;" d="M232.459,389.989h145.393c15.313,0,27.841-12.529,27.841-27.841V272.87
					c0-15.313-12.529-27.841-27.841-27.841H232.459c-15.313,0-27.841,12.528-27.841,27.841v89.278
					C204.618,377.461,217.147,389.989,232.459,389.989z"/>
			</g>
			<g id="_x3C_Group_x3E__5_">
				<polygon style="opacity:0.7;fill:#407BFF;" points="282.753,389.989 256.149,389.989 284.293,245.029 310.898,245.029 				"/>
				<polygon style="opacity:0.7;fill:#407BFF;" points="306.779,389.989 291.653,389.989 319.797,245.029 334.924,245.029 				"/>
			</g>
		</g>
		<g id="_x3C_Group_x3E__6_">
			<path id="_x3C_Path_x3E__4_" style="fill:#FFFFFF;" d="M369.623,291.801h-73.92c-4.26,0-7.714-3.454-7.714-7.714
				c0-4.26,3.454-7.714,7.714-7.714h73.92c4.26,0,7.714,3.454,7.714,7.714C377.337,288.347,373.883,291.801,369.623,291.801z"/>
			<path id="_x3C_Path_x3E__5_" style="fill:#FFFFFF;" d="M270.375,291.801h-33.484c-4.26,0-7.714-3.454-7.714-7.714
				c0-4.26,3.454-7.714,7.714-7.714h33.484c4.26,0,7.714,3.454,7.714,7.714C278.089,288.347,274.635,291.801,270.375,291.801z"/>
			<path id="_x3C_Path_x3E__7_" style="fill:#FFFFFF;" d="M369.623,324.316H244.745c-4.26,0-7.714-3.454-7.714-7.714
				s3.454-7.714,7.714-7.714h124.878c4.26,0,7.714,3.454,7.714,7.714S373.883,324.316,369.623,324.316z"/>
			<path id="_x3C_Path_x3E__8_" style="fill:#FFFFFF;" d="M369.623,356.83h-57.85c-4.26,0-7.714-3.454-7.714-7.714
				c0-4.26,3.454-7.714,7.714-7.714h57.85c4.26,0,7.714,3.454,7.714,7.714C377.337,353.377,373.883,356.83,369.623,356.83z"/>
		</g>
		<path id="_x3C_Path_x3E__6_" style="opacity:0.1;" d="M240.721,245.029c0,0-11.064,59.804-11.064,85.058
			c0,25.913,9.142,59.902,9.142,59.902h-29.203l-1.939-32.806c-1.814-30.686,1.224-61.466,9.001-91.206l5.479-20.948H240.721z"/>
	</g>
</g>
<g id="Character_1_">
	<g id="_x3C_Group_x3E__1_">
		<path id="_x3C_Path_x3E__54_" style="fill:#E6E6E6;" d="M225.489,416.238c0,1.181-16.401,2.139-36.632,2.139
			c-20.231,0-36.632-0.958-36.632-2.139c0-1.182,16.401-2.139,36.632-2.139C209.088,414.099,225.489,415.056,225.489,416.238z"/>
		<path id="_x3C_Path_x3E__53_" style="fill:#FF8B7B;" d="M212.934,167.728c-3.1,0.492-5.997,0.74-9,0.964
			c-2.982,0.196-5.974,0.25-8.974,0.233c-6.029-0.033-11.992-0.647-18.156-2.035c-2.26-0.594-3.823-1.599-5.209-2.624
			c-1.374-1.038-2.554-2.138-3.66-3.263c-2.2-2.253-4.068-4.635-5.836-7.054c-3.478-4.887-6.52-9.886-9.191-15.201l3.752-2.244
			c1.679,2.262,3.41,4.573,5.186,6.789c1.75,2.242,3.557,4.431,5.431,6.515c1.852,2.095,3.781,4.101,5.76,5.857
			c0.988,0.871,2.001,1.673,2.99,2.308c0.975,0.629,1.972,1.098,2.54,1.175c2.536,0.425,5.333,0.768,8.06,0.909
			c2.755,0.125,5.526,0.196,8.316,0.154c2.788-0.04,5.584-0.194,8.378-0.394c2.77-0.182,5.64-0.489,8.271-0.811L212.934,167.728z"/>
		<path id="_x3C_Path_x3E__52_" style="fill:#263238;" d="M221.928,159.612c-7.612-4.592-17.913-1.263-17.913-1.263l5.214,18.028
			c0,0,8.237-2.322,11.474-5.831C224.073,166.893,226.515,162.38,221.928,159.612z"/>
		<path id="_x3C_Path_x3E__51_" style="fill:#FF8B7B;" d="M157.3,138.417l1.84-6.199l-8.712,1.08c0,0,0.861,4.04,3.17,6.786
			L157.3,138.417z"/>
		<polygon id="_x3C_Path_x3E__50_" style="fill:#FF8B7B;" points="158.509,124.989 151.264,126.288 150.428,133.299 159.14,132.219 
					"/>
		<path id="_x3C_Path_x3E__49_" style="fill:#263238;" d="M257.457,102.748c7.704,0.162,5.539,6.589,5.539,6.589
			s8.389-5.298,11.059,0.897c2.669,6.195-3.34,8.15-6.86,9.081c2.206,1.266,2.324,5.381-0.777,6.738
			c-3.102,1.357-8.285-2.366-12.21-2.313l-3.853-4.571C255.59,115.769,249.753,102.586,257.457,102.748z"/>
		<path id="_x3C_Path_x3E__48_" style="fill:#407BFF;" d="M256.258,126.924c3.36,0.584,5.802,0.168,5.138-3.543
			c-0.664-3.712-3.539-7.604-7.776-9.168s-5.187,5.441-5.187,5.441L256.258,126.924z"/>
		<polygon id="_x3C_Path_x3E__47_" style="fill:#FF8B7B;" points="158,386.068 149.424,385.082 151.134,365.157 159.71,366.143 		
			"/>
		<polygon id="_x3C_Path_x3E__46_" style="fill:#FF8B7B;" points="214.834,409.423 206.211,409.027 204.355,388.931 
			212.979,389.327 		"/>
		<path id="_x3C_Path_x3E__45_" style="fill:#263238;" d="M205.879,406.425l9.698,0c0.353,0,0.639,0.245,0.689,0.59l1.105,7.673
			c0.115,0.796-0.57,1.549-1.384,1.535c-3.381-0.058-5.01-0.257-9.275-0.257c-2.624,0-6.457,0.273-10.08,0.273
			c-3.544,0-3.816-3.583-2.308-3.907c6.765-1.455,7.833-3.461,10.112-5.375C204.847,406.61,205.363,406.425,205.879,406.425z"/>
		<path id="_x3C_Path_x3E__44_" style="fill:#263238;" d="M149.133,381.943l9.631-1.141c0.351-0.042,0.664,0.168,0.754,0.504l2,7.49
			c0.207,0.777-0.384,1.605-1.194,1.687c-3.365,0.34-5.006,0.334-9.241,0.836c-2.606,0.309-7.963,1.218-11.561,1.644
			c-3.519,0.417-4.211-3.109-2.751-3.609c6.547-2.241,8.955-4.546,10.993-6.715C148.13,382.249,148.62,382.004,149.133,381.943z"/>
		<polygon id="_x3C_Path_x3E__43_" style="fill:#EA7063;" points="151.136,365.163 150.252,375.433 158.832,376.419 
			159.715,366.149 		"/>
		<polygon id="_x3C_Path_x3E__42_" style="fill:#EA7063;" points="212.981,389.332 204.354,388.936 205.315,399.295 
			213.942,399.691 		"/>
		<path id="_x3C_Path_x3E__41_" style="fill:#263238;" d="M213.57,157.319c0,0-4.351,0.272-10.239,51.25
			c13.385,3.794,27.217,7.715,33.73,9.561c3.325-13.888,5.708-22.358,20.255-48.671c0,0-6.632-3.541-13.788-5.947
			c-5.598-1.882-10.198-3.382-15.316-4.341C221.463,157.906,213.57,157.319,213.57,157.319z"/>
		<path id="_x3C_Path_x3E__40_" style="fill:#FF8B7B;" d="M246.899,145.835c-2.363,4.654-5.887,13.411-3.371,17.676
			c0,0-2.764,4.617-11.921,2.022c-10.069-2.854-3.395-6.362-3.395-6.362c5.867,0.245,6.881-3.872,7.009-7.973L246.899,145.835z"/>
		<path id="_x3C_Path_x3E__39_" style="fill:#FF8B7B;" d="M218.781,157.816c2.758,0.305,6.226,0.756,9.433,1.353
			c5.123,0.957,9.723,2.462,15.319,4.342c2.866,0.959,5.644,2.095,7.938,3.13c-0.455,1.669-3.777,10.332-23.433,5.321
			C209.679,167.282,216.685,159.516,218.781,157.816z"/>
		<path id="_x3C_Path_x3E__38_" style="fill:#EA7063;" d="M242.137,148.024l-6.911,3.171c-0.027,0.971-0.109,1.941-0.298,2.852
			c2.185,0.292,5.882-0.692,6.728-2.827C242.078,150.155,242.171,148.585,242.137,148.024z"/>
		<path id="_x3C_Path_x3E__37_" style="fill:#FF8B7B;" d="M251.286,134.887c-2.061,8.316-2.756,11.879-7.797,15.416
			c-7.582,5.32-17.345,0.969-17.81-7.794c-0.418-7.888,3.023-20.162,11.87-21.997C246.266,118.705,253.347,126.572,251.286,134.887z
			"/>
		<path id="_x3C_Path_x3E__36_" style="fill:#263238;" d="M248.592,142.912c-2.508-1.305-4.523-5.015-0.901-8.438
			c0,0-4.957-2.855-2.49-6.789c2.467-3.934,12.538-7.194,14.112-1.92c1.574,5.274-3.313,7.45-3.313,7.45s4.01,6.123-3.19,8.14
			c0,0-0.622,8.836-5.784,4.904L248.592,142.912z"/>
		<path id="_x3C_Path_x3E__35_" style="fill:#FF8B7B;" d="M251.198,142.716c-0.491,1.707-1.725,3.028-3.013,3.713
			c-1.938,1.031-3.377-0.588-3.232-2.663c0.13-1.868,1.296-4.655,3.431-4.83C250.487,138.763,251.76,140.764,251.198,142.716z"/>
		<path id="_x3C_Path_x3E__34_" style="fill:#407BFF;" d="M203.331,208.569c0,0-39.177,46.209-45.812,71.689
			c-6.901,26.504-10.026,91.96-10.026,91.96l13.46,1.759c0,0,8.997-59.931,20.321-84.343c12.064-26.005,46.756-74.064,46.756-74.064
			L203.331,208.569z"/>
		<polygon id="_x3C_Path_x3E__33_" style="fill:#407BFF;" points="162.797,374.218 145.651,371.977 145.355,367.278 
			164.222,371.111 		"/>
		<polygon id="_x3C_Path_x3E__32_" style="opacity:0.3;" points="162.797,374.218 145.651,371.977 145.355,367.278 164.222,371.111 
					"/>
		<path id="_x3C_Path_x3E__31_" style="opacity:0.2;" d="M202.657,229.581c-4.568,16.542-5.857,25.655-7.214,34.599
			c3.573-5.8,7.349-11.669,11.024-17.231c1.334-2.94,2.691-5.846,4.025-8.684c0-0.034,0.023-0.068,0.034-0.102L202.657,229.581z"/>
		<path id="_x3C_Path_x3E__30_" style="fill:#407BFF;" d="M212.239,211.094c0,0-11.337,58.368-15.442,91.911
			c-3.315,27.093,7.135,92.822,7.135,92.822l11.235,0.69c0,0-2.367-58.701,2.857-84.946c13.219-66.411,25.576-75.325,19.038-93.442
			L212.239,211.094z"/>
		<polygon id="_x3C_Path_x3E__29_" style="fill:#407BFF;" points="216.558,396.602 202.008,395.709 201.332,391.569 
			217.091,393.208 		"/>
		<polygon id="_x3C_Path_x3E__28_" style="opacity:0.3;" points="216.558,396.602 202.008,395.709 201.332,391.569 217.091,393.208 
					"/>
		<path id="_x3C_Path_x3E__27_" style="fill:#407BFF;" d="M238.128,216.293l0.665,3.45c0.051,0.268-0.294,0.428-0.684,0.317
			l-35.373-10.026c-0.304-0.086-0.514-0.306-0.479-0.503l0.552-3.105c0.038-0.215,0.352-0.317,0.685-0.223l34.156,9.681
			C237.901,215.955,238.094,216.121,238.128,216.293z"/>
		<path id="_x3C_Path_x3E__26_" style="opacity:0.4;" d="M238.128,216.293l0.665,3.45c0.051,0.268-0.294,0.428-0.684,0.317
			l-35.373-10.026c-0.304-0.086-0.514-0.306-0.479-0.503l0.552-3.105c0.038-0.215,0.352-0.317,0.685-0.223l34.156,9.681
			C237.901,215.955,238.094,216.121,238.128,216.293z"/>
		<path id="_x3C_Path_x3E__25_" style="fill:#407BFF;" d="M232.458,218.812l0.915,0.259c0.182,0.052,0.348-0.003,0.368-0.121
			l0.683-4.044c0.02-0.118-0.113-0.257-0.295-0.309l-0.915-0.259c-0.182-0.051-0.348,0.003-0.368,0.121l-0.683,4.044
			C232.143,218.621,232.276,218.76,232.458,218.812z"/>
		<path id="_x3C_Path_x3E__24_" style="fill:#407BFF;" d="M205.214,211.09l0.915,0.259c0.182,0.052,0.348-0.003,0.368-0.121
			l0.683-4.044c0.02-0.118-0.113-0.258-0.295-0.309l-0.915-0.259c-0.182-0.052-0.348,0.003-0.368,0.121l-0.683,4.044
			C204.899,210.9,205.032,211.039,205.214,211.09z"/>
		<path id="_x3C_Path_x3E__23_" style="fill:#407BFF;" d="M218.836,214.951l0.915,0.259c0.182,0.052,0.348-0.003,0.368-0.121
			l0.683-4.044c0.02-0.118-0.113-0.257-0.295-0.309l-0.915-0.259c-0.182-0.052-0.348,0.003-0.368,0.121l-0.683,4.044
			C218.521,214.76,218.654,214.9,218.836,214.951z"/>
		<path id="_x3C_Path_x3E__22_" style="fill:#263238;" d="M238.097,134.895c-0.126,0.685-0.591,1.173-1.038,1.091
			c-0.448-0.082-0.708-0.704-0.583-1.389c0.126-0.685,0.591-1.173,1.038-1.091C237.962,133.589,238.223,134.21,238.097,134.895z"/>
		<path id="_x3C_Path_x3E__21_" style="fill:#263238;" d="M230.357,133.473c-0.126,0.685-0.591,1.173-1.038,1.091
			c-0.448-0.082-0.708-0.704-0.583-1.389c0.126-0.685,0.591-1.173,1.038-1.091C230.222,132.167,230.483,132.788,230.357,133.473z"/>
		<path id="_x3C_Path_x3E__20_" style="fill:#263238;" d="M229.965,132.159l-1.558-0.776
			C228.407,131.383,229.015,132.822,229.965,132.159z"/>
		<path id="_x3C_Path_x3E__19_" style="fill:#FF5652;" d="M232.186,135.026c0,0-1.704,2.735-3.244,3.922
			c0.749,1.01,2.357,0.907,2.357,0.907L232.186,135.026z"/>
		<path id="_x3C_Path_x3E__18_" style="fill:#263238;" d="M234.419,143.106c-0.378,0-0.779-0.034-1.205-0.112
			c-0.111-0.02-0.186-0.127-0.164-0.238c0.02-0.11,0.127-0.182,0.237-0.164c2.998,0.547,4.795-1.29,4.813-1.308
			c0.077-0.082,0.208-0.085,0.289-0.007c0.082,0.078,0.085,0.207,0.007,0.289C238.329,141.637,236.902,143.106,234.419,143.106z"/>
		<path id="_x3C_Path_x3E__17_" style="fill:#263238;" d="M240.962,132.834c-0.149,0-0.294-0.083-0.365-0.226
			c-0.818-1.629-2.314-1.814-2.329-1.816c-0.224-0.025-0.386-0.227-0.361-0.452c0.025-0.224,0.219-0.388,0.452-0.361
			c0.079,0.009,1.953,0.241,2.969,2.262c0.102,0.202,0.02,0.447-0.182,0.549C241.086,132.82,241.024,132.834,240.962,132.834z"/>
		<path id="_x3C_Path_x3E__16_" style="fill:#263238;" d="M227.571,129.268c-0.103,0-0.205-0.039-0.285-0.115
			c-0.162-0.157-0.165-0.416-0.009-0.578c1.575-1.625,3.43-1.287,3.509-1.272c0.221,0.043,0.366,0.257,0.324,0.479
			c-0.044,0.221-0.262,0.364-0.478,0.324c-0.075-0.013-1.518-0.253-2.767,1.038C227.785,129.226,227.678,129.268,227.571,129.268z"
			/>
		<path id="_x3C_Path_x3E__15_" style="fill:#FF8B7B;" d="M258.372,178.925c0.68,3.064,1.104,5.94,1.51,8.925
			c0.378,2.964,0.613,5.947,0.779,8.943c0.334,6.02,0.084,12.009-0.926,18.246c-0.455,2.292-1.363,3.913-2.302,5.359
			c-0.952,1.435-1.979,2.679-3.034,3.852c-2.115,2.333-4.379,4.342-6.685,6.255c-4.666,3.769-9.471,7.11-14.613,10.1l-2.468-3.608
			c2.156-1.813,4.357-3.683,6.46-5.59c2.132-1.884,4.206-3.82,6.172-5.817c1.978-1.976,3.863-4.023,5.495-6.106
			c0.809-1.04,1.548-2.099,2.122-3.125c0.568-1.012,0.976-2.035,1.018-2.607c0.269-2.558,0.442-5.37,0.417-8.1
			c-0.044-2.758-0.141-5.528-0.353-8.31c-0.21-2.781-0.533-5.562-0.903-8.338c-0.35-2.754-0.831-5.6-1.314-8.206L258.372,178.925z"
			/>
		<path id="_x3C_Path_x3E__14_" style="fill:#263238;" d="M257.317,169.458c3.088,1.985,3.849,14.772,3.849,14.772l-15.768,5.658
			c0,0-2.028-11.069,0.63-15.034C248.796,170.724,253.793,167.193,257.317,169.458z"/>
		<path style="fill:#407BFF;" d="M202.924,407.933c-0.664,0-1.276-0.115-1.644-0.45c-0.289-0.264-0.404-0.629-0.339-1.086
			c0.048-0.345,0.247-0.503,0.406-0.574c1.004-0.46,3.625,1.237,3.922,1.431c0.067,0.045,0.103,0.126,0.088,0.207
			c-0.013,0.081-0.074,0.145-0.153,0.163C204.593,407.767,203.722,407.933,202.924,407.933z M201.776,406.147
			c-0.102,0-0.19,0.014-0.259,0.046c-0.067,0.03-0.147,0.087-0.171,0.259c-0.044,0.32,0.024,0.558,0.21,0.727
			c0.437,0.399,1.568,0.449,3.071,0.151C203.699,406.77,202.439,406.147,201.776,406.147z"/>
		<path style="fill:#407BFF;" d="M205.157,407.628c-0.034,0-0.07-0.009-0.1-0.026c-0.824-0.467-2.394-2.329-2.198-3.303
			c0.036-0.186,0.176-0.508,0.688-0.57c0.32-0.038,0.616,0.053,0.866,0.273c0.939,0.831,0.95,3.317,0.95,3.422
			c0,0.073-0.038,0.14-0.101,0.177C205.227,407.619,205.192,407.628,205.157,407.628z M203.688,404.13
			c-0.031,0-0.062,0.001-0.094,0.005c-0.26,0.031-0.317,0.147-0.336,0.244c-0.119,0.593,0.86,1.992,1.68,2.647
			c-0.047-0.827-0.239-2.223-0.799-2.717C204.004,404.189,203.856,404.13,203.688,404.13z"/>
		<path style="fill:#407BFF;" d="M145.331,383.871c-0.553,0-1.042-0.092-1.38-0.33c-0.309-0.217-0.473-0.535-0.484-0.945
			c-0.007-0.244,0.089-0.445,0.28-0.581c0.982-0.7,4.606,0.64,5.015,0.796c0.081,0.031,0.134,0.109,0.131,0.195
			c-0.002,0.087-0.059,0.164-0.141,0.19C147.845,383.491,146.457,383.871,145.331,383.871z M144.611,382.215
			c-0.278,0-0.497,0.04-0.627,0.133c-0.077,0.055-0.111,0.128-0.108,0.236c0.008,0.277,0.109,0.48,0.31,0.623
			c0.576,0.404,1.995,0.32,3.858-0.221C146.921,382.603,145.478,382.215,144.611,382.215z"/>
		<path style="fill:#407BFF;" d="M148.69,383.206c-0.021,0-0.042-0.003-0.062-0.009c-1.077-0.341-3.317-1.951-3.273-2.94
			c0.01-0.234,0.139-0.54,0.695-0.664c0.408-0.091,0.803-0.018,1.166,0.217c1.184,0.771,1.655,3.054,1.675,3.15
			c0.013,0.072-0.011,0.145-0.064,0.193C148.788,383.188,148.74,383.206,148.69,383.206z M146.389,379.964
			c-0.082,0-0.166,0.01-0.251,0.029c-0.365,0.081-0.372,0.232-0.374,0.281c-0.027,0.594,1.518,1.886,2.633,2.394
			c-0.179-0.66-0.628-2.01-1.404-2.514C146.799,380.027,146.599,379.964,146.389,379.964z"/>
		<g>
			<g>
				<g>
					<path style="opacity:0.6;fill:#407BFF;" d="M185.516,130.477c-35.886-8.304-71.709,14.055-80.013,49.941
						c-2.962,12.801-2.005,25.587,2.058,37.126l-19.473,20.677l29.393-2.282c9.09,11.912,22.224,20.849,37.963,24.491
						c35.886,8.304,71.709-14.055,80.013-49.941C243.761,174.604,221.402,138.781,185.516,130.477z"/>
				</g>
				<path style="opacity:0.1;" d="M185.516,130.477c-35.886-8.304-71.709,14.055-80.013,49.941
					c-2.962,12.801-2.005,25.587,2.058,37.126l-19.473,20.677l29.393-2.282c9.09,11.912,22.224,20.849,37.963,24.491
					c35.886,8.304,71.709-14.055,80.013-49.941C243.761,174.604,221.402,138.781,185.516,130.477z"/>
			</g>
			<path style="fill:#FFFFFF;" d="M170.54,258.912h-0.001c-4.804,0-9.636-0.554-14.361-1.647
				c-14.36-3.324-27.185-11.596-36.113-23.296l-1.072-1.407l-22.409,1.739c-0.063-0.007-0.114-0.028-0.138-0.081
				c-0.025-0.052-0.015-0.115,0.024-0.158l14.816-15.732l-0.657-1.867c-4-11.356-4.676-23.567-1.958-35.313
				c6.697-28.942,32.09-49.155,61.751-49.155c4.804,0,9.636,0.554,14.361,1.648c34.082,7.886,55.395,42.03,47.508,76.113
				C225.593,238.699,200.2,258.912,170.54,258.912z M119.058,232.274c0.044,0,0.085,0.02,0.113,0.055l1.119,1.467
				c8.889,11.648,21.656,19.884,35.952,23.192c4.704,1.089,9.514,1.641,14.297,1.641h0.001c29.528,0,54.808-20.124,61.475-48.937
				c7.851-33.93-13.366-67.922-47.296-75.774c-4.704-1.089-9.514-1.641-14.297-1.641c-29.529,0-54.809,20.123-61.475,48.936
				c-2.707,11.694-2.033,23.85,1.949,35.155l0.686,1.948c0.018,0.05,0.006,0.105-0.031,0.144l-14.625,15.529l22.122-1.717
				C119.051,232.274,119.055,232.274,119.058,232.274z"/>
			<path style="fill:#FFFFFF;" d="M193.617,184.103c0.326-0.743,0.105-1.614-0.537-2.111c-2.944-2.284-7.157-4.178-11.557-5.196
				c-14.858-3.438-29.744,5.853-33.182,20.711c-2.299,9.936,3.149,16.674,9.718,18.194c5.749,1.33,10.925,0.168,15.723-3.552
				c0.092,1.985,0.683,3.481,1.297,4.521c1.31,2.218,3.542,3.789,6.284,4.424c10.271,2.377,22.819-4.51,26.929-22.271
				c4.425-19.124-5.929-35.591-25.178-40.046c-23.127-5.352-44.804,8.922-50.422,33.203c-4.683,20.238,6.204,38.234,25.887,42.789
				c7.812,1.808,14.22,1.843,20.777,0.113c0.861-0.227,1.421-1.057,1.306-1.94l-0.644-4.97c-0.067-0.514-0.355-0.973-0.788-1.256
				c-0.432-0.283-0.968-0.364-1.465-0.218c-4.552,1.327-10.247,1.32-16.036-0.02c-15.325-3.546-23.111-16.781-19.373-32.935
				c4.506-19.471,20.476-30.665,37.974-26.616c14.819,3.429,21.83,15.052,18.294,30.331c-1.548,6.691-4.74,11.935-8.757,14.387
				c-1.786,1.091-3.568,1.484-5.065,1.113c-0.809-0.213-1.087-0.606-1.239-0.924c-0.424-0.889-0.733-3.278,1.976-9.308
				L193.617,184.103z M178.143,185.593c1.155,0.267,2.244,0.627,3.255,1.075l-4.354,9.988c-2.467,5.786-9.252,11.606-14.303,10.437
				c-4.609-1.066-4.375-5.211-3.825-7.587C161.102,190.059,169.907,183.687,178.143,185.593z"/>
		</g>
		<path id="_x3C_Path_x3E__13_" style="fill:#FF8B7B;" d="M232.503,236.241l-7.583-4.302l1.609,8.63c0,0,5.264,1.738,7.864-0.735
			L232.503,236.241z"/>
		<polygon id="_x3C_Path_x3E__12_" style="fill:#FF8B7B;" points="217.742,233.01 219.48,240.161 226.529,240.569 224.92,231.939 		
			"/>
		<path id="_x3C_Path_x3E__11_" style="fill:#263238;" d="M237.705,133.581l-1.558-0.776
			C236.147,132.804,236.755,134.244,237.705,133.581z"/>
		<path id="_x3C_Path_x3E__10_" style="fill:#263238;" d="M248.435,129.627c-4.289-0.264-7.421-2.148-7.845-4.619
			c0,0-9.817,4.077-13.793-1.962c0,0-4.475,0.748-5.584-2.372c-1.109-3.12,3.55-4.059,5.751-2.608c0,0-6.824-6.002,0.175-7.67
			c6.999-1.668,8.502,3.992,8.502,3.992s2.755-8.281,8.958-4.599c6.204,3.682,2.408,7.247,2.408,7.247s14.819,1.152,9.299,6.98
			C250.786,129.845,248.435,129.627,248.435,129.627z"/>
		<path id="_x3C_Path_x3E__9_" style="fill:#263238;" d="M243.068,158.368c0.842,0.086,0.467,2.999,0.09,3.201
			c-0.871,0.466-11.352-1.683-11.045-3.299c0.299-0.603,0.976-1.736,1.481-2.078C234.098,155.851,235.699,157.758,243.068,158.368z"
			/>
	</g>
</g>
<g id="Quotation_Marks_1_">
	<g>
		<g id="_x3C_Group_x3E__21_">
			<path style="fill:#407BFF;" d="M297.798,181.268c-9.247,0-16.743,7.496-16.743,16.743c0,8.443,6.257,15.408,14.383,16.557
				c-0.019,3.031-0.695,7.768-4.16,11.535c0,0,23.262-5.796,23.262-28.092C314.54,188.763,307.044,181.268,297.798,181.268z"/>
			<path style="fill:#407BFF;" d="M335.469,181.268c-9.247,0-16.743,7.496-16.743,16.743c0,8.443,6.257,15.408,14.383,16.557
				c-0.019,3.031-0.695,7.768-4.16,11.535c0,0,23.263-5.796,23.263-28.092C352.211,188.763,344.715,181.268,335.469,181.268z"/>
		</g>
	</g>
</g>
</svg>
