<?xml version="1.0" encoding="utf-8"?>
<!-- Generator: Adobe Illustrator 27.5.0, SVG Export Plug-In . SVG Version: 6.00 Build 0)  -->
<svg version="1.1" xmlns="http://www.w3.org/2000/svg" xmlns:xlink="http://www.w3.org/1999/xlink" x="0px" y="0px"
	 viewBox="0 0 500 500" style="enable-background:new 0 0 500 500;" xml:space="preserve">
<g id="Background_complete">
	<g>
		<g>
			<g>
				<g>
					<g>
						<path style="fill:#E0E0E0;" d="M443.92,345.062H263.174c-3.232,0-5.862-2.63-5.862-5.862V75.926
							c0-3.232,2.63-5.862,5.862-5.862H443.92c3.232,0,5.862,2.629,5.862,5.862v263.273
							C449.783,342.432,447.153,345.062,443.92,345.062z M263.174,70.314c-3.095,0-5.612,2.518-5.612,5.612v263.273
							c0,3.095,2.518,5.612,5.612,5.612H443.92c3.095,0,5.612-2.517,5.612-5.612V75.926c0-3.094-2.518-5.612-5.612-5.612H263.174z"
							/>
					</g>
				</g>
				<g>
					<g>
						<path style="fill:#E0E0E0;" d="M235.493,345.062H54.746c-3.232,0-5.862-2.63-5.862-5.862V75.926
							c0-3.232,2.629-5.862,5.862-5.862h180.747c3.232,0,5.862,2.629,5.862,5.862v263.273
							C241.355,342.432,238.725,345.062,235.493,345.062z M54.746,70.314c-3.094,0-5.612,2.518-5.612,5.612v263.273
							c0,3.095,2.518,5.612,5.612,5.612h180.747c3.095,0,5.612-2.517,5.612-5.612V75.926c0-3.094-2.518-5.612-5.612-5.612H54.746z"
							/>
					</g>
				</g>
			</g>
			<g>
				<g>
					<rect x="0" y="406.131" style="fill:#E0E0E0;" width="500" height="0.25"/>
				</g>
			</g>
		</g>
		<rect x="51.672" y="420.396" style="fill:#E0E0E0;" width="16.06" height="0.25"/>
		<rect x="170.352" y="417.686" style="fill:#E0E0E0;" width="53.53" height="0.25"/>
		<rect x="68.732" y="429.686" style="fill:#E0E0E0;" width="36.25" height="0.25"/>
		<rect x="378.352" y="417.556" style="fill:#E0E0E0;" width="43.19" height="0.25"/>
		<rect x="430.452" y="417.556" style="fill:#E0E0E0;" width="6.33" height="0.25"/>
		<rect x="316.212" y="423.786" style="fill:#E0E0E0;" width="53.89" height="0.25"/>
	</g>
	<path style="fill:#EBEBEB;" d="M112.443,401.879c0.353-2.968,0.196-7.282-3.465-8.485c-5.74-1.896-9.152-6.341-8.956-11.361
		c0.196-5.02-5.844-9.923-10.368-5.23c-4.524,4.694-3.922-3.621-9.962-5.648c-6.04-2.026-11.165,2.89-9.505,7.374
		c1.66,4.484-4.314,7.295-11.44,3.478c-7.125-3.818-14.983,3.151-13.479,8.59c1.504,5.439,0.275,6.027-4.236,4.223
		c-3.831-1.53-10.185,1.922-10.329,7.06H112.443z"/>
	<path style="fill:#EBEBEB;" d="M91.971,401.879h134.271c1.896-6.302-2.994-13.859-8.315-14.931
		c-6.537-1.307-13.074-12.813-13.414-20.134c-0.34-7.321-12.08-29.848-30.384-15.937c-18.304,13.911-12.734,2.053-25.978-1.857
		c-13.244-3.909-21.598,7.335-15.781,15.767c0,0-13.309-3.334-18.787,9.087c-5.478,12.42,0,20.134,0,20.134
		S96.77,393.524,91.971,401.879z"/>
	<path style="fill:#F5F5F5;" d="M336.367,91.644c0-4.755,3.849-8.612,8.604-8.622c0.839,0.006,1.673,0.132,2.476,0.374
		c-0.138-0.872-0.203-1.754-0.196-2.637c0-10.064,8.159-18.223,18.223-18.223c1.123,0.001,2.244,0.102,3.349,0.303
		c4.566-7.517,14.362-9.909,21.879-5.343c4.689,2.848,7.582,7.909,7.656,13.395h0.267c8.107,0,14.678,6.572,14.678,14.678
		c0,8.106-6.572,14.678-14.678,14.678h-53.921C340.052,100.112,336.355,96.297,336.367,91.644z"/>
	<path style="fill:#F5F5F5;" d="M81.394,199.752c0-3.579,2.898-6.483,6.477-6.49c0.632,0.004,1.259,0.099,1.864,0.282
		c-0.104-0.656-0.153-1.32-0.148-1.985c0-7.576,6.142-13.718,13.718-13.718c0.845,0.001,1.689,0.077,2.521,0.228
		c3.437-5.659,10.811-7.46,16.47-4.022c3.53,2.144,5.707,5.954,5.763,10.083h0.201c6.103,0,11.049,4.947,11.049,11.049
		c0,6.102-4.947,11.049-11.049,11.049h-40.59C84.168,206.127,81.385,203.255,81.394,199.752z"/>
	<path style="fill:#E6E6E6;" d="M403.327,152.853c0-2.248,1.823-4.071,4.071-4.071c0.395-0.003,0.788,0.052,1.167,0.163
		c-0.055-0.414-0.082-0.831-0.081-1.248c0-4.766,3.864-8.63,8.63-8.63c0.533,0.001,1.064,0.051,1.588,0.149
		c2.151-3.56,6.78-4.702,10.341-2.552c2.232,1.349,3.608,3.757,3.636,6.365h0.136c3.837,0.003,6.946,3.115,6.943,6.952
		c-0.002,3.834-3.11,6.941-6.943,6.943H407.29C405.084,156.865,403.326,155.059,403.327,152.853z"/>
	<path style="fill:#E6E6E6;" d="M429.713,76.215c0-1.581,1.282-2.863,2.863-2.863c0.278-0.002,0.554,0.037,0.821,0.115
		c-0.038-0.291-0.057-0.584-0.057-0.878c0-3.352,2.717-6.07,6.07-6.07c0.375,0.001,0.748,0.036,1.117,0.105
		c1.513-2.504,4.769-3.307,7.273-1.795c1.57,0.949,2.538,2.642,2.557,4.476h0.095c2.699,0.002,4.885,2.191,4.883,4.89
		c-0.002,2.696-2.187,4.882-4.883,4.883H432.5C430.949,79.036,429.713,77.767,429.713,76.215z"/>
	<g>
		<path style="fill:#E6E6E6;" d="M297.473,109.581c-1.366-1.169-3.078-2.716-2.486-4.362c0.477-1.333,2.173-1.778,3.128-2.832
			c1.959-2.14,0.132-5.63-2.173-7.392c-2.305-1.761-5.268-3.111-6.223-5.861c-0.161-0.745-0.421-1.465-0.774-2.14
			c-1.383-2.058-4.593-0.692-6.585,0.774c-0.677,0.498-1.497,0.973-2.337,1.306c-0.293-1.155-0.829-2.181-1.564-2.804
			c-1.35-1.169-3.078-2.716-2.486-4.363c0.477-1.35,2.173-1.778,3.144-2.831c1.943-2.14,0.115-5.63-2.19-7.392
			c-2.305-1.761-5.268-3.111-6.206-5.861c-0.167-0.745-0.432-1.465-0.79-2.14c-1.383-2.058-4.593-0.724-6.585,0.757
			c-1.992,1.481-5.218,2.782-6.585,0.691c-0.79-1.202-0.329-2.914-1.087-4.132c-1.268-2.041-4.494-1.07-6.322,0.477
			c-1.827,1.547-3.852,3.622-6.19,3.078c-0.008-0.002-0.015-0.006-0.023-0.008c0.6-0.254,1.262-0.46,1.818-0.749
			c2.996-1.581,2.584-7.342,0.313-9.268c-1.366-1.169-3.079-2.7-2.486-4.346c0.477-1.35,2.173-1.778,3.128-2.848
			c1.959-2.14,0.132-5.647-2.173-7.392c-2.305-1.745-5.268-3.112-6.223-5.861c-0.164-0.744-0.424-1.464-0.774-2.14
			c-1.383-2.058-4.609-0.708-6.585,0.774c-1.976,1.482-5.219,2.766-6.585,0.675c-0.774-1.202-0.329-2.897-1.087-4.132
			c-1.251-2.041-4.478-1.086-6.305,0.477c-1.827,1.564-3.852,3.622-6.19,3.078c-2.041-0.477-3.161-2.782-5.334-3.045
			c-2.173-0.263-3.902,1.959-4.428,4.083c-0.527,2.124-0.494,4.461-1.646,6.338c-0.103-0.02-0.21-0.037-0.315-0.055
			c-1.466-1.047-2.792-2.202-3.372-3.863c-0.161-0.745-0.421-1.465-0.774-2.14c-1.383-2.058-4.609-0.724-6.585,0.757
			c-1.975,1.481-5.219,2.782-6.585,0.691c-0.774-1.202-0.329-2.914-1.087-4.132c-1.251-2.041-4.478-1.07-6.305,0.477
			c-1.827,1.547-3.852,3.622-6.19,3.062c-2.041-0.477-3.161-2.782-5.334-3.046c-2.173-0.263-3.902,1.959-4.428,4.083
			c-0.527,2.124-0.494,4.461-1.646,6.338c-3.161-0.609-7.49-0.494-8.231,2.601c-0.308,1.318,0.251,2.573,1.03,3.745
			c-0.387,0.222-0.758,0.463-1.079,0.733c-1.844,1.547-3.869,3.622-6.206,3.078c-2.025-0.477-3.128-2.782-5.317-3.046
			c-2.189-0.263-3.918,1.959-4.428,4.083c-0.51,2.124-0.494,4.461-1.646,6.322c-3.177-0.593-7.49-0.477-8.231,2.618
			c-0.494,2.041,1.086,3.934,2.387,5.597c1.301,1.663,2.387,4.083,1.037,5.729c-2.184-0.11-4.35,0.435-6.223,1.564
			c-1.893,1.21-2.644,3.606-1.778,5.679c0.963,1.345,2.357,2.321,3.951,2.766c4.674,1.886,3.184,6.035,1.792,9.383
			c-0.158-0.014-0.314-0.011-0.475-0.049c-2.041-0.477-3.161-2.782-5.334-3.045c-2.173-0.263-3.902,1.959-4.428,4.083
			c-0.527,2.124-0.494,4.461-1.646,6.322c-3.177-0.593-7.491-0.477-8.231,2.618c-0.494,2.041,1.103,3.935,2.387,5.597
			c1.284,1.663,2.371,4.083,1.037,5.729c-2.192-0.085-4.36,0.488-6.223,1.646c-1.888,1.214-2.642,3.601-1.794,5.68
			c0.969,1.346,2.369,2.322,3.967,2.766c8.199,3.309-2.568,13.598,1.498,14.273c5.202,0.873,11.326-0.148,11.705,6.256
			c0.046,1.045,0.201,2.082,0.461,3.095c0.988,3.556,3.523,5.07,8.742,2.584c3.309-1.564,4.116-3.506,7.885-3.029
			c2.7,0.313,4.659,2.206,7.639,1.959c0.413-0.004,0.819-0.106,1.185-0.296c0.373-0.242,0.684-0.569,0.906-0.955
			c2.65-3.77,4.725-2.239,9.054-2.42c0.341,0.02,0.678-0.079,0.955-0.28c0.259-0.27,0.401-0.63,0.395-1.004
			c0.11-1.106,0.009-2.223-0.296-3.292c-0.218-0.52-0.276-1.094-0.165-1.646c0.214-0.741,1.152-1.02,1.86-1.366
			c0.272-0.15,0.531-0.321,0.776-0.511c1.33-1.033,2.093-2.518,2.26-4.07c4.079,0.382,7.881,0.882,8.174,5.849
			c0.043,1.046,0.203,2.084,0.477,3.095c0.971,3.556,3.507,5.07,8.708,2.585c3.309-1.564,4.116-3.507,7.886-3.029
			c2.7,0.313,4.659,2.206,7.639,1.959c0.413-0.004,0.819-0.106,1.185-0.296c0.373-0.242,0.684-0.569,0.905-0.955
			c2.651-3.77,4.725-2.239,9.054-2.42c0.093,0.013,0.187,0.016,0.281,0.007c0.652-0.061,1.13-0.639,1.069-1.291
			c0.1-1.079-0.001-2.167-0.296-3.21c-0.219-0.52-0.276-1.093-0.165-1.646c0.214-0.741,1.152-1.037,1.86-1.367
			c0.283-0.155,0.552-0.332,0.806-0.531c0.743-0.581,1.289-1.313,1.672-2.109c1.384,0.42,3.242,0.152,5.704-1.031
			c3.325-1.548,4.132-3.507,7.902-3.013c2.7,0.313,4.659,2.19,7.639,1.959c0.413-0.018,0.817-0.125,1.185-0.313
			c0.37-0.246,0.679-0.573,0.906-0.955c0.072-0.103,0.142-0.186,0.213-0.281c0.065,0.618-0.051,1.215-0.46,1.713
			c-1.733-0.09-3.453,0.34-4.939,1.235c-1.495,0.952-2.086,2.843-1.399,4.478c0.759,1.058,1.857,1.825,3.111,2.173
			c6.453,2.601-2.025,10.701,1.185,11.227c4.099,0.691,8.906-0.115,9.219,4.939c0.035,0.823,0.156,1.639,0.362,2.436
			c0.774,2.799,2.766,3.918,6.931,2.008c2.617-1.235,3.243-2.766,6.223-2.387c2.14,0.28,3.671,1.745,6.009,1.547
			c0.326-0.008,0.646-0.087,0.938-0.23c0.285-0.202,0.525-0.46,0.708-0.757c2.074-2.963,3.721-1.762,7.128-1.91
			c0.268,0.007,0.533-0.067,0.757-0.214c0.195-0.216,0.301-0.499,0.296-0.79c0.086-0.851,0.014-1.711-0.214-2.535
			c-0.186-0.413-0.238-0.873-0.148-1.317c0.214-0.593,0.905-0.807,1.482-1.087c0.211-0.117,0.412-0.249,0.602-0.397
			c1.409-1.093,2.002-2.828,1.731-4.472c0.748-0.219,1.601-0.313,2.737-0.169c2.7,0.313,4.659,2.206,7.639,1.959
			c0.413-0.006,0.818-0.108,1.185-0.296c0.366-0.251,0.674-0.576,0.905-0.955c2.634-3.77,4.725-2.239,9.054-2.42
			c0.341,0.017,0.677-0.082,0.955-0.28c0.252-0.273,0.387-0.633,0.379-1.004c0.113-1.078,0.018-2.168-0.28-3.21
			c-0.223-0.518-0.286-1.092-0.181-1.646c0.23-0.741,1.152-1.037,1.877-1.367c0.261-0.145,0.51-0.309,0.746-0.492
			c2.613-2.016,3.097-5.769,1.081-8.382c-0.84-0.955-2.14-1.778-1.827-3.161c0.313-1.383,2.157-1.597,3.408-2.255
			C300.14,117.269,299.728,111.507,297.473,109.581z M154.271,127.65c-0.186-0.369-0.276-0.772-0.169-1.244
			c0.123-0.543,0.485-0.903,0.953-1.183C154.866,126.035,154.582,126.856,154.271,127.65z"/>
		<path style="fill:#EBEBEB;" d="M142.759,129.501c0,0,10.816,15.31,14.553,20.166c3.737,4.856,22.406,35.098,24.941,55.1
			c0.263,2.124,0.543,3.967,0.807,5.564c-8.034,53.009-6.783,149.973-6.486,166.567h25.435
			c0.231-18.718,2.387-189.829,3.194-195.047c0.839-5.531,11.524-26.587,27.904-35.23c16.38-8.643,30.62-37.271,30.62-37.271h-5.235
			c0,0-9.713,17.532-23.525,27.245c-1.983,1.369-4.056,2.601-6.206,3.688c0.036-10.557-1.826-21.035-5.498-30.933l-2.832,2.601
			c3.819,15.639,3.293,25.648,2.157,31.394c-5.216,2.444-10.029,5.669-14.273,9.565c-14.339-18.636-22.389-61.257-22.389-61.257
			l-3.671,2.008c1.041,8.803,2.624,17.534,4.741,26.143c2.684,11.03,10.585,31.789,14.257,41.156
			c-4.398,6.319-8.028,13.138-10.816,20.315c-0.39-0.605-0.854-1.158-1.383-1.646c-9.334-8.445-26.883-48.301-26.883-48.301
			c-4.247-9.268,2.239-33.6,2.239-33.6h-4.939l-2.189,21.27l-12.314-13.433l-2.239,1.86l13.055,16.808l6.717,21.286l-17.532-19.426
			L142.759,129.501z"/>
	</g>
	<g id="freepik--Streetlight--inject-443">
		<polygon style="fill:#E0E0E0;" points="72.946,90.798 68.708,131.5 47.496,131.5 43.258,90.798 		"/>
		<rect x="54.162" y="122.753" style="fill:#E0E0E0;" width="7.893" height="276.59"/>
		<polygon style="fill:#F0F0F0;" points="66.478,129.022 49.726,129.022 46.009,93.276 70.195,93.276 		"/>
		<polygon style="fill:#E0E0E0;" points="55.896,129.58 54.757,129.58 53.517,92.037 54.657,92.037 		"/>
		<path style="fill:#E0E0E0;" d="M58.102,77.714c0,0-12.576,12.39-22.216,12.39l2.986,1.97h38.41l2.986-1.97
			C70.678,90.129,58.102,77.714,58.102,77.714z"/>
	</g>
	<g id="freepik--Bench--inject-443">
		<polygon style="fill:#E0E0E0;" points="466.939,410.012 472.756,410.012 460.86,342.874 455.044,342.874 		"/>
		<polygon style="fill:#E0E0E0;" points="286.129,410.012 291.946,410.012 280.051,342.874 274.234,342.874 		"/>
		<rect x="235.514" y="376.443" style="fill:#E0E0E0;" width="228.391" height="5.888"/>
		<polygon style="fill:#E0E0E0;" points="413.279,410.012 407.462,410.012 419.357,342.874 425.174,342.874 		"/>
		<polygon style="fill:#E0E0E0;" points="232.469,410.012 226.652,410.012 238.548,342.874 244.364,342.874 		"/>
		<polygon style="fill:#E0E0E0;" points="285.237,340.257 291.03,340.257 300.713,286.383 294.932,286.383 		"/>
		<polygon style="fill:#E0E0E0;" points="453.117,340.257 458.91,340.257 468.604,286.383 462.811,286.383 		"/>
		<polygon style="fill:#E0E0E0;" points="369.183,340.257 374.964,340.257 384.658,286.383 378.865,286.383 		"/>
		<polygon style="fill:#E0E0E0;" points="275.233,290.059 480.202,290.059 482.01,279.971 277.053,279.971 		"/>
		<polygon style="fill:#E0E0E0;" points="271.95,308.306 476.919,308.306 478.739,298.219 273.77,298.219 		"/>
		<polygon style="fill:#E0E0E0;" points="268.667,326.542 473.636,326.542 475.456,316.454 270.487,316.454 		"/>
		<rect x="225.427" y="338.675" style="fill:#E0E0E0;" width="246.698" height="6.971"/>
	</g>
	<path style="fill:#F0F0F0;" d="M18.496,399.342h459.025c5.114,0,9.26,4.636,9.26,10.355v0v15.584l0,0H9.236l0,0v-15.598
		C9.243,403.97,13.387,399.342,18.496,399.342z"/>
</g>
<g id="Background_simple" style="display:none;">
	<g style="display:inline;">
		<path style="fill:#407BFF;" d="M334.661,278.003c21.539-19.861,43.875-39.089,62.175-61.969
			c18.299-22.88,32.893-49.418,37.813-78.3c3.418-20.065,1.732-41.881-9.509-58.849c-15.726-23.739-46.914-32.986-75.331-31.161
			c-24.164,1.552-48.266,10.154-66.196,26.428c-17.93,16.274-37.699,49.882-41.157,52.769
			c-26.192-13.045-38.535-14.269-67.147-20.392c-28.612-6.124-59.994-4.538-85.047,10.578
			c-25.053,15.116-41.805,45.687-35.183,74.188c3.846,16.553,14.706,30.593,26.606,42.725
			c44.644,45.514,108.681,71.345,172.41,69.547C254.093,303.566,298.89,310.987,334.661,278.003z"/>
	</g>
	<g style="display:inline;opacity:0.9;">
		<path style="fill:#FFFFFF;" d="M334.661,278.003c21.539-19.861,43.875-39.089,62.175-61.969
			c18.299-22.88,32.893-49.418,37.813-78.3c3.418-20.065,1.732-41.881-9.509-58.849c-15.726-23.739-46.914-32.986-75.331-31.161
			c-24.164,1.552-48.266,10.154-66.196,26.428c-17.93,16.274-37.699,49.882-41.157,52.769
			c-26.192-13.045-38.535-14.269-67.147-20.392c-28.612-6.124-59.994-4.538-85.047,10.578
			c-25.053,15.116-41.805,45.687-35.183,74.188c3.846,16.553,14.706,30.593,26.606,42.725
			c44.644,45.514,108.681,71.345,172.41,69.547C254.093,303.566,298.89,310.987,334.661,278.003z"/>
	</g>
</g>
<g id="Shadow">
	<g>
		<g>
			<path style="fill:#F5F5F5;" d="M437.333,459.477c0,8.377-77.351,15.167-172.768,15.167s-172.769-6.791-172.769-15.167
				c0-8.377,77.351-15.167,172.769-15.167S437.333,451.101,437.333,459.477z"/>
		</g>
	</g>
</g>
<g id="Plants">
	<g>
		<g>
			<path style="fill:#407BFF;" d="M55.371,435.926c-0.474-0.797-1.531-1.777-2.272-2.335c-0.741-0.558-1.756-0.836-2.614-0.485
				c-1.095,0.449-1.6,1.792-1.448,2.966c0.153,1.174,0.713,2.657,1.38,3.635c2.849,4.171,5.486,7.989,9.883,11.093
				C60.301,445.619,58.001,440.345,55.371,435.926z"/>
		</g>
		<g>
			<path style="fill:#407BFF;" d="M69.877,436.644c-0.984-0.539-2.813,0.225-3.711,0.898c-1.78,1.333-2.864,2.73-3.949,4.672
				c-1.377,2.465-1.537,5.927-1.712,8.125c3.482-2.827,7.029-5.725,9.413-9.523c0.416-0.663,0.802-1.375,0.877-2.154
				C70.869,437.882,70.563,437.02,69.877,436.644z"/>
		</g>
		<path style="fill:none;stroke:#263238;stroke-width:0.5;stroke-linecap:round;stroke-linejoin:round;stroke-miterlimit:10;" d="
			M56.453,441.995c2.058,3.318,3.543,6.99,4.368,10.805"/>
		<path style="fill:none;stroke:#263238;stroke-width:0.5;stroke-linecap:round;stroke-linejoin:round;stroke-miterlimit:10;" d="
			M64.38,443.682c-1.73,2.074-3.096,4.452-4.017,6.991"/>
	</g>
	<g>
		<g>
			<path style="fill:#407BFF;" d="M437.993,435.08c-0.474-0.797-1.531-1.776-2.272-2.335c-0.741-0.558-1.756-0.836-2.614-0.485
				c-1.095,0.449-1.6,1.792-1.448,2.966c0.153,1.174,0.713,2.657,1.38,3.635c2.849,4.171,5.486,7.989,9.883,11.093
				C442.923,444.774,440.623,439.499,437.993,435.08z"/>
		</g>
		<g>
			<path style="fill:#407BFF;" d="M452.498,435.798c-0.984-0.539-2.813,0.225-3.711,0.897c-1.78,1.333-2.864,2.73-3.949,4.672
				c-1.377,2.465-1.537,5.927-1.712,8.125c3.482-2.826,7.029-5.725,9.413-9.523c0.416-0.663,0.802-1.375,0.877-2.154
				C453.491,437.036,453.185,436.174,452.498,435.798z"/>
		</g>
		<path style="fill:none;stroke:#263238;stroke-width:0.5;stroke-linecap:round;stroke-linejoin:round;stroke-miterlimit:10;" d="
			M439.075,441.149c2.058,3.317,3.543,6.99,4.368,10.805"/>
		<path style="fill:none;stroke:#263238;stroke-width:0.5;stroke-linecap:round;stroke-linejoin:round;stroke-miterlimit:10;" d="
			M447.001,442.837c-1.73,2.074-3.096,4.452-4.017,6.991"/>
	</g>
</g>
<g id="Speech_Bubble">
	<g>
		<g>
			<g>
				<g>
					<g>
						<g>
							<g>
								<g>
									<path style="fill:#407BFF;" d="M245.365,234.748c5.756,6.591,5.079,16.6-1.512,22.356
										c-6.591,5.756-16.6,5.079-22.356-1.512c-5.756-6.591-5.079-16.6,1.512-22.356
										C229.6,227.48,239.609,228.157,245.365,234.748z"/>
								</g>
							</g>
						</g>
						<g style="opacity:0.4;">
							<g>
								<g>
									<path style="fill:#FFFFFF;" d="M245.365,234.748c5.756,6.591,5.079,16.6-1.512,22.356
										c-6.591,5.756-16.6,5.079-22.356-1.512c-5.756-6.591-5.079-16.6,1.512-22.356
										C229.6,227.48,239.609,228.157,245.365,234.748z"/>
								</g>
							</g>
						</g>
						
							<path style="fill:none;stroke:#407BFF;stroke-width:0.5;stroke-linecap:round;stroke-linejoin:round;stroke-miterlimit:10;" d="
							M246.306,231.048c4.184,3.005,6.68,8.219,6.398,13.362"/>
						
							<path style="fill:none;stroke:#407BFF;stroke-width:0.5;stroke-linecap:round;stroke-linejoin:round;stroke-miterlimit:10;" d="
							M252.492,246.765c0.015,0.786-0.134,1.574-0.435,2.3"/>
					</g>
				</g>
			</g>
			<g>
				<g>
					<path style="fill:#FFFFFF;" d="M241.171,244.018c-0.08-0.913-0.498-1.777-1.089-2.476c-0.58-0.685-1.346-1.234-2.217-1.448
						c-0.926-0.228-1.943-0.057-2.743,0.462c-0.476,0.308-0.871,0.737-1.149,1.231c-0.248-0.452-0.592-0.85-1.009-1.153
						c-0.771-0.561-1.777-0.786-2.714-0.609c-0.882,0.167-1.676,0.674-2.292,1.327c-0.628,0.667-1.092,1.507-1.221,2.414
						c-0.161,1.136,0.026,2.39,0.59,3.388c0.596,1.055,1.582,1.921,2.603,2.574c1.716,1.098,3.978,2.476,3.978,2.476
						s1.981-1.4,3.754-2.404c1.054-0.597,2.086-1.408,2.738-2.43C241.017,246.403,241.271,245.161,241.171,244.018z"/>
				</g>
			</g>
		</g>
		<polygon style="fill:#407BFF;" points="236.227,257.467 244.925,261.366 244.53,254.654 		"/>
		<polygon style="opacity:0.4;fill:#FFFFFF;" points="236.227,257.467 244.925,261.366 244.53,254.654 		"/>
	</g>
</g>
<g id="Characters">
	<g>
		<g>
			<path style="fill:#FFBBB5;" d="M375.08,199.349c0,0,0.299,34.609,0.818,37.79c0.519,3.18,14.085,43.509,14.085,43.509
				l6.935-4.292c0,0-7.558-41.895-7.885-45.487c-0.327-3.593-2.187-37.043-2.187-37.043L375.08,199.349z"/>
			<g>
				<path style="fill:#FFBBB5;" d="M389.982,280.647c-0.125,0.295-0.379,4.034-0.332,5.424c0.047,1.39,3.925,10.96,4.879,9.942
					c0.954-1.018,0.998-1.531,0.419-3.717c-0.579-2.186-1.31-4.149-0.57-3.846c0.74,0.304,4.075,6.101,4.175,8.051
					c0.099,1.95,0.162,5.488,1.562,5.877c1.4,0.39,1.669-1.201,1.669-1.201s0.788,1.694,1.508,0.681
					c0.72-1.014,2.732-6.98,2.359-9.243c-0.372-2.263-6.808-11.039-7.86-13.173c-0.316-0.641-2.04-7.764-2.04-7.764l-7.713,1.439
					L389.982,280.647z"/>
			</g>
		</g>
		<g>
			<polygon style="fill:#FFBBB5;" points="329.716,420.004 336.334,427.226 320.132,440.952 313.515,433.73 			"/>
			<path style="fill:#263238;" d="M323.9,440.915c0.273,3.04,2.85,8.254,7.222,14.223c0.957,1.326-2.186,3.777-5.173,1.142
				c-2.986-2.634-9.291-8.696-11.458-10.538c-3.513-3.095-5.719-4.735-8.549-7.167c-0.086-0.06-0.159-0.135-0.215-0.221
				c-0.419-0.605-0.264-1.413,0.351-1.842l7.339-4.753c0.321-0.218,0.753-0.218,1.074,0l8.628,7.646
				C323.575,439.795,323.854,440.336,323.9,440.915z"/>
			<path style="fill:#407BFF;" d="M322.69,440.694c-0.049-0.08-0.049-0.178,0-0.258c0.071-0.044,0.163-0.044,0.234,0
				c0.41,0,4.04,0.774,4.431,1.842c0.113,0.237,0.059,0.516-0.137,0.7c-0.278,0.366-0.734,0.574-1.21,0.553
				c-0.65-0.107-1.246-0.411-1.698-0.866C323.697,442.065,323.154,441.404,322.69,440.694z M323.47,440.97
				c0.572,0.996,1.519,1.752,2.655,2.119c0.316,0.012,0.616-0.126,0.8-0.368c0-0.129,0-0.276,0-0.276
				c-0.035-0.093-0.095-0.176-0.176-0.24C325.747,441.605,324.635,441.186,323.47,440.97z"/>
			<path style="fill:#407BFF;" d="M322.592,440.749c-0.038-0.063-0.038-0.14,0-0.203c0.098-0.166,2.186-1.934,3.65-1.842
				c0.356,0.009,0.691,0.164,0.917,0.424c0.262,0.236,0.311,0.614,0.117,0.903c-0.546,0.774-3.435,1.05-4.548,0.774l0,0
				L322.592,440.749z M326.184,439.073c-1.097,0.171-2.116,0.646-2.928,1.363c1.249,0.129,3.26-0.184,3.611-0.7
				c0.117-0.055,0.215-0.203,0-0.387l0,0C326.692,439.168,326.443,439.067,326.184,439.073z"/>
		</g>
		<g>
			<polygon style="fill:#FFBBB5;" points="343.553,437.071 353.313,437.071 352.493,458.368 342.753,458.368 			"/>
			<path style="fill:#263238;" d="M355.44,457.945c2.459,2.045,8.1,4.182,15.616,5.73c1.601,0.295,1.132,4.072-2.967,4.072
				c-4.099,0-13.039-0.295-15.986-0.295c-4.821,0-7.534,0.276-11.438,0.276h-0.312c-0.007-0.001-0.014-0.003-0.021-0.004
				c-0.769-0.157-1.258-0.873-1.092-1.599l1.952-8.18c0.081-0.369,0.421-0.636,0.82-0.645h11.848
				C354.454,457.317,355.019,457.548,355.44,457.945z"/>
			<path style="fill:#407BFF;" d="M354.562,458.59c-0.093-0.032-0.16-0.11-0.176-0.203c-0.009-0.084,0.037-0.165,0.117-0.203
				c0.351-0.221,3.494-2.045,4.568-1.511c0.251,0.107,0.406,0.349,0.39,0.608c0.068,0.443-0.109,0.888-0.469,1.179
				c-0.573,0.366-1.264,0.53-1.952,0.461C356.205,458.888,355.374,458.777,354.562,458.59z M358.524,457.005
				c-1.203,0.212-2.35,0.644-3.377,1.271c1.137,0.37,2.382,0.31,3.474-0.166c0.231-0.195,0.347-0.483,0.312-0.774
				c-0.02-0.258-0.156-0.258-0.156-0.258c-0.096-0.027-0.197-0.027-0.293,0L358.524,457.005z"/>
			<path style="fill:#407BFF;" d="M354.464,458.682c-0.08-0.038-0.127-0.119-0.117-0.203c0.02-0.184,0.254-2.819,1.386-3.685
				c0.264-0.228,0.623-0.33,0.976-0.276c0.362-0.006,0.675,0.236,0.742,0.571c0.195,0.958-1.757,2.985-2.752,3.501h-0.117
				L354.464,458.682z M356.533,454.868c-0.194,0.006-0.377,0.086-0.508,0.221c-0.686,0.824-1.088,1.827-1.152,2.874
				c0.996-0.719,2.245-2.248,2.108-2.837c0-0.074-0.039-0.221-0.332-0.221h-0.117V454.868z"/>
		</g>
		<g>
			<path style="fill:#263238;" d="M393.405,358.295c-3.435,30.215-58.773,76.551-58.773,76.551l-12.922-12.178
				c0,0,31.446-38.266,37.301-53.005c4.743-11.699-15.713-67.855-24.165-89.963l-13.8,2.1c-3.13-14.482-3.598-29.364-1.386-43.996
				l51.043-1.842l1.776,26.807C380.113,282.279,395.943,335.579,393.405,358.295z"/>
			<path style="opacity:0.2;fill:#FFFFFF;enable-background:new    ;" d="M393.405,358.295
				c-3.435,30.215-58.773,76.551-58.773,76.551l-12.922-12.178c0,0,31.446-38.266,37.301-53.005
				c4.743-11.699-15.713-67.855-24.165-89.963l-13.8,2.1c-3.13-14.482-3.598-29.364-1.386-43.996l51.043-1.842l1.776,26.807
				C380.113,282.279,395.943,335.579,393.405,358.295z"/>
			<path style="fill:#263238;" d="M367.41,240.547l-9.974,21.648c11.204,118.962-3.279,188.972-3.279,188.972h-17.802
				c2.655-100.538-29.552-165.464-20.027-212.352L367.41,240.547z"/>
			<path style="opacity:0.2;fill:#FFFFFF;enable-background:new    ;" d="M367.41,240.547l-9.974,21.648
				c11.204,118.962-3.279,188.972-3.279,188.972h-17.802c2.655-100.538-29.552-165.464-20.027-212.352L367.41,240.547z"/>
			
				<path style="opacity:0.3;fill:none;stroke:#000000;stroke-width:0.5;stroke-linecap:round;stroke-linejoin:round;stroke-miterlimit:10;" d="
				M322.628,289.76c2.721-0.985,4.816-3.27,6.157-5.835c1.341-2.564,2.016-5.416,2.646-8.241"/>
			<path style="opacity:0.3;" d="M360.033,410.736c0,0,1.283-3.405,2.652-25.091c1.369-21.686-2.776-92.493-2.776-92.493
				l5.552-10.161l-3.069,11.432c0,0,5.018,58.208,0.675,113.114L360.033,410.736z"/>
			<path style="opacity:0.3;" d="M335.261,405.517c0.623,9.936,1.207,27.605,1.207,27.605l-1.389,1.37l-1.389-26.932
				L335.261,405.517z"/>
		</g>
		<polygon style="fill:#DE7F72;" points="223.478,444.049 219.202,448.265 223.064,452.206 227.852,448.502 		"/>
		<path style="fill:#407BFF;" d="M225.98,454c-0.399-0.426-0.749-0.895-1.044-1.399c-0.036-0.053-0.036-0.124,0-0.177
			c0.051-0.02,0.107-0.02,0.158,0c0.236,0.059,2.424,0.512,2.759,1.281c0.099,0.171,0.099,0.381,0,0.552
			c-0.131,0.292-0.429,0.473-0.749,0.453C226.645,454.644,226.236,454.386,225.98,454z M227.655,453.842
			c-0.217-0.414-1.32-0.808-2.187-1.025c0.63,1.005,1.261,1.596,1.695,1.596c0.197,0.001,0.375-0.115,0.453-0.296
			c0.049-0.085,0.049-0.19,0-0.276H227.655z"/>
		<path style="fill:#407BFF;" d="M226.572,452.935c-0.583,0.059-1.171,0.059-1.754,0c-0.061-0.003-0.115-0.042-0.138-0.098
			c-0.028-0.056-0.028-0.122,0-0.177c0.177-0.158,1.813-1.675,2.64-1.498c0.194,0.044,0.35,0.186,0.414,0.374
			c0.179,0.261,0.179,0.606,0,0.867C227.429,452.722,227.013,452.913,226.572,452.935z M227.281,451.477
			c-0.434-0.099-1.419,0.611-2.108,1.202c1.182,0.039,2.03-0.118,2.286-0.453c0.099-0.171,0.099-0.381,0-0.552
			c-0.025-0.096-0.101-0.172-0.197-0.197L227.281,451.477z"/>
		<polygon style="fill:#FDAC6D;" points="180.564,442.805 185.027,451.938 190.258,453.559 194.863,449.953 192.567,439.974 		"/>
		<polygon style="fill:#FDAC6D;" points="106.596,431.428 103.489,441.106 106.14,445.899 111.959,446.487 117.214,437.699 		"/>
		<path style="fill:#263238;" d="M129.862,315.317c0,0-17.537-34.416-9.101-55.313l58.531,10.726c0,0,3.363,18.663-5.714,38.18
			L129.862,315.317z"/>
		<g>
			<path style="fill:#263238;" d="M225.043,453.405c0.41,3.05,1.59,5.946,3.429,8.414c0.788,0.887-0.769,3.094-2.956,1.458
				c-2.182-1.827-4.236-3.802-6.148-5.911c-2.246-2.286-3.192-3.074-4.985-4.867c-0.446-0.446-0.446-1.169,0-1.616l4.394-3.764l0,0
				c0.003-0.003,0.006-0.006,0.009-0.009c0.18-0.174,0.467-0.17,0.641,0.009l5.084,5.242
				C224.798,452.641,224.985,453.008,225.043,453.405z"/>
			<g>
				<polygon style="fill:#DE7F72;" points="264.838,451.733 264.838,457.743 270.356,457.743 271.065,451.733 				"/>
				<path style="fill:#407BFF;" d="M273.784,456.916c-0.585-0.018-1.166-0.097-1.734-0.236c-0.118-0.02-0.118-0.118-0.118-0.118
					c-0.028-0.049-0.028-0.109,0-0.158c0.197-0.138,2.049-1.379,2.857-1.064c0.181,0.075,0.308,0.24,0.335,0.434
					c0.11,0.293,0.041,0.623-0.177,0.847C274.605,456.851,274.194,456.955,273.784,456.916z M274.671,455.576
					c-0.414-0.177-1.498,0.355-2.266,0.828c1.163,0.315,2.01,0.296,2.325,0c0.134-0.15,0.179-0.36,0.118-0.552
					c-0.013-0.096-0.083-0.174-0.177-0.197V455.576z"/>
				<path style="fill:#407BFF;" d="M273.173,455.733c-0.349,0.467-0.752,0.89-1.202,1.261c-0.047,0.033-0.11,0.033-0.158,0
					c0-0.039,0,0.118,0-0.138c0-0.256,0.059-2.483,0.788-2.956c0.171-0.099,0.381-0.099,0.552,0c0.297,0.08,0.521,0.327,0.571,0.631
					C273.707,454.989,273.509,455.422,273.173,455.733z M272.779,454.256c-0.374,0.236-0.63,1.438-0.63,2.325
					c0.867-0.847,1.281-1.557,1.281-1.971c-0.037-0.197-0.181-0.358-0.374-0.414c-0.085-0.049-0.19-0.049-0.276,0V454.256z"/>
				<path style="fill:#263238;" d="M272.543,456.226c2.455,1.853,5.346,3.04,8.394,3.448c1.182,0.059,1.655,2.719-1.044,3.133
					c-2.843,0.265-5.7,0.331-8.552,0.197c-3.212,0-4.434,0.158-6.976,0.158c-0.623-0.011-1.123-0.519-1.123-1.143l0.394-5.793l0,0
					c0.021-0.254,0.239-0.445,0.493-0.434h7.291C271.832,455.808,272.227,455.961,272.543,456.226z"/>
			</g>
			<g>
				<path style="fill:#263238;" d="M276.936,369.854c0,0-24.255-4.704-19.171,15.612c0.315,1.301,0.631,2.7,0.926,4.197
					c1.143,6.049,2.03,13.616,2.7,21.399c1.734,20.611,1.944,41.014,1.944,41.014l10.21,0.332
					C278.839,425.214,278.922,397.488,276.936,369.854z"/>
				<path style="opacity:0.2;enable-background:new    ;" d="M267.398,380.971c-3.665-1.261-6.483,4.788-9.281,5.911
					c1.143,6.01,2.266,13.892,2.936,21.675C268.324,402.784,267.398,380.931,267.398,380.971z"/>
				<path style="fill:#263238;" d="M274.788,369.239c1.241,8-15.391,16.277-15.391,16.277c-1.876,10.674-5.669,27.833-9.869,37.823
					c-4.887,12.059-20.785,27.018-20.785,27.018l-7.457-6.052c11.37-18.168,14.528-28.355,14.291-35.665
					c-1.025-31.469-0.891-35.218,0.488-42.213C236.064,366.426,273.547,361.239,274.788,369.239z"/>
			</g>
			<g>
				<path style="fill:#DE7F72;" d="M202.262,279.47c0,0,8.286,21.733,11.586,24.997c3.299,3.264,24.938,30.977,24.938,30.977
					l3.579-13.281l-20.29-21.696l-13.419-18.003L202.262,279.47z"/>
				<path style="fill:#DE7F72;" d="M301.749,277.253c0,0-4.884,21.865-8.183,25.129c-3.299,3.264-24.938,30.977-24.938,30.977
					l-3.579-13.281l20.29-21.696l11.583-22.027L301.749,277.253z"/>
				<path style="fill:#407BFF;" d="M273.765,333.021l0.659-2.708c0,0,10.577-12.673,15.203-18.07l-9.897-9.34l-11.193,9.77
					L273.765,333.021z"/>
				<path style="fill:#407BFF;" d="M238.392,313.571l-12.894-10.55l-9.823,10.128c3.291,5.655,11.428,11.921,11.428,11.921
					l8.493,9.516L238.392,313.571z"/>
				<path style="fill:#407BFF;" d="M275.321,340.756c-0.571-3.508-1.064-7.114-1.399-10.542c-0.287-2.96-0.385-5.934-0.296-8.907
					c0.149-3.487,1.497-8.812-1.862-9.759c-3.905-1.013-11.542,0.689-15.576,0.734c-13.655-0.118-19.055,1.261-19.055,1.261
					s-1.3,4.631-1.734,9.005c-0.197,2.03-0.414,4.434-0.591,7.133c0,0.453,0.099,0.788,0,1.36c-0.098,0.572-0.098,1.163-0.098,1.773
					c-0.079,1.044-0.177,2.108-0.177,3.232c-0.256,3.271-0.256,6.798-0.256,10.463c0,5.32-0.532,18.562,0,24.079
					c18.296-2.356,36.733-2.573,46.199,1.007C280.475,371.596,277.311,351.83,275.321,340.756z"/>
				
					<path style="fill:none;stroke:#263238;stroke-width:0.25;stroke-linecap:round;stroke-linejoin:round;stroke-miterlimit:10;" d="
					M274.424,331.273c-0.879-6.183-1.766-10.074-3.163-16.161"/>
				
					<path style="fill:none;stroke:#263238;stroke-width:0.25;stroke-linecap:round;stroke-linejoin:round;stroke-miterlimit:10;" d="
					M234.344,333.155c0.007-4.461,0.013-8.922,0.02-13.383"/>
			</g>
			<g>
				<path style="fill:#DE7F72;" d="M259.498,303.849l-4.059-0.729l-8.907-1.635c0.801,1.211,1.407,2.541,1.793,3.941
					c0.816,2.7,0.436,5.619-1.044,8.02c0,0,2.266,4.02,10.286,6.877c0,0,3.783-3.35,2.562-7.547l0,0
					c-0.301-0.249-0.584-0.519-0.847-0.808l-0.453-0.591c-0.781-1.155-1.071-2.572-0.808-3.941
					C258.235,306.143,258.74,304.917,259.498,303.849z"/>
				<path style="opacity:0.2;enable-background:new    ;" d="M259.518,303.908l-4.059-0.729l-8.907-1.635
					c0.801,1.211,1.407,2.541,1.793,3.941c0.439,1.846,0.439,3.77,0,5.616c0,0,9.458-3.921,10.049-5.025L259.518,303.908z"/>
				<g>
					<path style="fill:#263238;" d="M245.646,291.617c-8.076-11.729,3.881-16.726,3.881-16.726S254.763,304.893,245.646,291.617z"/>
					<path style="fill:#DE7F72;" d="M255.933,276.463c-9.961-0.608-16.205,10.463-17.322,18.333
						c-1.212,8.727,2.48,12.192,14.331,13.548c6.46,0.744,13.092-6.182,15.861-13.399
						C272.628,284.907,265.894,277.071,255.933,276.463z"/>
					<path style="fill:#263238;" d="M259.366,273.166c9.6,2.675,17.635,9.628,13.624,20.106
						c-5.526,14.364-12.77,13.101-12.77,13.101c1.714-6.801-3.341-11.323-0.835-16.092c0.114-0.168,0.218-0.343,0.309-0.525
						c1.176-2.324,0.244-5.162-2.08-6.337c-3.859-0.327-7.559-1.689-10.708-3.942C243.845,275.01,251.252,270.841,259.366,273.166z"
						/>
					<path style="fill:#263238;" d="M250.768,289.906c-0.621-0.199-1.359,0.382-1.684,1.308c-0.325,0.926-0.085,1.842,0.515,2.056
						c0.6,0.214,1.356-0.364,1.681-1.291C251.588,291.051,251.389,290.106,250.768,289.906z"/>
					<path style="fill:#263238;" d="M243.48,287.125c-0.585-0.193-1.33,0.423-1.619,1.247c-0.289,0.823-0.078,1.698,0.505,1.908
						c0.582,0.211,1.318-0.353,1.616-1.229C244.283,288.157,244.065,287.318,243.48,287.125z"/>
					<path style="fill:#263238;" d="M250.412,286.622c1.133,0.111,2.14,0.769,2.696,1.763l0,0c0.1,0.219,0.356,0.32,0.579,0.228l0,0
						c0.001-0.001,0.002-0.001,0.004-0.002c0.223-0.107,0.317-0.375,0.21-0.598c-0.647-1.239-1.86-2.083-3.247-2.259
						c-0.244-0.042-0.476,0.121-0.519,0.365c0,0.096,0.028,0.189,0.081,0.269C250.252,286.487,250.322,286.57,250.412,286.622z"/>
					<path style="fill:#263238;" d="M243.232,284.369c1.053-0.423,2.244-0.324,3.212,0.269l0,0c0.199,0.132,0.465,0.092,0.617-0.093
						l0,0c0.141-0.197,0.1-0.47-0.093-0.617c-1.186-0.791-2.686-0.943-4.007-0.407c-0.002,0.001-0.004,0.001-0.006,0.002
						c-0.223,0.083-0.337,0.33-0.254,0.553c0.03,0.089,0.097,0.16,0.184,0.196C242.981,284.354,243.108,284.389,243.232,284.369z"/>
					<path style="fill:#D8504D;" d="M241.546,293.104c0.625,0.863,1.492,1.521,2.492,1.891l1.469-4.04
						C244.332,291.913,242.988,292.641,241.546,293.104z"/>
					<path style="fill:#263238;" d="M248.384,296.9c0.002-0.003,0.004-0.005,0.006-0.008c0.13-0.162,0.104-0.399-0.058-0.529
						c-0.004-0.004-0.009-0.007-0.013-0.01c-0.168-0.123-0.403-0.087-0.527,0.08c-1.013,1.455-2.967,1.903-4.513,1.034
						c-0.178-0.105-0.407-0.048-0.514,0.129c-0.004,0.005-0.007,0.011-0.01,0.017c-0.105,0.18-0.044,0.41,0.136,0.515
						c0.447,0.235,0.928,0.399,1.426,0.485C245.892,298.898,247.488,298.227,248.384,296.9z"/>
					<path style="fill:#263238;" d="M259.902,285.547c-3.011,3.279-4.401-2.424-4.401-2.424s-0.457,0.849-3.18,1.011
						c-2.723,0.163-2.156-3.088-2.156-3.088s-4.449,1.19-5.268-0.482c-0.819-1.672,4.217-3.306,4.217-3.306
						S262.913,282.267,259.902,285.547z"/>
					<path style="fill:#DE7F72;" d="M262.463,295.186c-1.502-0.262-3.077,1.466-3.493,3.851c-0.416,2.385,0.464,4.541,1.984,4.806
						s3.095-1.463,3.511-3.848C264.88,297.609,263.964,295.448,262.463,295.186z"/>
				</g>
			</g>
		</g>
		<g>
			<path style="fill:#FFBBB5;" d="M310.097,187.988c0,0-13.781,35.49-14.542,38.654c-0.761,3.164-0.761,39.388-0.761,39.388
				l7.511,0.076c0,0,5.001-34.924,6.094-38.34c1.093-3.416,14.23-33.06,14.23-33.06L310.097,187.988z"/>
			<g>
				<path style="fill:#FFBBB5;" d="M294.65,284.792c3.14-1.573,2.681-6.561,2.681-6.561l4.973-12.125l-7.225-1.641
					c-1.37,2.547-6.376,9.083-7.409,11.785c0.032,0.785,1.898,5.956,1.898,5.956S291.51,286.366,294.65,284.792z"/>
				<g>
					<path style="fill:#DE7F72;" d="M296.072,279.514c0,0-3.687-4.133-3.529-5.651c0.158-1.518,1.971-0.31,1.971-0.31
						s-1.913-1.452-1.406-2.348c0.608-1.075,2.502,0.199,2.502,0.199s-1.513-1.25-1.009-2.016c0.523-0.795,2.763,0.491,2.763,0.491
						s-0.899-1.081-0.247-1.416c0.652-0.334,5.458,2.304,6.316,4.013c0.858,1.708-2.982,7.579-3.811,8.91
						c-0.964,1.548-2.681,2.211-3.578,2.108l0.137-3.858L296.072,279.514z"/>
				</g>
				<g>
					<path style="opacity:0.2;" d="M294.578,273.457c0.003,0.002,0.005,0.004,0.008,0.006l3.214,2.691
						c0.043,0.036,0.046,0.106,0.006,0.156c-0.04,0.05-0.109,0.06-0.15,0.025l-3.214-2.691c-0.043-0.036-0.046-0.106-0.006-0.156
						C294.473,273.441,294.535,273.428,294.578,273.457z"/>
				</g>
				<g>
					<path style="opacity:0.2;" d="M295.847,271.348c0.001,0,0.001,0.001,0.002,0.001l3.292,2.339
						c0.046,0.033,0.053,0.101,0.017,0.153c-0.037,0.053-0.091,0.064-0.15,0.036l-3.293-2.339c-0.046-0.033-0.053-0.101-0.017-0.153
						C295.736,271.333,295.801,271.317,295.847,271.348z"/>
				</g>
				<g>
					<path style="opacity:0.2;" d="M297.616,269.834l2.496,1.668c0.047,0.031,0.056,0.1,0.02,0.153
						c-0.035,0.053-0.102,0.071-0.149,0.04l-2.496-1.668c-0.047-0.031-0.056-0.1-0.021-0.153
						C297.502,269.82,297.569,269.802,297.616,269.834z"/>
				</g>
			</g>
		</g>
		<g>
			<path style="fill:#FDAC6D;" d="M212.152,279.478c0,0,1.579-5.266,1.567-6.051c-1.18-2.64-6.538-8.891-8.046-11.359l-0.492-1.588
				l-6.998,3.041l6,12.416c0,0-0.184,5.005,3.038,6.403C210.443,283.738,212.152,279.478,212.152,279.478z"/>
			<g>
				<path style="fill:#DE7F72;" d="M207.449,278.994c0,0,2.617-4.881,2.108-6.32c-0.509-1.439-1.988,0.16-1.988,0.16
					s1.52-1.859,0.818-2.612c-0.843-0.903-2.386,0.78-2.386,0.78s1.179-1.569,0.509-2.196c-0.695-0.651-2.571,1.124-2.571,1.124
					s0.621-1.262-0.091-1.434c-0.712-0.172-4.767,3.518-5.202,5.379c-0.434,1.862,4.673,6.671,5.79,7.771
					c1.3,1.28,3.124,1.522,3.972,1.212l-1.036-3.719L207.449,278.994z"/>
			</g>
			<g>
				<g>
					<path style="opacity:0.2;" d="M207.484,272.755c-0.002,0.002-0.004,0.005-0.006,0.008l-2.495,3.368
						c-0.033,0.045-0.02,0.114,0.03,0.153c0.05,0.039,0.12,0.033,0.152-0.011l2.495-3.369c0.033-0.045,0.02-0.114-0.03-0.153
						C207.582,272.715,207.519,272.717,207.484,272.755z"/>
				</g>
				<g>
					<path style="opacity:0.2;" d="M205.757,271.001c-0.001,0.001-0.001,0.001-0.002,0.002l-2.654,3.045
						c-0.037,0.042-0.028,0.111,0.019,0.153c0.048,0.043,0.104,0.041,0.154,0l2.654-3.045c0.037-0.042,0.028-0.111-0.02-0.153
						C205.861,270.961,205.794,270.961,205.757,271.001z"/>
				</g>
				<g>
					<path style="opacity:0.2;" d="M203.683,269.944l-2.037,2.206c-0.038,0.041-0.031,0.11,0.016,0.153
						c0.047,0.043,0.116,0.045,0.154,0.004l2.037-2.206c0.038-0.041,0.031-0.11-0.016-0.153
						C203.79,269.904,203.721,269.902,203.683,269.944z"/>
				</g>
			</g>
		</g>
		<g>
			<g>
				<path style="fill:#FDAC6D;" d="M105.19,259.535c0.012,0.32-1.08,3.905-1.618,5.187c-0.539,1.283-7.566,8.847-8.096,7.557
					c-0.529-1.29-0.388-1.786,0.93-3.623c1.319-1.837,2.701-3.412,1.9-3.391c-0.8,0.021-5.979,4.252-6.765,6.04
					c-0.786,1.788-2.104,5.071-3.55,4.938c-1.447-0.134-1.133-1.717-1.133-1.717s-1.339,1.303-1.651,0.1
					c-0.313-1.203-0.071-7.495,1.082-9.477c1.153-1.982,10.289-7.896,12.031-9.516c0.524-0.487,4.668-6.531,4.668-6.531l7.631,4.288
					L105.19,259.535z"/>
			</g>
			<g>
				<path style="fill:#407BFF;" d="M194.646,447.205l-2.984,0.706c-0.675,0.16-1.219,0.649-1.489,1.288
					c-1.165,2.757-2.668,2.175-5.063,0.409c-1.223,0.143-1.22,1.584-1.23,1.974l-0.311,8.643c-0.033,0.723,0.526,1.337,1.249,1.371
					c0.129,0.006,0.258-0.007,0.382-0.039c3.624-0.858,5.338-1.263,9.849-2.331l13.794-3.264c3.76-0.89,3.643-4.864,2.011-4.848
					c-7.329,0.109-12.746-0.773-15.379-2.29C194.993,448.564,195.34,448.201,194.646,447.205z"/>
				<g>
					<path style="fill:#FFFFFF;" d="M201.667,447.98c0.26-0.3,0.363-0.706,0.276-1.094c-0.023-0.214-0.166-0.396-0.368-0.468
						c-1.092-0.441-4.41,2.186-4.781,2.489c-0.043,0.028-0.071,0.073-0.076,0.124c-0.01,0.093,0.057,0.178,0.15,0.188
						c0.968,0,1.934-0.101,2.881-0.301C200.472,448.817,201.144,448.489,201.667,447.98z M201.408,446.756
						c0.087,0.029,0.147,0.109,0.151,0.201c0.05,0.283-0.023,0.574-0.202,0.799c-0.698,0.834-2.808,1.045-3.957,1.101
						C198.787,447.808,200.807,446.517,201.408,446.756z"/>
				</g>
				<g>
					<path style="fill:#FFFFFF;" d="M197.004,449.228c1.01-0.733,2.922-3.129,2.564-4.074c-0.068-0.2-0.272-0.409-0.794-0.357
						c-2.101,0.25-2.109,4.13-2.072,4.286c-0.005,0.068,0.03,0.132,0.09,0.164c0.041,0.002,0.081-0.007,0.117-0.028L197.004,449.228
						z M198.778,445.115c0.389-0.051,0.421,0.085,0.433,0.134c0.248,0.569-1.095,2.502-2.161,3.433
						c0.05-0.917,0.293-3.238,1.589-3.544L198.778,445.115z"/>
				</g>
				<g>
					<path style="fill:#FFFFFF;" d="M195.115,451.495c-0.026,0-0.053-0.004-0.079-0.013c-0.128-0.044-0.196-0.183-0.152-0.311
						c0.37-1.081,1.227-1.971,2.292-2.381c0.124-0.05,0.268,0.013,0.317,0.141c0.049,0.126-0.014,0.268-0.141,0.317
						c-0.932,0.358-1.681,1.137-2.005,2.082C195.312,451.431,195.216,451.495,195.115,451.495z"/>
				</g>
				<g>
					<path style="fill:#FFFFFF;" d="M197.299,452.452c-0.026,0-0.053-0.004-0.079-0.013c-0.128-0.044-0.196-0.183-0.152-0.311
						c0.37-1.08,1.226-1.97,2.292-2.382c0.124-0.05,0.268,0.013,0.317,0.141c0.049,0.126-0.014,0.268-0.141,0.317
						c-0.931,0.359-1.681,1.138-2.005,2.083C197.496,452.388,197.401,452.452,197.299,452.452z"/>
				</g>
				<g>
					<path style="fill:#FFFFFF;" d="M199.885,453.08c-0.026,0-0.053-0.004-0.079-0.013c-0.128-0.043-0.196-0.183-0.152-0.311
						c0.369-1.08,1.225-1.97,2.291-2.382c0.122-0.051,0.268,0.013,0.317,0.141c0.049,0.126-0.014,0.268-0.141,0.317
						c-0.932,0.36-1.681,1.138-2.004,2.083C200.082,453.016,199.986,453.08,199.885,453.08z"/>
				</g>
			</g>
			<g>
				<path style="fill:#407BFF;" d="M114.01,443.724l-2.842-1.159c-0.643-0.262-1.37-0.18-1.962,0.184
					c-2.551,1.57-3.438,0.221-4.362-2.61c-1.079-0.594-1.915,0.582-2.15,0.893l-5.276,6.861c-0.448,0.57-0.349,1.395,0.221,1.843
					c0.101,0.08,0.214,0.144,0.334,0.191c3.451,1.408,5.083,2.074,9.379,3.825l13.136,5.358c3.581,1.46,5.795-1.845,4.456-2.781
					c-6.035-4.171-9.935-8.038-11.198-10.804C113.503,445.032,113.997,444.939,114.01,443.724z"/>
				<g>
					<path style="fill:#FFFFFF;" d="M119.28,448.436c0.387-0.093,0.706-0.364,0.861-0.731c0.106-0.187,0.095-0.419-0.028-0.596
						c-0.633-0.994-4.863-0.783-5.342-0.751c-0.051-0.002-0.1,0.018-0.134,0.056c-0.063,0.07-0.057,0.178,0.013,0.241
						c0.789,0.563,1.634,1.042,2.522,1.429C117.82,448.424,118.558,448.547,119.28,448.436z M119.781,447.288
						c0.054,0.074,0.057,0.174,0.006,0.251c-0.123,0.26-0.352,0.454-0.629,0.533c-1.053,0.274-2.895-0.781-3.864-1.403
						C117.034,446.622,119.429,446.744,119.781,447.288z"/>
				</g>
				<g>
					<path style="fill:#FFFFFF;" d="M114.756,446.742c1.248-0.01,4.199-0.852,4.457-1.828c0.061-0.202,0.016-0.491-0.439-0.753
						c-1.857-1.017-4.119,2.139-4.179,2.288c-0.044,0.052-0.052,0.125-0.022,0.186c0.032,0.025,0.07,0.041,0.111,0.045
						L114.756,446.742z M118.591,444.422c0.347,0.185,0.294,0.314,0.275,0.361c-0.129,0.607-2.346,1.402-3.755,1.541
						c0.574-0.718,2.121-2.467,3.354-1.964L118.591,444.422z"/>
				</g>
				<g>
					<path style="fill:#FFFFFF;" d="M111.899,447.491c-0.021-0.015-0.041-0.034-0.057-0.057c-0.079-0.111-0.054-0.263,0.057-0.342
						c0.929-0.666,2.146-0.893,3.251-0.608c0.13,0.031,0.211,0.167,0.176,0.299c-0.034,0.131-0.167,0.21-0.299,0.176
						c-0.967-0.25-2.031-0.051-2.843,0.531C112.097,447.553,111.981,447.55,111.899,447.491z"/>
				</g>
				<g>
					<path style="fill:#FFFFFF;" d="M113.122,449.541c-0.021-0.015-0.041-0.034-0.057-0.057c-0.079-0.11-0.054-0.263,0.057-0.342
						c0.929-0.665,2.144-0.892,3.252-0.608c0.13,0.031,0.211,0.167,0.176,0.299c-0.034,0.131-0.167,0.21-0.299,0.176
						c-0.967-0.249-2.031-0.05-2.844,0.532C113.32,449.603,113.205,449.6,113.122,449.541z"/>
				</g>
				<g>
					<path style="fill:#FFFFFF;" d="M114.864,451.555c-0.021-0.015-0.041-0.034-0.057-0.057c-0.079-0.11-0.054-0.263,0.057-0.342
						c0.928-0.666,2.143-0.893,3.251-0.609c0.129,0.03,0.211,0.167,0.176,0.299c-0.034,0.131-0.168,0.21-0.299,0.176
						c-0.968-0.248-2.031-0.05-2.843,0.533C115.062,451.618,114.947,451.614,114.864,451.555z"/>
				</g>
			</g>
			<g>
				<path style="fill:#263238;" d="M132.042,134.303c0.58-0.419,1.352-0.518,2.117-0.495c0.122-1.371,1.152-2.357,2.402-2.605
					c1.25-0.248,2.672,0.159,3.941,0.879c2.162-1.486,5.747-0.602,7.767,1.916c1.747-1.261,4.627-0.739,6.45,1.169
					c1.824,1.908,2.376,4.979,1.237,6.876c1.612,0.72,3.004,2.278,3.589,4.016c0.431,1.281,0.222,2.917-0.935,3.076
					c1.107,0.841,1.387,2.488,1.043,3.674c-0.539,1.86-2.363,2.99-4.324,2.679c0.209,2.104-0.605,4.08-2.109,5.118
					c-0.883,0.609-2.327,0.78-3.142-0.259c0.629,2.288-0.678,4.578-2.743,4.803c-0.329,0.036-0.738-0.01-0.968-0.324
					c-0.552,2.249-3.327,3.152-5.483,1.784c-0.51,1.968-2.447,3.158-4.497,2.762c-2.049-0.396-4.028-2.343-4.593-4.52
					c-1.417,0.529-3.219-0.398-4.593-1.583c-0.921-0.794-1.783-1.768-2.176-2.909c-0.393-1.14-0.191-2.457,0.689-2.939
					c-1.787-0.459-3.307-2.437-3.547-4.34c-0.24-1.903,0.666-3.613,2.082-4.462c-1.116-1.204-1.664-2.952-1.371-4.378
					c0.293-1.426,1.413-2.469,2.806-2.611c-0.988-1.585-0.256-3.44,0.806-4.538c0.602-0.623,1.322-1.148,2.192-1.33
					c0.845-0.176,1.652,0.064,2.5,0.499C131.431,135.535,131.364,134.794,132.042,134.303z"/>
				<path d="M146.329,135.804c-0.046-0.01-3.139,7.606-2.271,12.912c0,0-1.718-1.747-1.22-7.85c0.379-4.642,2.08-5.177,2.08-5.177
					L146.329,135.804z"/>
				<path style="fill:#FDAC6D;" d="M162.042,187.027c-11.096-4.905-11.755-11.443-11.755-11.443
					c2.848-4.634,1.749-11.028,0.889-16.293l10.839,10.06c-1.034,3.707-1.359,5.756,1.009,6.806
					C163.051,176.157,166.891,178.767,162.042,187.027z"/>
				<path style="opacity:0.1;enable-background:new    ;" d="M161.303,173.032c0.101-1.251,0.349-2.487,0.739-3.68l-9.751-9.053
					l-0.618,0.779C151.673,161.077,153.217,169.781,161.303,173.032z"/>
				<g>
					<g>
						<path style="fill:#FDAC6D;" d="M148.077,143.945c0.585,10.837,0.604,15.423,5.965,21.295
							c8.064,8.832,21.067,6.449,23.688-4.172c2.359-9.56,1.006-25.675-9.426-30.611
							C158.026,125.595,147.492,133.109,148.077,143.945z"/>
						<path style="fill:#263238;" d="M161.256,148.967c-0.066,1.011,0.451,1.912,1.155,2.012c0.704,0.1,1.327-0.638,1.393-1.649
							c0.066-1.011-0.451-1.912-1.155-2.013C161.946,147.217,161.322,147.956,161.256,148.967z"/>
						<path style="fill:#263238;" d="M159.757,144.009c0.137,0.019,0.278-0.017,0.388-0.113c1.707-1.495,3.566-0.902,3.587-0.895
							c0.275,0.089,0.561-0.061,0.632-0.342c0.071-0.281-0.098-0.584-0.376-0.676c-0.097-0.031-2.43-0.778-4.548,1.078
							c-0.211,0.185-0.224,0.522-0.03,0.754C159.504,143.925,159.629,143.991,159.757,144.009z"/>
						<path style="fill:#263238;" d="M176.018,143.084c0.128-0.032,0.24-0.109,0.309-0.227c0.142-0.242,0.044-0.561-0.217-0.712
							c-2.622-1.512-4.824-0.531-4.917-0.488c-0.262,0.12-0.359,0.427-0.217,0.686c0.141,0.258,0.468,0.37,0.73,0.251
							c0.086-0.04,1.806-0.775,3.89,0.427C175.731,143.1,175.883,143.118,176.018,143.084z"/>
						<path style="fill:#FE7F3A;" d="M169.707,147.717c0,0,1.538,4.106,3.35,6.697c0.317,0.453,0.086,1.088-0.439,1.259
							c-1.352,0.441-2.896-0.062-2.896-0.062L169.707,147.717z"/>
						<path style="fill:#263238;" d="M162.39,147.268l2.533-0.283C164.923,146.984,163.008,148.628,162.39,147.268z"/>
						<path style="fill:#263238;" d="M171.714,148.827c-0.066,1.011,0.451,1.912,1.155,2.012c0.704,0.1,1.327-0.638,1.393-1.649
							c0.066-1.011-0.451-1.912-1.155-2.013C172.404,147.077,171.78,147.815,171.714,148.827z"/>
						<path style="fill:#263238;" d="M173.001,147.181l2.533-0.283C175.534,146.898,173.619,148.542,173.001,147.181z"/>
						<path style="fill:#263238;" d="M151.593,162.307c-13.899-9.219-8.917-34.497,10.004-34.447
							c18.921,0.05,17.085,22.639,17.085,22.639c-1.497-21.18-20.561-15.249-20.561-15.249c2.913,8.628-4.868,13.475-4.868,13.475
							C150.172,154.203,151.593,162.307,151.593,162.307z"/>
						<path style="fill:#FDAC6D;" d="M144.48,152.625c1.193,2.263,3.213,3.731,5.096,4.279c2.832,0.824,4.48-3.717,3.611-6.617
							c-0.782-2.611-3.527-4.423-6.33-3.965C144.096,146.773,143.116,150.038,144.48,152.625z"/>
						
							<path style="opacity:0.2;fill:none;stroke:#000000;stroke-width:0.5;stroke-linecap:round;stroke-linejoin:round;stroke-miterlimit:10;" d="
							M148.718,149.155c-0.887-0.418-1.879,0.116-2.235,0.848c-0.43,0.886-0.084,3.044,2.663,3.915"/>
					</g>
					<g>
						<path style="fill:#263238;" d="M169.458,158.933c-0.914,1.128-2.106,3.374-2.106,3.374c-0.223-0.071-0.446-0.143-0.665-0.225
							c-3-1.044-4.047-2.519-4.297-3.838c-0.134-0.722-0.021-1.403,0.14-1.934c0.181-0.616,0.45-1.014,0.45-1.014
							c1.26,1.503,3.981,2.691,5.462,3.266C169.058,158.808,169.458,158.933,169.458,158.933z"/>
						<path style="fill:#FFFFFF;" d="M168.441,158.561l-0.647,0.978c-2.823-0.99-4.678-2.066-5.264-3.23
							c0.181-0.616,0.45-1.014,0.45-1.014C164.24,156.799,166.961,157.987,168.441,158.561z"/>
						<path style="fill:#D7504D;" d="M166.687,162.081c-3-1.044-4.047-2.519-4.297-3.838c1.008,0.395,2.18,0.983,3.101,1.819
							C166.198,160.698,166.531,161.417,166.687,162.081z"/>
					</g>
				</g>
			</g>
			<g>
				<path style="fill:#263238;" d="M175.018,305.673l-24.622,63.564l-32.232,69.72l-13.475-6.194c0,0,8.209-36.654,20.259-60.825
					c0.402-0.817,4.578-6.625,4.981-7.36c1.977-3.581,3.325-7.415,3.995-11.368c0.104-0.654,0.221-1.342,0.35-2.066
					c2.166-12.78,6.836-36.321,13.361-47.385L175.018,305.673z"/>
				<path style="fill:#263238;" d="M156.676,297.198l18.061,56.264l18.946,87.866l-13.075,2.721c0,0-18.531-34.043-24.226-59.252
					c-0.549-2.31-1.869-13.067-2.081-15.421c-0.119-1.755-0.594-3.476-1.401-5.077l-3.035-6.034
					c-7.42-14.834-21.818-44.409-23.751-54.003L156.676,297.198z"/>
				<polygon style="opacity:0.3;enable-background:new    ;" points="137.699,333.13 152.462,363.425 150.687,368.007 
					136.59,338.292 				"/>
				<polygon style="opacity:0.3;enable-background:new    ;" points="166.532,327.102 156.676,292.725 161.041,287.661 
					158.698,293.165 167.459,325.188 				"/>
			</g>
			<g>
				<path style="fill:#407BFF;" d="M176.509,179.971c0,0,7.706,4.692,9.521,11.384c1.815,6.693,1.733,27.394,3.394,31.213
					c1.661,3.819,17.62,38.129,17.62,38.129l-9.636,6.865c0,0-18.117-30.784-19.654-40.016c-1.537-9.232-0.895-46.641-0.895-46.641"
					/>
				<path style="opacity:0.3;enable-background:new    ;" d="M176.509,179.971c0,0,7.706,4.692,9.521,11.384
					c1.815,6.693,1.733,27.394,3.394,31.213c1.661,3.819,17.62,38.129,17.62,38.129l-9.636,6.865c0,0-18.117-30.784-19.654-40.016
					c-1.537-9.232-0.895-46.641-0.895-46.641"/>
				<path style="fill:#407BFF;" d="M175.809,229.807c0,0,13.503-34.18,1.051-48.902c0-0.013-17.693-10.52-46.788-1.077l7.887,48.37
					c0,0-12.206,10.789-15.841,34.541c21.887,9.883,41.295,14.704,55.638,9.186C177.755,271.926,174.674,253.245,175.809,229.807z"
					/>
				<path style="opacity:0.3;enable-background:new    ;" d="M135.916,280.948c19.185-53.183,16.856-71.934,16.856-71.934
					l-18.653-4.358l3.891,23.556c0,0-14.738,12.582-18.199,56.05C127.859,287.661,133.62,287.278,135.916,280.948z"/>
				<path style="opacity:0.3;enable-background:new    ;" d="M170.589,241.761c0,0-2.594,30.21,9.08,42.546
					c0.165-14.837-0.585-29.67-2.244-44.414h-2.231L170.589,241.761z"/>
				<path style="fill:#407BFF;" d="M182.134,260.697c-2.233-7.452-5.275-30.773-5.275-30.773s7.446-20.106,6.136-32.986
					c-1.31-12.881-6.486-16.967-6.486-16.967c-4.142-1.52-8.373-2.643-12.676-3.441c0,0,2.742,1.372,3.908,5.231l0,0l0,0
					c3.845,16.573,4.871,33.675,3.035,50.589c-2.387,22.765,4.073,38.914,8.198,46.502c1.035,1.932,3.441,2.66,5.373,1.625
					c0.481-0.258,0.904-0.612,1.242-1.041l0.441-0.558C186.03,278.878,185.014,270.22,182.134,260.697z"/>
				<path style="opacity:0.3;enable-background:new    ;" d="M182.134,260.697c-2.233-7.452-5.275-30.773-5.275-30.773
					s7.446-20.106,6.136-32.986c-1.31-12.881-6.486-16.967-6.486-16.967c-4.142-1.52-8.373-2.643-12.676-3.441
					c0,0,2.742,1.372,3.908,5.231l0,0l0,0c3.845,16.573,4.871,33.675,3.035,50.589c-2.387,22.765,4.073,38.914,8.198,46.502
					c1.035,1.932,3.441,2.66,5.373,1.625c0.481-0.258,0.904-0.612,1.242-1.041l0.441-0.558
					C186.03,278.878,185.014,270.22,182.134,260.697z"/>
				<path style="fill:#407BFF;" d="M147.272,182.423c-0.649-2.932,0.059-5.546,1.499-6.532c-6.486,0.393-12.858,1.489-19.101,3.393
					l7.407,48.539c-15.566,15.241-30.901,57.913-30.901,57.913l13.636,3.311c6.082,1.412,12.265-6.71,14.424-12.569
					c6.058-16.616,17.291-48.85,18.445-62.094C153.706,202.528,148.984,190.128,147.272,182.423z"/>
				<path style="opacity:0.3;enable-background:new    ;" d="M147.272,182.423c-0.649-2.932,0.059-5.546,1.499-6.532
					c-6.486,0.393-12.858,1.489-19.101,3.393l7.407,48.539c-15.566,15.241-30.901,57.913-30.901,57.913l13.636,3.311
					c6.082,1.412,12.265-6.71,14.424-12.569c6.058-16.616,17.291-48.85,18.445-62.094
					C153.706,202.528,148.984,190.128,147.272,182.423z"/>
				<path style="fill:#407BFF;" d="M129.67,179.283c0,0-6.147,1.379-9.818,18.994c-3.671,17.615-3.712,23.617-6.345,29.571
					c-3.671,8.393-15.657,26.826-15.657,26.826l8.851,5.761c0,0,15.394-18.724,18.818-26.079c3.424-7.355,6.955-21.658,9.186-29.701
					c0.492-1.777,0.205-6.293,0.352-9.765C135.299,189.215,133.911,182.881,129.67,179.283z"/>
				<path style="opacity:0.3;enable-background:new    ;" d="M129.67,179.283c0,0-6.147,1.379-9.818,18.994
					c-3.671,17.615-3.712,23.617-6.345,29.571c-3.671,8.393-15.657,26.826-15.657,26.826l8.851,5.761
					c0,0,15.394-18.724,18.818-26.079c3.424-7.355,6.955-21.658,9.186-29.701c0.492-1.777,0.205-6.293,0.352-9.765
					C135.299,189.215,133.911,182.881,129.67,179.283z"/>
				<path style="opacity:0.3;enable-background:new    ;" d="M177.755,227.546c0,0,7.236-15.973,4.97-32.788
					c0,0,2.727,14.959,0.44,23.978c-2.287,9.019-4.606,11.819-4.606,11.819L177.755,227.546z"/>
			</g>
		</g>
		<g>
			<path style="fill:#407BFF;" d="M373.621,217.435l18.242-2.339c0,0-4.034-40.044-12.34-42.451
				C362.447,167.728,373.621,217.435,373.621,217.435z"/>
			<path style="fill:#407BFF;" d="M312.173,268.489c26.489,7.977,49.005,10.551,68.194,1.329c0-9.338-8.548-20.483-7.651-31.375
				c2.466-29.949,7.651-65.458,7.651-65.458c-35.624-18.628-58.602-7.917-58.602-7.917
				C312.643,194.341,312.173,268.489,312.173,268.489z"/>
			<path style="opacity:0.4;fill:#FFFFFF;" d="M312.173,268.489c26.489,7.977,49.005,10.551,68.194,1.329
				c0-9.338-8.548-20.483-7.651-31.375c2.466-29.949,7.651-65.458,7.651-65.458c-35.624-18.628-58.602-7.917-58.602-7.917
				C312.643,194.341,312.173,268.489,312.173,268.489z"/>
			<path style="fill:#407BFF;" d="M322.921,202.823l-18.446-7.652c0,0,12.317-32.968,19.91-30.47
				C336.799,168.801,322.921,202.823,322.921,202.823z"/>
			<path style="fill:#FFFFFF;fill-opacity:0;" d="M322.921,202.823l-18.446-7.652c0,0,12.317-32.968,19.91-30.47
				C336.799,168.801,322.921,202.823,322.921,202.823z"/>
			<path style="opacity:0.2;enable-background:new    ;" d="M375.08,214.423c0,0,0.028-0.231,0.079-0.649
				c0.495-4.06,3.147-25.785,3.147-25.785l0.03,28.842l-3.501,0.449"/>
		</g>
		<g>
			<path style="fill:#FFBBB5;" d="M343.322,161.773c6.573-3.121,3.824-6.635,4.134-14.282l11.161-4.506
				c-0.475,0.827,1.922,16.349,2.067,18.168c1.09,3.136,1.28,5.292,3.431,6.965C356.546,170.93,348.032,168.331,343.322,161.773z"/>
			<path style="opacity:0.2;enable-background:new    ;" d="M347.663,152.307c0.363,2.118,0.186,4.294-0.517,6.325
				c3.286-1.881,7.668-3.493,10.335-10.686L347.663,152.307z"/>
			<g>
				<g>
					<path style="fill:#FFBBB5;" d="M359.395,126.093c1.482,10.332,2.526,16.13-1.564,22.387c-6.153,9.411-19.415,7.4-23.966-2.31
						c-4.097-8.74-5.832-24.168,3.355-30.201C346.271,110.024,357.913,115.76,359.395,126.093z"/>
					<path style="fill:#263238;" d="M345.4,132.057c0.216,1.044-0.164,1.999-0.849,2.134c-0.685,0.135-1.415-0.603-1.631-1.647
						c-0.216-1.044,0.164-1.999,0.849-2.134C344.454,130.276,345.184,131.013,345.4,132.057z"/>
					<path style="fill:#263238;" d="M335.203,134.377c0.216,1.044-0.164,1.999-0.849,2.134c-0.685,0.135-1.415-0.603-1.631-1.647
						c-0.216-1.044,0.164-2,0.849-2.134C334.257,132.596,334.987,133.333,335.203,134.377z"/>
					<path style="fill:#E97A75;" d="M338.414,133.11c0,0-2.233,5.871-2.855,8.202c1.725,1.012,4.103-0.11,4.103-0.11L338.414,133.11
						z"/>
					<path style="fill:#263238;" d="M346.935,126.608c-0.144,0.097-0.336,0.116-0.505,0.033c-2.004-0.989-3.603-0.083-3.619-0.074
						c-0.238,0.138-0.546,0.059-0.686-0.177c-0.141-0.236-0.06-0.541,0.176-0.68c0.084-0.049,2.088-1.186,4.574,0.042
						c0.248,0.123,0.35,0.421,0.228,0.666C347.063,126.498,347.004,126.562,346.935,126.608z"/>
				</g>
				<path style="fill:#263238;" d="M329.774,130.904c-0.095-0.001-0.19-0.029-0.275-0.086c-0.229-0.155-0.292-0.465-0.139-0.693
					c1.529-2.288,3.823-2.254,3.926-2.265c0.275,0.006,0.497,0.233,0.494,0.509c-0.003,0.275-0.225,0.493-0.499,0.49
					c-0.096-0.005-1.863-0.009-3.09,1.827C330.094,130.829,329.935,130.906,329.774,130.904z"/>
				<path style="fill:none;stroke:#263238;stroke-width:0.5;stroke-linecap:round;stroke-linejoin:round;stroke-miterlimit:10;" d="
					M343.598,144.427c1.905-0.521,3.446-2.193,3.81-4.134"/>
			</g>
			<path style="fill:#263238;" d="M361.996,115.924c2.052,3.023,2.477,9.923,1.213,18.394c-1.376,9.164-4.659,12.972-4.659,12.972
				c2.324-4.332,1.411-12.605,0.003-12.832c-1.409-0.228-1.342,1.406-1.342,1.406c-3.126-2.029-5.875-7.564-4.814-11.57
				c0.466-1.693-0.454-3.458-2.109-4.045l0.089-4.529L361.996,115.924z"/>
			<path style="fill:#FFBBB5;" d="M365.182,133.765c-0.273,2.796-1.818,5.194-3.635,6.618c-2.732,2.142-5.453,0.014-5.829-3.26
				c-0.338-2.947,0.676-7.612,3.963-8.473C362.922,127.801,365.494,130.569,365.182,133.765z"/>
			
				<path style="opacity:0.2;fill:none;stroke:#000000;stroke-width:0.5;stroke-linecap:round;stroke-linejoin:round;stroke-miterlimit:10;" d="
				M362.269,131.426c-0.537-0.524-1.422-0.575-2.099-0.252s-1.164,0.956-1.477,1.637c-0.376,0.819-0.533,1.736-0.451,2.633"/>
			<path style="fill:#263238;" d="M364.47,118.06c-0.521-3.635-3.462-6.441-7.117-6.792c-2.884-3.183-12.91-5.334-22.165-0.414
				c-9.254,4.92-8.251,12.541-7.187,13.355c2.207,1.664,6.048-4.987,6.048-4.987s-2.256,4.198,0.725,4.348
				c2.981,0.15,9.094-4.193,9.094-4.193s-1.548,2.04,0.241,3.14c1.789,1.1,6.179-2.268,6.179-2.268S365.754,126.303,364.47,118.06z"
				/>
		</g>
		<g>
			<path style="fill:#FFBBB5;" d="M343.322,161.773c6.573-3.121,3.824-6.635,4.134-14.282l11.161-4.506
				c-0.475,0.827,1.922,16.349,2.067,18.168c1.09,3.136,1.28,5.292,3.431,6.965C356.546,170.93,348.032,168.331,343.322,161.773z"/>
			<path style="opacity:0.2;enable-background:new    ;" d="M347.663,152.307c0.363,2.118,0.186,4.294-0.517,6.325
				c3.286-1.881,7.668-3.493,10.335-10.686L347.663,152.307z"/>
			<g>
				<g>
					<path style="fill:#FFBBB5;" d="M359.395,126.093c1.482,10.332,2.526,16.13-1.564,22.387c-6.153,9.411-19.415,7.4-23.966-2.31
						c-4.097-8.74-5.832-24.168,3.355-30.201C346.271,110.024,357.913,115.76,359.395,126.093z"/>
					<path style="fill:#263238;" d="M345.4,132.057c0.216,1.044-0.164,1.999-0.849,2.134c-0.685,0.135-1.415-0.603-1.631-1.647
						c-0.216-1.044,0.164-1.999,0.849-2.134C344.454,130.276,345.184,131.013,345.4,132.057z"/>
					<path style="fill:#263238;" d="M335.203,134.377c0.216,1.044-0.164,1.999-0.849,2.134c-0.685,0.135-1.415-0.603-1.631-1.647
						c-0.216-1.044,0.164-2,0.849-2.134C334.257,132.596,334.987,133.333,335.203,134.377z"/>
					<path style="fill:#E97A75;" d="M338.414,133.11c0,0-2.233,5.871-2.855,8.202c1.725,1.012,4.103-0.11,4.103-0.11L338.414,133.11
						z"/>
					<path style="fill:#263238;" d="M346.935,126.608c-0.144,0.097-0.336,0.116-0.505,0.033c-2.004-0.989-3.603-0.083-3.619-0.074
						c-0.238,0.138-0.546,0.059-0.686-0.177c-0.141-0.236-0.06-0.541,0.176-0.68c0.084-0.049,2.088-1.186,4.574,0.042
						c0.248,0.123,0.35,0.421,0.228,0.666C347.063,126.498,347.004,126.562,346.935,126.608z"/>
				</g>
				<path style="fill:#263238;" d="M329.774,130.904c-0.095-0.001-0.19-0.029-0.275-0.086c-0.229-0.155-0.292-0.465-0.139-0.693
					c1.529-2.288,3.823-2.254,3.926-2.265c0.275,0.006,0.497,0.233,0.494,0.509c-0.003,0.275-0.225,0.493-0.499,0.49
					c-0.096-0.005-1.863-0.009-3.09,1.827C330.094,130.829,329.935,130.906,329.774,130.904z"/>
				<path style="fill:none;stroke:#263238;stroke-width:0.5;stroke-linecap:round;stroke-linejoin:round;stroke-miterlimit:10;" d="
					M343.598,144.427c1.905-0.521,3.446-2.193,3.81-4.134"/>
			</g>
			<path style="fill:#263238;" d="M361.996,115.924c2.052,3.023,2.477,9.923,1.213,18.394c-1.376,9.164-4.659,12.972-4.659,12.972
				c2.324-4.332,1.411-12.605,0.003-12.832c-1.409-0.228-1.342,1.406-1.342,1.406c-3.126-2.029-5.875-7.564-4.814-11.57
				c0.466-1.693-0.454-3.458-2.109-4.045l0.089-4.529L361.996,115.924z"/>
			<path style="fill:#FFBBB5;" d="M365.182,133.765c-0.273,2.796-1.818,5.194-3.635,6.618c-2.732,2.142-5.453,0.014-5.829-3.26
				c-0.338-2.947,0.676-7.612,3.963-8.473C362.922,127.801,365.494,130.569,365.182,133.765z"/>
			
				<path style="opacity:0.2;fill:none;stroke:#000000;stroke-width:0.5;stroke-linecap:round;stroke-linejoin:round;stroke-miterlimit:10;" d="
				M362.269,131.426c-0.537-0.524-1.422-0.575-2.099-0.252s-1.164,0.956-1.477,1.637c-0.376,0.819-0.533,1.736-0.451,2.633"/>
			<path style="fill:#263238;" d="M364.47,118.06c-0.521-3.635-3.462-6.441-7.117-6.792c-2.884-3.183-12.91-5.334-22.165-0.414
				c-9.254,4.92-8.251,12.541-7.187,13.355c2.207,1.664,6.048-4.987,6.048-4.987s-2.256,4.198,0.725,4.348
				c2.981,0.15,9.094-4.193,9.094-4.193s-1.548,2.04,0.241,3.14c1.789,1.1,6.179-2.268,6.179-2.268S365.754,126.303,364.47,118.06z"
				/>
		</g>
	</g>
</g>
</svg>
