<?xml version="1.0" encoding="utf-8"?>
<!-- Generator: Adobe Illustrator 27.5.0, SVG Export Plug-In . SVG Version: 6.00 Build 0)  -->
<svg version="1.1" xmlns="http://www.w3.org/2000/svg" xmlns:xlink="http://www.w3.org/1999/xlink" x="0px" y="0px"
	 viewBox="0 0 750 500" style="enable-background:new 0 0 750 500;" xml:space="preserve">
<g id="Background_Complete">
	<g>
		<g>
			<g>
				<path style="fill:#EBEBEB;" d="M692.173,336.898c0,0-6.518-2.817-11.143,12.397c-4.625,15.215-5.886,23.739-5.886,23.739
					s-1.359,3.257-3.706,1.704c-2.348-1.553-6.062-6.482-9.301-4.899c-3.359,1.642-3.821,5.799-2.112,11.483
					c1.708,5.684,4.994,18.273,5.287,19.412c0.287,1.119-0.064,2.905-1.833,2.103c-1.769-0.801-12.634-9.284-16.351-3.888
					c-3.716,5.397,3.644,20.448,4.417,22.109c0.773,1.661,0.565,2.466-0.186,3.045c-0.752,0.579-4.135-2.617-7.324-4.903
					c-3.189-2.286-7.288-4.378-9.171-1.085c-1.883,3.293-0.53,15.329,14.237,32.641l7.367,7.574l10.329-2.437
					c21.788-6.562,29.441-15.949,29.64-19.738c0.199-3.788-4.379-4.248-8.298-4.053c-3.919,0.196-8.493,1.051-8.812,0.158
					s-0.058-1.683,1.492-2.661c1.549-0.978,15.886-9.648,15.682-16.198c-0.203-6.549-13.931-5.299-15.852-5.582
					c-1.921-0.284-1.25-1.976-0.403-2.761c0.863-0.799,10.441-9.606,14.954-13.46c4.513-3.854,6.375-7.599,4.44-10.798
					c-1.866-3.085-7.657-0.951-10.472-0.916c-2.815,0.035-2.193-3.439-2.193-3.439s3.554-7.849,7.902-23.146
					c4.348-15.296-2.84-16.45-2.84-16.45"/>
			</g>
		</g>
		<g>
			<g>
				<g>
					<path style="fill:#E0E0E0;" d="M688.008,350.516c0,0-0.019,0.112-0.073,0.326c-0.06,0.228-0.143,0.542-0.25,0.945
						c-0.233,0.845-0.568,2.064-0.997,3.626c-0.87,3.148-2.163,7.694-3.782,13.304c-3.234,11.222-7.834,26.686-12.971,43.747
						c-5.139,17.067-9.778,32.519-13.075,43.722c-1.64,5.591-2.968,10.121-3.892,13.27c-0.458,1.554-0.815,2.766-1.063,3.607
						c-0.122,0.399-0.216,0.71-0.285,0.935c-0.066,0.21-0.109,0.315-0.109,0.315s0.019-0.112,0.074-0.325
						c0.06-0.228,0.143-0.542,0.25-0.945c0.233-0.845,0.568-2.064,0.997-3.625c0.87-3.148,2.162-7.693,3.782-13.303
						c3.234-11.222,7.835-26.687,12.974-43.754c5.137-17.061,9.776-32.512,13.072-43.714c1.64-5.591,2.968-10.121,3.892-13.271
						c0.458-1.554,0.815-2.766,1.063-3.607c0.122-0.4,0.216-0.71,0.285-0.936C687.965,350.621,688.008,350.516,688.008,350.516z"/>
				</g>
			</g>
		</g>
		<g>
			<g>
				<g>
					<path style="fill:#E0E0E0;" d="M667.056,376.944c0.023-0.011,0.161,0.223,0.394,0.656c0.235,0.432,0.554,1.067,0.941,1.855
						c0.77,1.578,1.776,3.786,2.84,6.242c1.036,2.42,1.972,4.608,2.696,6.301c0.324,0.747,0.599,1.383,0.825,1.905
						c0.196,0.449,0.294,0.703,0.272,0.715c-0.022,0.011-0.163-0.222-0.399-0.653c-0.233-0.433-0.553-1.068-0.931-1.86
						c-0.755-1.586-1.732-3.806-2.795-6.262c-1.052-2.411-2.004-4.592-2.74-6.279c-0.328-0.746-0.606-1.38-0.835-1.902
						C667.13,377.21,667.034,376.955,667.056,376.944z"/>
				</g>
			</g>
		</g>
		<g>
			<g>
				<g>
					<path style="fill:#E0E0E0;" d="M676.013,394.632c-0.044-0.09,4.414-2.367,9.956-5.087c5.544-2.72,10.072-4.852,10.116-4.762
						c0.044,0.09-4.413,2.367-9.957,5.087C680.586,392.59,676.057,394.722,676.013,394.632z"/>
				</g>
			</g>
		</g>
		<g>
			<g>
				<g>
					<path style="fill:#E0E0E0;" d="M666.941,420.481c-0.003-0.025,0.268-0.087,0.76-0.178c0.57-0.101,1.267-0.224,2.088-0.37
						c1.762-0.313,4.194-0.754,6.86-1.336c2.668-0.576,5.065-1.18,6.797-1.63c0.807-0.208,1.493-0.385,2.053-0.529
						c0.486-0.122,0.758-0.178,0.766-0.154s-0.251,0.125-0.726,0.289c-0.474,0.163-1.165,0.386-2.025,0.641
						c-1.718,0.514-4.112,1.159-6.789,1.737c-2.674,0.584-5.121,0.986-6.897,1.235c-0.888,0.121-1.608,0.21-2.108,0.256
						C667.222,420.491,666.944,420.506,666.941,420.481z"/>
				</g>
			</g>
		</g>
		<g>
			<g>
				<g>
					<path style="fill:#E0E0E0;" d="M655.318,406.265c0.019-0.016,0.202,0.165,0.516,0.505c0.314,0.34,0.759,0.841,1.304,1.464
						c1.089,1.247,2.574,2.985,4.197,4.919c1.624,1.935,3.078,3.699,4.117,4.988c0.519,0.644,0.935,1.17,1.216,1.538
						c0.281,0.368,0.427,0.58,0.408,0.596c-0.019,0.016-0.202-0.165-0.516-0.505c-0.314-0.341-0.759-0.841-1.304-1.464
						c-1.089-1.247-2.574-2.985-4.198-4.92c-1.623-1.934-3.077-3.698-4.116-4.987c-0.519-0.644-0.935-1.17-1.216-1.538
						C655.445,406.493,655.299,406.281,655.318,406.265z"/>
				</g>
			</g>
		</g>
		<g>
			<g>
				<g>
					<path style="fill:#E0E0E0;" d="M644.41,428.067c0.019-0.016,0.25,0.217,0.652,0.654c0.444,0.495,1.006,1.123,1.677,1.871
						c1.404,1.59,3.324,3.804,5.428,6.263c2.105,2.46,3.994,4.7,5.348,6.333c0.636,0.779,1.169,1.431,1.589,1.946
						c0.369,0.465,0.564,0.729,0.545,0.746c-0.019,0.016-0.25-0.217-0.652-0.654c-0.444-0.495-1.006-1.123-1.677-1.871
						c-1.404-1.59-3.324-3.804-5.429-6.264c-2.104-2.459-3.993-4.699-5.348-6.332c-0.636-0.779-1.169-1.431-1.589-1.946
						C644.586,428.348,644.391,428.083,644.41,428.067z"/>
				</g>
			</g>
		</g>
		<g>
			<g>
				<g>
					<path style="fill:#E0E0E0;" d="M659.406,445.352c-0.004-0.025,0.337-0.112,0.957-0.249c0.689-0.147,1.572-0.336,2.631-0.563
						c2.22-0.476,5.285-1.143,8.648-1.973c3.365-0.825,6.392-1.651,8.579-2.262c1.043-0.29,1.914-0.532,2.592-0.72
						c0.613-0.167,0.956-0.248,0.963-0.224c0.008,0.024-0.321,0.15-0.922,0.359c-0.601,0.208-1.475,0.495-2.561,0.831
						c-2.171,0.675-5.193,1.541-8.565,2.368c-3.369,0.832-6.449,1.461-8.685,1.873c-1.119,0.203-2.026,0.358-2.655,0.451
						C659.76,445.336,659.41,445.376,659.406,445.352z"/>
				</g>
			</g>
		</g>
	</g>
	<g>
		<g>
			<g>
				<g>
					<rect x="258.409" y="376.776" style="fill:#F5F5F5;" width="130.103" height="60.002"/>
				</g>
			</g>
			<g>
				<g>
					<path style="fill:#E0E0E0;" d="M385.415,433.95H261.387v-54.017h124.029V433.95z M262.196,433.141h122.41v-52.398h-122.41
						V433.141z"/>
				</g>
			</g>
			<g>
				<g>
					<rect x="388.512" y="376.776" style="fill:#E0E0E0;" width="31.784" height="60.002"/>
				</g>
			</g>
			<g>
				<g>
					<g>
						<path style="fill:#E0E0E0;" d="M261.791,396.65c13.938,0,27.876,0,41.814,0c22.021,0,44.042,0,66.064,0
							c5.114,0,10.228,0,15.342,0c0.21,0,0.21-0.327,0-0.327c-13.938,0-27.876,0-41.814,0c-22.021,0-44.042,0-66.064,0
							c-5.114,0-10.228,0-15.342,0C261.581,396.323,261.581,396.65,261.791,396.65L261.791,396.65z"/>
					</g>
				</g>
			</g>
			<g>
				<g>
					<g>
						<path style="fill:#E0E0E0;" d="M323.803,396.487c0.369-5.326,0.329-10.967,0.042-16.299c-0.012-0.213-0.32-0.214-0.332,0
							c-0.287,5.331-0.327,10.972,0.042,16.299C323.567,396.646,323.792,396.646,323.803,396.487L323.803,396.487z"/>
					</g>
				</g>
			</g>
			<g>
				<g>
					<path style="fill:#E0E0E0;" d="M356.97,388.337c0,0.927-0.752,1.679-1.679,1.679c-0.927,0-1.679-0.752-1.679-1.679
						c0-0.927,0.751-1.679,1.679-1.679C356.218,386.659,356.97,387.41,356.97,388.337z"/>
				</g>
			</g>
			<g>
				<g>
					<path style="fill:#E0E0E0;" d="M292.304,388.337c0,0.927-0.751,1.679-1.678,1.679c-0.927,0-1.679-0.752-1.679-1.679
						c0-0.927,0.752-1.679,1.679-1.679C291.552,386.659,292.304,387.41,292.304,388.337z"/>
				</g>
			</g>
			<g>
				<g>
					<path style="fill:#E0E0E0;" d="M325.08,406.941c0,0.927-0.752,1.679-1.679,1.679c-0.927,0-1.679-0.751-1.679-1.679
						c0-0.927,0.751-1.679,1.679-1.679C324.328,405.263,325.08,406.014,325.08,406.941z"/>
				</g>
			</g>
			<g>
				<g>
					<polygon style="fill:#E0E0E0;" points="273.964,436.778 267.266,474.448 271.033,474.448 283.383,436.778 					"/>
				</g>
			</g>
			<g>
				<g>
					<polygon style="fill:#E0E0E0;" points="379.307,436.778 384.909,474.514 381.141,474.514 369.888,436.778 					"/>
				</g>
			</g>
			<g>
				<g>
					<polygon style="fill:#E0E0E0;" points="404.458,436.778 410.805,474.514 407.037,474.514 395.039,436.778 					"/>
				</g>
			</g>
			<g>
				<g>
					<path style="fill:#E0E0E0;" d="M324.967,423.923c0,0.927-0.751,1.679-1.678,1.679c-0.927,0-1.679-0.751-1.679-1.679
						c0-0.927,0.752-1.679,1.679-1.679C324.215,422.244,324.967,422.996,324.967,423.923z"/>
				</g>
			</g>
			<g>
				<g>
					<g>
						<path style="fill:#E0E0E0;" d="M261.791,415.23c13.938,0,27.876,0,41.814,0c22.021,0,44.042,0,66.064,0
							c5.114,0,10.228,0,15.342,0c0.21,0,0.21-0.326,0-0.326c-13.938,0-27.876,0-41.814,0c-22.021,0-44.042,0-66.064,0
							c-5.114,0-10.228,0-15.342,0C261.581,414.904,261.581,415.23,261.791,415.23L261.791,415.23z"/>
					</g>
				</g>
			</g>
		</g>
	</g>
	<g>
		<g>
			<rect x="580.389" y="84.812" style="fill:#EBEBEB;" width="82.256" height="110.324"/>
		</g>
		<g>
			<rect x="584.67" y="89.148" style="fill:#FAFAFA;" width="73.693" height="101.652"/>
		</g>
		<g>
			<rect x="608.551" y="124.31" style="fill:#EBEBEB;" width="28.134" height="32.148"/>
		</g>
	</g>
	<g>
		<g>
			
				<rect x="635.936" y="212.177" transform="matrix(6.123234e-17 -1 1 6.123234e-17 414.6449 910.6449)" style="fill:#EBEBEB;" width="53.418" height="71.646"/>
		</g>
		<g>
			<rect x="629.638" y="224.071" style="fill:#FAFAFA;" width="66.014" height="47.857"/>
		</g>
		<g>
			
				<rect x="653.776" y="236.846" transform="matrix(6.123234e-17 -1 1 6.123234e-17 415.6263 910.1962)" style="fill:#EBEBEB;" width="18.271" height="20.877"/>
		</g>
	</g>
	<g>
		<g>
			<rect x="53.403" y="127.416" style="fill:#EBEBEB;" width="52.191" height="70"/>
		</g>
		<g>
			<rect x="56.119" y="130.167" style="fill:#FAFAFA;" width="46.758" height="64.498"/>
		</g>
		<g>
			<rect x="71.272" y="152.477" style="fill:#EBEBEB;" width="17.851" height="20.397"/>
		</g>
	</g>
	<g>
		<g>
			<g>
				<g>
					<g>
						<polygon style="fill:#EBEBEB;" points="343.897,342.681 340.339,375.693 385.918,375.693 389.698,342.681 						"/>
					</g>
				</g>
			</g>
			<g>
				<g>
					<g>
						<polygon style="fill:#FAFAFA;" points="345.77,345.052 342.31,373.939 383.444,373.939 386.772,345.052 						"/>
					</g>
				</g>
			</g>
			<g>
				<g>
					<g>
						<polygon style="fill:#E0E0E0;" points="352.693,349.911 350.563,369.08 376.522,369.08 377.853,349.911 						"/>
					</g>
				</g>
			</g>
		</g>
		<g>
			<polyline style="fill:#F5F5F5;" points="388.07,356.898 397.484,375.825 385.918,375.693 388.211,355.662 			"/>
		</g>
	</g>
</g>
<g id="Background_Simple" style="display:none;">
	<g style="display:inline;">
		<g style="opacity:0.4;">
			<path style="fill:#F5F5F5;" d="M187.905,409.662c-0.01-0.01-0.021-0.021-0.031-0.031c-0.478-0.435-0.957-0.869-1.428-1.313
				L187.905,409.662z"/>
		</g>
		<path style="fill:#F5F5F5;" d="M624.159,56.82c-23.411-11.015-51.284-10.939-75.583-2.054
			c-24.299,8.885-45.083,26.089-60.471,46.888c-13.976,18.891-24.198,41.215-42.697,55.707
			c-26.114,20.457-62.595,20.622-95.438,15.958c-32.843-4.664-72.217-15.483-105.271-18.282
			c-42.803-3.624-98.03,36.802-99.431,91.205c-1.878,72.91,31.939,91.945,61.171,115.745c25.42,13.852,53.348,24.075,88.937,30.554
			c28.738,5.231,59.681,5.468,87.661,6.492c57.957,2.122,111.632-11.316,159.455-33.993
			c47.823-22.677,86.203-68.022,114.451-112.781c19.016-30.131,26.374-74.47,23.1-109.949
			C676.767,106.832,656.399,71.988,624.159,56.82z"/>
	</g>
</g>
<g id="Floor">
	<g>
		<g>
			<path style="fill:#263238;" d="M680.63,474.26c0,0.144-140.876,0.26-314.615,0.26c-173.8,0-314.645-0.117-314.645-0.26
				s140.846-0.26,314.645-0.26C539.754,473.999,680.63,474.116,680.63,474.26z"/>
		</g>
	</g>
</g>
<g id="Loading">
	<g>
		<g>
			<g>
				<g>
					<rect x="133.668" y="77.413" style="fill:#EBEBEB;" width="376.269" height="247.672"/>
				</g>
				<g>
					<g>
						<path style="fill:#263238;" d="M509.937,325.086c-0.001-1.691-0.081-96.598-0.207-247.672l0.207,0.207
							c-103.326,0.015-234.248,0.033-376.239,0.053h-0.03l0.26-0.26c-0.008,88.106-0.015,171.941-0.021,247.672l-0.239-0.239
							C355.145,324.987,507.796,325.084,509.937,325.086c-2.139,0.001-154.792,0.098-376.269,0.239l-0.239,0v-0.239
							c-0.007-75.731-0.014-159.566-0.021-247.672v-0.26h0.26h0.03c141.991,0.02,272.913,0.039,376.239,0.053l0.208,0l0,0.207
							C510.018,228.488,509.938,323.396,509.937,325.086z"/>
					</g>
				</g>
			</g>
			<g>
				<g>
					<path style="fill:#263238;" d="M509.937,99.451c0,0.144-84.237,0.26-188.125,0.26c-103.924,0-188.143-0.117-188.143-0.26
						c0-0.144,84.219-0.26,188.143-0.26C425.699,99.191,509.937,99.307,509.937,99.451z"/>
				</g>
			</g>
		</g>
		<g>
			<rect x="168.726" y="136.093" style="fill:#E0E0E0;" width="315.437" height="43.169"/>
		</g>
		<g>
			<rect x="163.331" y="254.761" style="fill:#E0E0E0;" width="70.029" height="70.03"/>
		</g>
		<g>
			<rect x="246.115" y="254.761" style="fill:#E0E0E0;" width="70.029" height="70.03"/>
		</g>
		<g>
			<rect x="326.425" y="254.761" style="fill:#E0E0E0;" width="70.029" height="70.03"/>
		</g>
		<g>
			<g>
				<path style="fill:#E8505B;" d="M288.554,225.084h-75.911c-6.389,0-11.569-5.179-11.569-11.568l0,0
					c0-6.389,5.179-11.568,11.569-11.568h75.911c6.389,0,11.568,5.179,11.568,11.568l0,0
					C300.122,219.905,294.943,225.084,288.554,225.084z"/>
			</g>
			<g>
				<g>
					<path style="fill:#263238;" d="M377.29,225.084c0,0,0.351-0.036,1.034-0.079c0.341-0.027,0.759-0.117,1.259-0.191
						c0.487-0.136,1.069-0.245,1.685-0.504c1.243-0.464,2.72-1.274,4.112-2.639c1.364-1.376,2.614-3.342,3.137-5.821
						c0.482-2.458,0.224-5.429-1.343-8.083c-1.529-2.624-4.362-4.916-7.913-5.493c-1.754-0.289-3.643-0.137-5.568-0.172
						c-1.929,0.003-3.919,0.006-5.966,0.01c-4.096,0.006-8.426,0.012-12.972,0.018c-36.379,0.02-86.618,0.047-142.104,0.076
						c-3.401-0.007-6.727,1.601-8.818,4.226c-2.11,2.611-2.945,6.15-2.264,9.39c0.672,3.242,2.83,6.092,5.694,7.644
						c1.434,0.769,3.026,1.221,4.636,1.322c1.615,0.076,3.283,0.022,4.911,0.039c13.085,0.005,25.706,0.01,37.73,0.015
						c24.045,0.021,45.698,0.04,63.886,0.056c18.178,0.035,32.889,0.063,43.07,0.083c5.077,0.021,9.021,0.038,11.71,0.049
						c1.33,0.011,2.347,0.02,3.045,0.026C376.939,225.066,377.29,225.084,377.29,225.084s-0.351,0.018-1.037,0.027
						c-0.698,0.006-1.715,0.015-3.045,0.026c-2.689,0.011-6.633,0.028-11.71,0.049c-10.181,0.02-24.892,0.048-43.07,0.083
						c-18.188,0.016-39.842,0.035-63.886,0.056c-12.024,0.005-24.645,0.01-37.73,0.015c-1.643-0.017-3.263,0.04-4.944-0.038
						c-1.682-0.105-3.348-0.577-4.848-1.381c-2.994-1.621-5.252-4.599-5.956-7.992c-0.714-3.387,0.158-7.091,2.366-9.822
						c2.185-2.745,5.668-4.429,9.224-4.42c55.486,0.03,105.725,0.057,142.104,0.076c4.546,0.006,8.875,0.013,12.972,0.018
						c2.048,0.003,4.037,0.007,5.966,0.01c1.926,0.043,3.8-0.107,5.618,0.196c3.64,0.607,6.529,2.967,8.078,5.655
						c1.588,2.72,1.833,5.752,1.327,8.25c-0.547,2.52-1.833,4.508-3.227,5.89c-1.422,1.371-2.925,2.174-4.185,2.627
						c-0.625,0.252-1.213,0.355-1.705,0.483c-0.506,0.066-0.927,0.148-1.271,0.166C377.641,225.084,377.29,225.084,377.29,225.084z"
						/>
				</g>
			</g>
		</g>
		<g>
			<path style="fill:#263238;" d="M276.014,233.169h0.864l-1.063,5.295h3.282l-0.146,0.751h-4.146L276.014,233.169z"/>
			<path style="fill:#263238;" d="M279.75,237.289c0-1.546,1.123-2.694,2.686-2.694c1.304,0,2.142,0.768,2.142,1.969
				c0,1.555-1.114,2.703-2.677,2.703C280.596,239.266,279.75,238.48,279.75,237.289z M283.74,236.606
				c0-0.812-0.492-1.287-1.365-1.287c-1.028,0-1.788,0.804-1.788,1.934c0,0.804,0.492,1.287,1.364,1.287
				C282.988,238.541,283.74,237.738,283.74,236.606z"/>
			<path style="fill:#263238;" d="M290.454,234.637l-0.907,4.577h-0.794l0.112-0.562c-0.406,0.389-0.959,0.613-1.615,0.613
				c-1.166,0-2.021-0.743-2.021-1.978c0-1.572,1.105-2.694,2.591-2.694c0.786,0,1.356,0.284,1.65,0.82l0.155-0.777H290.454z
				 M289.219,236.606c0-0.812-0.492-1.287-1.365-1.287c-1.028,0-1.788,0.804-1.788,1.934c0,0.804,0.492,1.287,1.364,1.287
				C288.467,238.541,289.219,237.738,289.219,236.606z"/>
			<path style="fill:#263238;" d="M296.71,232.807l-1.278,6.408h-0.794l0.112-0.562c-0.406,0.389-0.959,0.613-1.615,0.613
				c-1.166,0-2.021-0.743-2.021-1.978c0-1.572,1.105-2.694,2.591-2.694c0.786,0,1.365,0.284,1.658,0.829l0.519-2.617H296.71z
				 M295.104,236.606c0-0.812-0.492-1.287-1.365-1.287c-1.028,0-1.788,0.804-1.788,1.934c0,0.804,0.492,1.287,1.364,1.287
				C294.352,238.541,295.104,237.738,295.104,236.606z"/>
			<path style="fill:#263238;" d="M297.914,234.637h0.829l-0.907,4.577h-0.829L297.914,234.637z M298.052,233.256
				c0-0.319,0.242-0.579,0.596-0.579c0.303,0,0.527,0.225,0.527,0.484c0,0.354-0.25,0.596-0.604,0.596
				C298.268,233.757,298.052,233.532,298.052,233.256z"/>
			<path style="fill:#263238;" d="M304.32,236.114c0,0.164-0.017,0.346-0.052,0.535l-0.509,2.566h-0.829l0.509-2.566
				c0.026-0.138,0.044-0.268,0.044-0.38c0-0.596-0.346-0.933-1.063-0.933c-0.89,0-1.494,0.476-1.693,1.46l-0.483,2.418h-0.829
				l0.907-4.577h0.795l-0.112,0.587c0.423-0.432,1.002-0.63,1.658-0.63C303.698,234.595,304.32,235.139,304.32,236.114z"/>
			<path style="fill:#263238;" d="M310.602,234.637l-0.786,3.955c-0.328,1.658-1.218,2.35-2.738,2.35
				c-0.872,0-1.598-0.233-2.09-0.648l0.457-0.639c0.354,0.328,0.976,0.553,1.693,0.553c1.08,0,1.624-0.492,1.822-1.485l0.069-0.328
				c-0.415,0.397-0.976,0.63-1.658,0.63c-1.209,0-2.038-0.708-2.038-1.865c0-1.451,1.08-2.564,2.608-2.564
				c0.751,0,1.408,0.276,1.71,0.881l0.164-0.838H310.602z M309.333,236.503c0-0.734-0.501-1.184-1.365-1.184
				c-1.045,0-1.796,0.752-1.796,1.788c0,0.743,0.509,1.192,1.364,1.192C308.581,238.3,309.333,237.548,309.333,236.503z"/>
			<path style="fill:#263238;" d="M313.307,238.714c0-0.371,0.276-0.631,0.613-0.631c0.311,0,0.544,0.233,0.544,0.562
				c0,0.372-0.285,0.622-0.604,0.622C313.548,239.266,313.307,239.024,313.307,238.714z"/>
			<path style="fill:#263238;" d="M315.265,238.714c0-0.371,0.276-0.631,0.613-0.631c0.311,0,0.544,0.233,0.544,0.562
				c0,0.372-0.285,0.622-0.604,0.622C315.507,239.266,315.265,239.024,315.265,238.714z"/>
			<path style="fill:#263238;" d="M317.224,238.714c0-0.371,0.276-0.631,0.613-0.631c0.311,0,0.544,0.233,0.544,0.562
				c0,0.372-0.285,0.622-0.605,0.622C317.465,239.266,317.224,239.024,317.224,238.714z"/>
		</g>
		<g>
			<path style="fill:#263238;" d="M148.042,89.499c0,1.523-1.235,2.758-2.758,2.758s-2.758-1.235-2.758-2.758
				c0-1.523,1.235-2.758,2.758-2.758S148.042,87.976,148.042,89.499z"/>
		</g>
		<g>
			<path style="fill:#263238;" d="M159.763,89.499c0,1.523-1.235,2.758-2.758,2.758s-2.758-1.235-2.758-2.758
				c0-1.523,1.235-2.758,2.758-2.758S159.763,87.976,159.763,89.499z"/>
		</g>
		<g>
			<path style="fill:#263238;" d="M171.484,89.499c0,1.523-1.235,2.758-2.758,2.758c-1.523,0-2.758-1.235-2.758-2.758
				c0-1.523,1.235-2.758,2.758-2.758C170.249,86.742,171.484,87.976,171.484,89.499z"/>
		</g>
	</g>
</g>
<g id="Character">
	<g>
		<g>
			<g>
				<g>
					<circle style="fill:#F5F5F5;" cx="470.718" cy="182.759" r="131.324"/>
				</g>
				<g>
					<g>
						<path style="fill:#263238;" d="M602.043,182.759c0,0-0.036-0.721-0.081-2.129c-0.021-0.706-0.048-1.581-0.079-2.622
							c-0.025-1.043-0.053-2.253-0.187-3.621c-0.108-1.37-0.229-2.902-0.362-4.591c-0.172-1.686-0.443-3.521-0.69-5.514
							c-0.559-3.976-1.426-8.532-2.669-13.598c-1.337-5.037-2.962-10.618-5.38-16.489c-2.37-5.88-5.291-12.152-9.133-18.488
							c-7.591-12.686-18.482-25.962-33.327-37.285c-7.391-5.676-15.794-10.77-25.054-14.979c-9.255-4.203-19.37-7.58-30.158-9.524
							c-10.768-1.989-22.167-2.773-33.808-1.867c-5.828,0.345-11.688,1.292-17.571,2.455c-5.87,1.255-11.724,2.937-17.529,4.997
							c-5.763,2.166-11.5,4.635-17.057,7.627c-5.533,3.022-10.97,6.384-16.15,10.226c-5.158,3.867-10.111,8.116-14.792,12.74
							c-4.622,4.683-8.959,9.73-12.949,15.113c-4.009,5.373-7.52,11.175-10.688,17.203c-0.754,1.528-1.606,3.011-2.283,4.583
							c-0.705,1.559-1.411,3.12-2.118,4.685c-1.265,3.193-2.573,6.384-3.616,9.686c-2.15,6.572-3.928,13.338-4.993,20.278
							c-1.094,6.931-1.667,13.987-1.715,21.094c0.047,7.11,0.617,14.168,1.71,21.102c1.066,6.941,2.841,13.711,4.99,20.285
							l0.831,2.457l0.415,1.227l0.474,1.204c0.633,1.604,1.265,3.204,1.895,4.802c0.707,1.565,1.414,3.127,2.118,4.686
							c0.676,1.573,1.529,3.057,2.283,4.585c3.168,6.03,6.678,11.836,10.688,17.209c3.991,5.385,8.328,10.434,12.951,15.118
							c4.681,4.626,9.635,8.876,14.794,12.744c5.181,3.843,10.618,7.206,16.152,10.229c5.557,2.991,11.296,5.462,17.059,7.628
							c5.805,2.06,11.66,3.743,17.531,4.998c5.884,1.164,11.744,2.111,17.573,2.455c11.643,0.906,23.043,0.121,33.811-1.868
							c10.789-1.945,20.903-5.323,30.159-9.527c9.261-4.209,17.664-9.305,25.054-14.981c14.844-11.324,25.734-24.601,33.323-37.286
							c3.842-6.336,6.763-12.607,9.132-18.488c2.418-5.871,4.042-11.451,5.379-16.487c1.242-5.065,2.109-9.621,2.668-13.596
							c0.247-1.992,0.518-3.827,0.69-5.513c0.133-1.689,0.254-3.221,0.362-4.59c0.133-1.368,0.161-2.578,0.186-3.621
							c0.031-1.041,0.058-1.916,0.079-2.622C602.007,183.48,602.043,182.759,602.043,182.759s0,0.721-0.027,2.13
							c-0.014,0.706-0.032,1.582-0.053,2.624c-0.017,1.044-0.036,2.255-0.161,3.624c-0.101,1.371-0.213,2.905-0.337,4.596
							c-0.163,1.688-0.427,3.526-0.666,5.522c-0.544,3.983-1.396,8.547-2.625,13.624c-1.323,5.048-2.937,10.643-5.345,16.53
							c-2.359,5.897-5.274,12.187-9.112,18.545c-7.583,12.728-18.479,26.055-33.35,37.43c-7.404,5.702-15.825,10.822-25.11,15.054
							c-9.279,4.226-19.424,7.625-30.246,9.586c-10.802,2.005-22.24,2.802-33.923,1.901c-5.849-0.342-11.731-1.288-17.637-2.452
							c-5.893-1.256-11.77-2.941-17.598-5.006c-5.786-2.171-11.547-4.648-17.127-7.648c-5.556-3.031-11.015-6.405-16.218-10.26
							c-5.18-3.881-10.154-8.146-14.855-12.787c-4.642-4.7-8.997-9.768-13.005-15.172c-4.027-5.393-7.552-11.221-10.734-17.274
							c-0.757-1.534-1.614-3.023-2.293-4.602c-0.708-1.565-1.417-3.133-2.127-4.705c-0.633-1.604-1.268-3.211-1.904-4.821
							l-0.476-1.209l-0.417-1.231l-0.835-2.466c-2.159-6.6-3.941-13.396-5.012-20.365c-1.097-6.961-1.67-14.048-1.717-21.185
							c0.048-7.135,0.624-14.219,1.723-21.177c1.07-6.967,2.856-13.76,5.015-20.358c1.048-3.314,2.361-6.519,3.632-9.724
							c0.71-1.571,1.419-3.139,2.127-4.703c0.681-1.578,1.536-3.067,2.293-4.601c3.182-6.051,6.707-11.876,10.733-17.268
							c4.007-5.403,8.362-10.468,13.004-15.167c4.7-4.641,9.673-8.904,14.853-12.784c5.201-3.855,10.659-7.227,16.215-10.258
							c5.578-3,11.338-5.476,17.124-7.646c5.827-2.065,11.703-3.75,17.595-5.005c5.905-1.165,11.786-2.111,17.635-2.453
							c11.682-0.902,23.119-0.106,33.921,1.899c10.822,1.96,20.966,5.357,30.245,9.583c9.285,4.231,17.707,9.35,25.111,15.052
							c14.872,11.374,25.77,24.701,33.354,37.429c3.839,6.357,6.753,12.649,9.114,18.546c2.409,5.888,4.022,11.483,5.346,16.531
							c1.229,5.077,2.082,9.643,2.626,13.626c0.239,1.996,0.502,3.834,0.666,5.522c0.124,1.692,0.236,3.225,0.337,4.597
							c0.125,1.37,0.145,2.581,0.161,3.625c0.021,1.042,0.039,1.918,0.053,2.624C602.042,182.038,602.043,182.759,602.043,182.759z"
							/>
					</g>
				</g>
			</g>
			<g>
				<defs>
					<path id="SVGID_1_" d="M418.101,228.602c-11.914-12.627-19.23-29.638-19.23-48.368c0-38.943,31.57-70.513,70.513-70.513
						c38.943,0,70.513,31.57,70.513,70.513c0,19.49-7.908,37.132-20.69,49.895l35.479,34.644
						c21.732-21.586,35.195-51.488,35.195-84.54c0-65.812-53.351-119.163-119.163-119.163c-65.812,0-119.163,53.351-119.163,119.163
						c0,32.497,13.024,61.94,34.117,83.437L418.101,228.602z"/>
				</defs>
				<clipPath id="SVGID_00000175303695791446141960000008715471465078591130_">
					<use xlink:href="#SVGID_1_"  style="overflow:visible;"/>
				</clipPath>
				<g style="clip-path:url(#SVGID_00000175303695791446141960000008715471465078591130_);">
					<path style="fill:#E8505B;" d="M418.101,228.602c-11.914-12.627-19.23-29.638-19.23-48.368
						c0-38.943,31.57-70.513,70.513-70.513c38.943,0,70.513,31.57,70.513,70.513c0,19.49-7.908,37.132-20.69,49.895l35.479,34.644
						c21.732-21.586,35.195-51.488,35.195-84.54c0-65.812-53.351-119.163-119.163-119.163c-65.812,0-119.163,53.351-119.163,119.163
						c0,32.497,13.024,61.94,34.117,83.437L418.101,228.602z"/>
				</g>
				<g style="opacity:0.8;clip-path:url(#SVGID_00000175303695791446141960000008715471465078591130_);">
					<path d="M533.079,179.621h64.089c0,0-6.481,52.171-7.777,53.144c-1.296,0.972-39.21,44.718-39.21,44.718l-43.098-51.199
						L533.079,179.621z"/>
				</g>
				<g style="opacity:0.7;clip-path:url(#SVGID_00000175303695791446141960000008715471465078591130_);">
					<polygon points="515.788,136.466 561.145,91.953 593.071,139.587 597.328,179.617 533.85,179.621 522.289,154.17 					"/>
				</g>
				<g style="opacity:0.5;clip-path:url(#SVGID_00000175303695791446141960000008715471465078591130_);">
					<path d="M473.512,120.321c-0.777-1.296,0-64.161,0-64.161l39.08,4.911l48.114,31.059l-46.226,45.366l-29.107-4.213
						L473.512,120.321z"/>
				</g>
				<g style="opacity:0.3;clip-path:url(#SVGID_00000175303695791446141960000008715471465078591130_);">
					<path d="M380.425,94.397c0.972,0.324,43.098,45.367,43.098,45.367l37.589-14.906l12.054-15.036l0.345-53.661l-44.805,4.911
						L380.425,94.397z"/>
				</g>
				<g style="opacity:0.1;clip-path:url(#SVGID_00000175303695791446141960000008715471465078591130_);">
					<path d="M347.329,179.621c0.972,0.648,71.29,0,71.29,0l-1.24-46.278l-33.942-36.005l-23.146,27.519L347.329,179.621z"/>
				</g>
			</g>
			<g>
				<circle style="fill:#E0E0E0;" cx="472.055" cy="182.759" r="27.363"/>
			</g>
			<g>
				<path style="fill:#455A64;" d="M463.996,184.586L463.996,184.586c1.197,4.096,5.473,6.46,9.578,5.295l95.153-27.008
					l-98.203,11.822C465.761,175.268,462.651,179.98,463.996,184.586z"/>
			</g>
		</g>
		<g>
			<path style="fill:#263238;" d="M457.445,241.939l-5.235,26.554h-6.941L448,254.495l-8.839,11.38h-3.3l-4.817-11.38l-2.808,13.997
				h-6.903l5.31-26.554h6.106l6.222,15.363l12.063-15.363H457.445z"/>
			<path style="fill:#263238;" d="M483.01,247.933l-4.098,20.56h-6.828l0.418-1.935c-1.594,1.48-3.566,2.276-5.956,2.276
				c-4.437,0-8.686-3.377-8.686-9.37c0-6.828,5.007-11.873,11.152-11.873c2.77,0,5.008,0.835,6.297,2.808l0.493-2.466H483.01z
				 M473.944,257.302c0-2.39-1.441-3.945-3.907-3.945c-2.845,0-4.894,2.314-4.894,5.767c0,2.39,1.441,3.906,3.907,3.906
				C471.933,263.03,473.944,260.716,473.944,257.302z"/>
			<path style="fill:#263238;" d="M499.016,258.288l5.576,10.204h-7.662l-2.808-5.387l-4.969,5.387h-8.156l10.28-10.546
				l-5.425-10.014h7.549l2.731,5.234l4.894-5.234h7.928L499.016,258.288z"/>
			<path style="fill:#263238;" d="M506.488,264.889c0-2.77,2.087-4.59,4.628-4.59c2.428,0,4.059,1.593,4.059,3.945
				c0,2.768-2.124,4.59-4.59,4.59C508.195,268.834,506.488,267.164,506.488,264.889z"/>
		</g>
		<g>
			<path style="fill:#263238;" d="M458.823,288.351h8.289l-0.402,2.061h-11.912l0.332-1.61l8.075-6.465
				c2.226-1.8,2.889-2.89,2.889-4.239c0-1.444-1.019-2.392-3.244-2.392c-1.61,0-3.173,0.663-4.286,1.847l-1.587-1.373
				c1.374-1.54,3.647-2.534,6.204-2.534c3.363,0,5.281,1.705,5.281,4.145c0,1.918-0.828,3.576-3.67,5.825L458.823,288.351z"/>
			<path style="fill:#263238;" d="M474.955,275.895l-1.373,4.547h1.61c4.238,0,6.157,1.752,6.157,4.428
				c0,3.434-2.818,5.731-7.058,5.731c-2.51,0-4.642-0.781-5.802-2.084l1.255-1.823c0.9,1.042,2.605,1.8,4.713,1.8
				c2.865,0,4.523-1.255,4.523-3.363c0-1.634-1.185-2.628-4.216-2.628h-4.025l2.581-8.668h9.354l-0.403,2.061H474.955z"/>
			<path style="fill:#263238;" d="M483.673,284.515c0-5.755,3.244-10.87,8.383-10.87c3.481,0,5.589,2.25,5.589,6.086
				c0,5.755-3.268,10.87-8.359,10.87C485.781,290.601,483.673,288.351,483.673,284.515z M495.277,279.779
				c0-2.629-1.278-4.026-3.41-4.026c-3.741,0-5.825,4.855-5.825,8.715c0,2.629,1.278,4.026,3.434,4.026
				C493.193,288.493,495.277,283.639,495.277,279.779z"/>
		</g>
		<g>
			<g>
				<polygon style="fill:#E8505B;" points="613.938,453.517 618.188,460.384 629.015,447.877 623.312,441.835 				"/>
			</g>
			<g>
				<g>
					<path style="fill:#263238;" d="M628.054,446.597c0.054,0.046-0.496,0.788-1.456,1.928c-0.958,1.141-2.332,2.673-3.88,4.332
						c-1.488,1.573-2.836,2.997-3.992,4.22c-1.03,1.072-1.681,1.724-1.737,1.675c-0.053-0.046,0.5-0.786,1.461-1.923
						c0.961-1.139,2.336-2.669,3.884-4.329c1.486-1.574,2.832-2.999,3.988-4.223C627.35,447.204,627.998,446.549,628.054,446.597z"
						/>
				</g>
			</g>
			<g>
				<g>
					<path style="fill:#263238;" d="M618.094,447.245c0.102-0.103,1.291,0.91,2.656,2.263c1.365,1.353,2.389,2.533,2.287,2.636
						c-0.102,0.103-1.291-0.91-2.657-2.263C619.016,448.528,617.992,447.348,618.094,447.245z"/>
				</g>
			</g>
			<g style="opacity:0.6;">
				<polyline style="fill:#FFFFFF;" points="618.188,460.384 629.015,447.877 627.936,446.733 616.891,458.867 618.046,460.262 				
					"/>
			</g>
		</g>
		<g>
			<g>
				<g>
					<g>
						<g>
							<g>
								<path style="fill:#E8505B;" d="M528.575,469.906l0.028-1.688l17.089,0.133l-0.03,5.563l-1.055,0.057
									c-4.697,0.215-23.897,0.788-27.026-0.115C514.091,472.849,528.575,469.906,528.575,469.906z"/>
							</g>
						</g>
					</g>
					<g style="opacity:0.6;">
						<g>
							<g>
								<path style="fill:#FFFFFF;" d="M539.495,473.754c0.255-1.32,1.058-2.544,2.204-3.36c1.146-0.816,2.552-1.242,3.988-1.127
									l-0.041,4.421L539.495,473.754z"/>
							</g>
						</g>
					</g>
				</g>
				<g style="opacity:0.6;">
					<g>
						<g>
							<path style="fill:#FFFFFF;" d="M521.496,471.578c0,0-5.08,1.33-4.455,2.109c0.624,0.779,20.048,0.88,28.622,0.227
								l-0.024-0.354l-22.658,0.063C522.981,473.623,522.486,471.622,521.496,471.578z"/>
						</g>
					</g>
				</g>
				<g>
					<g>
						<g>
							<g>
								<path style="fill:#263238;" d="M545.906,473.552c0,0.007-0.101,0.016-0.293,0.028c-0.252,0.013-0.528,0.027-0.84,0.043
									c-0.84,0.029-1.874,0.065-3.093,0.108c-2.612,0.074-6.223,0.131-10.21,0.114c-3.989-0.018-7.599-0.108-10.209-0.205
									c-1.219-0.053-2.251-0.099-3.091-0.135c-0.312-0.019-0.588-0.035-0.84-0.05c-0.192-0.013-0.292-0.024-0.292-0.031
									c0-0.007,0.101-0.009,0.294-0.008c0.253,0.004,0.529,0.009,0.841,0.014c0.84,0.02,1.873,0.045,3.092,0.074
									c2.611,0.063,6.219,0.131,10.206,0.149c3.985,0.017,7.594-0.019,10.206-0.058c1.22-0.019,2.253-0.034,3.094-0.047
									c0.312-0.003,0.589-0.005,0.841-0.007C545.805,473.542,545.906,473.546,545.906,473.552z"/>
							</g>
						</g>
					</g>
				</g>
				<g>
					<g>
						<g>
							<g>
								<path style="fill:#263238;" d="M522.983,473.869c-0.063,0.007-0.105-0.68-0.565-1.375c-0.447-0.703-1.08-1.057-1.044-1.106
									c0.013-0.047,0.739,0.254,1.221,1.007C523.085,473.141,523.034,473.881,522.983,473.869z"/>
							</g>
						</g>
					</g>
				</g>
				<g>
					<g>
						<g>
							<g>
								<path style="fill:#263238;" d="M528.024,471.527c-0.048,0.028-0.286-0.245-0.531-0.609
									c-0.245-0.365-0.404-0.683-0.356-0.711c0.048-0.028,0.286,0.245,0.531,0.61C527.914,471.18,528.073,471.499,528.024,471.527
									z"/>
							</g>
						</g>
					</g>
				</g>
				<g>
					<g>
						<g>
							<g>
								<path style="fill:#263238;" d="M529.408,470.857c-0.038,0.039-0.305-0.129-0.596-0.375
									c-0.291-0.246-0.495-0.478-0.457-0.517c0.039-0.039,0.305,0.129,0.596,0.375
									C529.242,470.586,529.447,470.818,529.408,470.857z"/>
							</g>
						</g>
					</g>
				</g>
				<g>
					<g>
						<g>
							<g>
								<path style="fill:#263238;" d="M530.293,469.368c0,0.053-0.398,0.098-0.888,0.101c-0.491,0.003-0.889-0.038-0.889-0.091
									c0-0.053,0.398-0.098,0.888-0.1C529.895,469.275,530.293,469.315,530.293,469.368z"/>
							</g>
						</g>
					</g>
				</g>
				<g>
					<g>
						<g>
							<g>
								<path style="fill:#263238;" d="M530.602,468.317c0.019,0.047-0.416,0.227-0.993,0.263c-0.577,0.039-1.033-0.083-1.022-0.132
									c0.01-0.055,0.46-0.022,1.008-0.059C530.143,468.355,530.584,468.264,530.602,468.317z"/>
							</g>
						</g>
					</g>
				</g>
				<g>
					<g>
						<g>
							<g>
								<path style="fill:#263238;" d="M527.46,470.144c0.001,0.021-0.419,0.067-1.093-0.012c-0.336-0.039-0.734-0.116-1.162-0.245
									c-0.212-0.072-0.435-0.126-0.664-0.259c-0.107-0.068-0.227-0.163-0.267-0.317c-0.044-0.153,0.045-0.323,0.169-0.405
									c1.05-0.498,2.091,0.054,2.474,0.558c0.211,0.257,0.306,0.508,0.35,0.68c0.042,0.174,0.038,0.273,0.026,0.275
									c-0.039,0.013-0.07-0.401-0.49-0.87c-0.207-0.23-0.522-0.454-0.929-0.569c-0.385-0.108-0.934-0.14-1.304,0.076
									c-0.175,0.119-0.109,0.309,0.083,0.417c0.179,0.109,0.411,0.176,0.612,0.247c0.413,0.135,0.797,0.223,1.123,0.278
									C527.044,470.109,527.461,470.113,527.46,470.144z"/>
							</g>
						</g>
					</g>
				</g>
				<g>
					<g>
						<g>
							<g>
								<path style="fill:#263238;" d="M527.177,470.193c-0.016,0.011-0.174-0.249-0.12-0.706c0.029-0.224,0.12-0.49,0.305-0.741
									c0.195-0.225,0.446-0.534,0.915-0.513c0.253,0.031,0.374,0.3,0.333,0.471c-0.022,0.178-0.109,0.33-0.19,0.453
									c-0.165,0.253-0.351,0.458-0.522,0.612c-0.346,0.309-0.617,0.427-0.629,0.408c-0.019-0.025,0.219-0.181,0.524-0.502
									c0.151-0.16,0.316-0.363,0.463-0.607c0.152-0.214,0.258-0.599-0.015-0.647c-0.273-0.026-0.555,0.226-0.724,0.428
									c-0.174,0.219-0.271,0.455-0.315,0.659C527.113,469.921,527.213,470.186,527.177,470.193z"/>
							</g>
						</g>
					</g>
				</g>
				<g>
					<g>
						<g>
							<g>
								<path style="fill:#263238;" d="M545.599,469.223c-0.004,0.036-0.487-0.046-1.257,0.034c-0.762,0.075-1.825,0.36-2.752,1.037
									c-0.927,0.678-1.476,1.571-1.735,2.243c-0.266,0.677-0.295,1.132-0.334,1.128c-0.013-0.001-0.018-0.115,0.003-0.319
									c0.019-0.204,0.075-0.499,0.193-0.852c0.23-0.701,0.779-1.642,1.745-2.35c0.967-0.706,2.08-0.979,2.866-1.021
									c0.396-0.024,0.717-0.004,0.936,0.027C545.483,469.179,545.601,469.211,545.599,469.223z"/>
							</g>
						</g>
					</g>
				</g>
				<g>
					<g>
						<g>
							<g>
								<path style="fill:#263238;" d="M537.369,472.201c0.007,0.05-1.103,0.213-2.486,0.216c-1.383,0.007-2.493-0.149-2.486-0.198
									c0.006-0.055,1.116,0.014,2.486,0.007C536.253,472.223,537.363,472.146,537.369,472.201z"/>
							</g>
						</g>
					</g>
				</g>
				<g>
					<g>
						<g>
							<g>
								<path style="fill:#263238;" d="M540.703,472.214c0.041,0.039-0.093,0.218-0.208,0.455c-0.119,0.235-0.18,0.446-0.238,0.442
									c-0.055-0.001-0.085-0.25,0.051-0.522C540.442,472.316,540.667,472.175,540.703,472.214z"/>
							</g>
						</g>
					</g>
				</g>
				<g>
					<g>
						<g>
							<g>
								<path style="fill:#263238;" d="M541.973,470.766c0.04,0.037-0.071,0.202-0.249,0.366c-0.178,0.165-0.354,0.268-0.394,0.231
									c-0.04-0.037,0.071-0.201,0.249-0.366C541.757,470.832,541.933,470.729,541.973,470.766z"/>
							</g>
						</g>
					</g>
				</g>
				<g>
					<g>
						<g>
							<g>
								<path style="fill:#263238;" d="M543.778,470.111c-0.013,0.053-0.239,0.051-0.489,0.131
									c-0.253,0.075-0.432,0.203-0.476,0.167c-0.045-0.029,0.1-0.254,0.412-0.349
									C543.535,469.963,543.795,470.063,543.778,470.111z"/>
							</g>
						</g>
					</g>
				</g>
				<g>
					<g>
						<g>
							<g>
								<path style="fill:#263238;" d="M545.06,469.805c0.02,0.049-0.078,0.13-0.22,0.18c-0.142,0.05-0.273,0.051-0.293,0.001
									c-0.02-0.049,0.078-0.13,0.22-0.18C544.909,469.756,545.04,469.755,545.06,469.805z"/>
							</g>
						</g>
					</g>
				</g>
			</g>
		</g>
		<g>
			<path style="fill:#FFBE9D;" d="M521.555,247.8l-26.397-26.744l3.353-34.828l0.605-0.692c0.327-0.381,0.699-0.798,1.135-1.255
				c0.503-0.528,1.097-0.964,1.747-1.299c0.789-0.406,1.857-0.904,2.524-0.999c0.825-0.118,1.098-1.161,0.439-1.51
				c-0.66-0.349-2.941-0.079-5.218,1.359c-2.277,1.438-0.896-2.517-0.419-3.966c0.478-1.449,1.743-5.998,1.41-6.486
				c-0.488-0.715-1.367-0.315-1.809,1.142c-0.449,1.476-2.081,5.743-2.84,5.475c-0.747-0.265,1.784-7.613,1.784-7.613
				s0.797-1.49-0.069-1.829c-1.561-0.613-3.673,7.381-3.855,8.146c-0.126,0.533-0.962,0.27-0.795-0.295
				c0.172-0.581,2.697-7.275,1.114-7.914c-1.215-0.49-1.799,6.561-3.099,7.68c-1.3,1.118,0.993-5.315-0.188-5.736
				c-0.44-0.156-0.791-0.213-1.571,3.657c-0.379,1.878-1.203,5.011-1.508,8.076l-0.005-0.002l-8.299,41.614l25.976,34.391
				L521.555,247.8z"/>
		</g>
		<g>
			<path style="fill:#FFBE9D;" d="M535.008,171.238c-1.087,0.626,2.322,6.544,0.842,5.677c-1.479-0.868-3.316-7.701-4.424-7.001
				c-1.443,0.912,2.24,7.046,2.513,7.587c0.265,0.526-0.51,0.934-0.73,0.432c-0.316-0.72-3.825-8.207-5.252-7.324
				c-0.791,0.489,0.26,1.812,0.26,1.812s3.806,6.776,3.118,7.171c-0.698,0.4-3.068-3.507-3.774-4.878
				c-0.697-1.355-1.633-1.591-1.985-0.8c-0.24,0.54,1.819,4.788,2.549,6.128c0.729,1.34,2.796,4.984,0.298,3.977
				c-2.498-1.007-4.791-0.864-5.377-0.403c-0.586,0.462-0.131,1.439,0.702,1.407c0.673-0.026,1.814,0.273,2.662,0.531
				c0.699,0.213,1.362,0.536,1.951,0.965c0.511,0.372,0.952,0.715,1.342,1.032l0.719,0.572l14.26,35.154l-12.956,30.153l20.08,7.475
				l9.026-39.875l-20.689-38.805l-0.005,0.003c-0.848-2.961-2.221-5.895-2.929-7.675
				C535.748,170.887,535.412,171.005,535.008,171.238z"/>
		</g>
		<g>
			<g>
				<path style="fill:#455A64;" d="M579.801,384.873l-13.044-67.1l-18.417,1.583l0.003-0.154l-33.645,3.045
					c0,0-1.576,77.063-2.135,77.063l9.215,70.249l0.002,0.014l26.563-1.212l-10.267-69.927l3.788-56.117
					c0,0,0.301-0.409,0.757-1.028l15.371,57.371l52.33,59.225l17.048-16.487L579.801,384.873z"/>
			</g>
			<g>
				<g>
					<path style="fill:#263238;" d="M538.791,387.828c-0.018-0.001-0.023-0.199-0.015-0.574c0.016-0.433,0.035-0.975,0.06-1.64
						c0.078-1.495,0.185-3.536,0.316-6.026c0.321-5.15,0.757-12.142,1.239-19.868c0.489-7.013,0.935-13.421,1.276-18.318
						l0.005-0.065l0.04-0.047c1.907-2.266,3.472-4.125,4.61-5.477c0.523-0.603,0.948-1.092,1.28-1.476
						c0.298-0.334,0.462-0.503,0.477-0.491c0.015,0.013-0.119,0.206-0.389,0.564c-0.311,0.401-0.709,0.912-1.199,1.543
						c-1.105,1.379-2.624,3.276-4.476,5.587l0.044-0.112c-0.307,4.899-0.709,11.31-1.149,18.326
						c-0.541,7.722-1.03,14.711-1.391,19.858c-0.199,2.486-0.362,4.523-0.481,6.015c-0.064,0.663-0.116,1.203-0.157,1.634
						C538.839,387.634,538.809,387.829,538.791,387.828z"/>
				</g>
			</g>
			<g>
				<g>
					<path style="fill:#263238;" d="M548.342,319.202c0.144,0,0.26,2.873,0.26,6.417c0,3.545-0.117,6.417-0.26,6.417
						c-0.144,0-0.26-2.872-0.26-6.417C548.081,322.075,548.198,319.202,548.342,319.202z"/>
				</g>
			</g>
			<g>
				<g>
					<path style="fill:#263238;" d="M525.657,325.036c-0.018-0.017,0.271-0.062,0.83-0.135c0.64-0.077,1.456-0.175,2.453-0.295
						c2.126-0.246,5.197-0.588,8.881-0.961l0.251-0.026l0.001,0.254c0.009,3.154,0.02,6.79,0.031,10.653l0,0.162l-0.146,0.072
						c-0.06,0.03-0.125,0.062-0.19,0.094c-2.243,1.103-4.401,2.164-6.422,3.157l-0.121,0.059l-0.114-0.068
						c-2.016-1.195-3.886-2.303-5.56-3.295l-0.106-0.063l0.002-0.119c0.044-2.848,0.081-5.219,0.108-6.971
						c0.022-0.76,0.04-1.385,0.054-1.887C525.625,325.239,525.641,325.021,525.657,325.036c0.016,0.014,0.031,0.261,0.048,0.711
						c0.014,0.514,0.032,1.153,0.054,1.931c0.027,1.721,0.064,4.05,0.108,6.848l-0.104-0.181c1.686,0.973,3.569,2.059,5.598,3.23
						l-0.235-0.008c2.018-1.001,4.172-2.07,6.411-3.18c0.065-0.032,0.13-0.064,0.19-0.094l-0.145,0.233
						c0.011-3.863,0.022-7.499,0.031-10.653l0.251,0.228c-3.593,0.321-6.616,0.56-8.764,0.723c-1.021,0.073-1.858,0.132-2.513,0.179
						C526,325.039,525.675,325.052,525.657,325.036z"/>
				</g>
			</g>
			<g>
				<g>
					<path style="fill:#263238;" d="M551.559,322.481c-0.018-0.017,0.271-0.062,0.83-0.135c0.64-0.077,1.456-0.175,2.453-0.295
						c2.126-0.246,5.197-0.588,8.881-0.961l0.251-0.025l0.001,0.254c0.009,3.154,0.02,6.79,0.031,10.653l0,0.162l-0.146,0.072
						c-0.06,0.03-0.125,0.062-0.19,0.094c-2.243,1.103-4.401,2.164-6.422,3.157l-0.121,0.059l-0.114-0.068
						c-2.016-1.195-3.886-2.303-5.56-3.295l-0.106-0.063l0.002-0.119c0.044-2.848,0.081-5.219,0.108-6.971
						c0.022-0.76,0.04-1.385,0.054-1.887C551.527,322.684,551.543,322.466,551.559,322.481c0.016,0.014,0.031,0.261,0.048,0.711
						c0.014,0.514,0.032,1.153,0.054,1.931c0.027,1.721,0.064,4.05,0.108,6.848l-0.104-0.181c1.686,0.973,3.568,2.059,5.598,3.23
						l-0.234-0.008c2.018-1.001,4.172-2.07,6.411-3.18c0.065-0.032,0.13-0.064,0.19-0.094l-0.145,0.233
						c0.011-3.863,0.022-7.499,0.031-10.653l0.251,0.228c-3.593,0.321-6.616,0.561-8.764,0.723
						c-1.021,0.073-1.858,0.132-2.513,0.179C551.902,322.484,551.577,322.497,551.559,322.481z"/>
				</g>
			</g>
			<g>
				<g>
					<path style="fill:#263238;" d="M538.082,326.501c0.007,0.144-2.77,0.389-6.201,0.547c-3.432,0.158-6.219,0.171-6.225,0.027
						c-0.007-0.144,2.769-0.389,6.201-0.547C535.289,326.37,538.076,326.358,538.082,326.501z"/>
				</g>
			</g>
			<g>
				<g>
					<path style="fill:#263238;" d="M563.745,324.14c0.014,0.143-2.707,0.467-6.076,0.723c-3.37,0.256-6.106,0.347-6.112,0.203
						c-0.006-0.144,2.714-0.467,6.077-0.723C560.995,324.088,563.732,323.997,563.745,324.14z"/>
				</g>
			</g>
			<g>
				<g>
					<path style="fill:#263238;" d="M535.971,397.831c0.017,0.143-2.673,0.59-6.008,0.998c-3.337,0.409-6.055,0.624-6.072,0.481
						c-0.017-0.143,2.672-0.589,6.009-0.998C533.235,397.903,535.953,397.688,535.971,397.831z"/>
				</g>
			</g>
			<g>
				<g>
					<path style="fill:#263238;" d="M578.115,386.316c0.052,0.151-2.873,1.173-6.183,3.033c-3.322,1.842-5.727,3.794-5.827,3.671
						c-0.043-0.051,0.505-0.606,1.486-1.394c0.98-0.788,2.408-1.792,4.087-2.731c1.68-0.936,3.284-1.624,4.47-2.045
						C577.334,386.428,578.094,386.253,578.115,386.316z"/>
				</g>
			</g>
		</g>
		<g>
			<g>
				<g>
					<path style="fill:#263238;" d="M521.555,153.982c-0.008,0.003-0.075-0.122-0.198-0.369c-0.13-0.27-0.307-0.636-0.532-1.103
						c-0.238-0.483-0.5-1.095-0.864-1.792c-0.379-0.694-0.813-1.49-1.301-2.383c-0.502-0.889-1.133-1.834-1.781-2.893
						c-0.693-1.03-1.476-2.13-2.339-3.293c-1.773-2.293-3.959-4.775-6.61-7.28c-5.339-4.928-12.716-9.905-21.94-12.773
						c-4.594-1.421-9.617-2.335-14.859-2.41c-5.237-0.098-10.673,0.528-16.051,1.929c-5.364,1.459-10.394,3.62-14.889,6.311
						c-4.512,2.672-8.416,5.964-11.695,9.482c-6.577,7.077-10.501,15.065-12.682,21.996c-1.054,3.492-1.716,6.732-2.113,9.603
						c-0.17,1.438-0.302,2.782-0.391,4.02c-0.036,1.241-0.114,2.375-0.107,3.395c0.021,1.017,0.04,1.923,0.057,2.714
						c0.031,0.785,0.108,1.447,0.142,1.984c0.037,0.517,0.066,0.922,0.087,1.222c0.017,0.276,0.021,0.418,0.012,0.419
						c-0.009,0.001-0.031-0.139-0.065-0.413c-0.034-0.299-0.08-0.702-0.139-1.218c-0.051-0.536-0.144-1.199-0.192-1.985
						c-0.03-0.793-0.065-1.701-0.105-2.721c-0.023-1.024,0.04-2.163,0.062-3.41c0.074-1.244,0.193-2.596,0.35-4.043
						c0.372-2.889,1.012-6.153,2.05-9.674c2.149-6.988,6.067-15.055,12.682-22.214c3.299-3.559,7.234-6.89,11.783-9.593
						c4.533-2.721,9.607-4.905,15.019-6.377c5.425-1.413,10.912-2.042,16.196-1.935c5.289,0.082,10.359,1.015,14.991,2.461
						c9.298,2.92,16.709,7.969,22.049,12.962c2.652,2.538,4.831,5.051,6.591,7.373c0.856,1.177,1.631,2.291,2.315,3.334
						c0.639,1.071,1.26,2.028,1.75,2.928c0.473,0.904,0.895,1.71,1.263,2.413c0.35,0.706,0.598,1.327,0.821,1.818
						c0.206,0.477,0.366,0.85,0.486,1.126C521.512,153.846,521.563,153.978,521.555,153.982z"/>
				</g>
			</g>
			<g>
				<g>
					<path style="fill:#263238;" d="M510.239,151.245c-0.015,0.01-0.176-0.197-0.469-0.6c-0.304-0.395-0.693-1.017-1.283-1.755
						c-1.126-1.512-2.877-3.618-5.297-5.96c-2.414-2.345-5.566-4.866-9.404-7.12c-3.83-2.258-8.375-4.189-13.365-5.392
						c-5.002-1.157-9.933-1.462-14.369-1.156c-4.441,0.3-8.388,1.144-11.596,2.162c-3.212,1.012-5.72,2.113-7.403,2.961
						c-0.857,0.396-1.484,0.778-1.932,0.995c-0.442,0.229-0.679,0.342-0.688,0.326c-0.009-0.015,0.21-0.159,0.636-0.417
						c0.432-0.247,1.045-0.66,1.891-1.085c1.662-0.908,4.161-2.067,7.384-3.132c3.218-1.07,7.192-1.961,11.675-2.29
						c4.477-0.336,9.463-0.042,14.522,1.128c5.046,1.216,9.635,3.183,13.489,5.485c3.862,2.299,7.018,4.873,9.417,7.269
						c2.406,2.394,4.123,4.549,5.204,6.104c0.567,0.759,0.931,1.402,1.207,1.816C510.122,151.009,510.254,151.235,510.239,151.245z"
						/>
				</g>
			</g>
		</g>
		<g>
			<g>
				<g>
					<g>
						<path style="fill:#E8505B;" d="M560.836,268.538l-4.645,24.17c9.687,13.482,10.569,25.044,10.569,25.044l-52.059,4.474
							c0.971-8.164,6.004-25.836,6.004-25.836l-7.558-25.805l-15.146-19.721l15.03-13.546c-0.288,0.762,14.091,9.084,14.091,9.084
							l20.653,0.176c0,0,1.2,0.095,2.969,0.59l10.091-26.156c0,0,7.805,11.479,5.189,25.564
							C564.163,256.604,564.516,258.949,560.836,268.538"/>
					</g>
				</g>
				<g>
					<g>
						<path style="fill:#263238;" d="M523.076,250.175c0.023-0.018,0.317,0.287,0.762,0.909c0.444,0.621,1.029,1.57,1.561,2.838
							c0.518,1.268,0.975,2.87,1.044,4.701c0.083,1.826-0.291,3.869-1.234,5.768c-0.95,1.893-2.389,3.431-3.996,4.339
							c-1.604,0.919-3.278,1.247-4.657,1.252c-1.388-0.006-2.486-0.311-3.19-0.615c-0.352-0.156-0.617-0.29-0.786-0.404
							c-0.172-0.106-0.256-0.169-0.247-0.185c0.032-0.123,1.517,0.915,4.216,0.836c1.323-0.051,2.914-0.405,4.422-1.298
							c1.508-0.882,2.865-2.349,3.773-4.158c0.9-1.816,1.274-3.765,1.22-5.521c-0.04-1.763-0.444-3.326-0.907-4.581
							C524.092,251.543,522.984,250.233,523.076,250.175z"/>
					</g>
				</g>
				<g>
					<g>
						<path style="fill:#263238;" d="M559.048,267.782c-0.084-0.04,0.365-0.983,0.803-2.589c0.443-1.601,0.793-3.896,0.596-6.424
							c-0.208-2.528-0.917-4.739-1.609-6.249c-0.688-1.516-1.281-2.376-1.204-2.428c0.029-0.021,0.2,0.177,0.485,0.557
							c0.292,0.374,0.657,0.959,1.051,1.711c0.793,1.501,1.584,3.765,1.797,6.368c0.203,2.603-0.218,4.964-0.763,6.571
							c-0.269,0.806-0.536,1.441-0.766,1.857C559.217,267.576,559.081,267.798,559.048,267.782z"/>
					</g>
				</g>
				<g style="opacity:0.3;">
					<g>
						<path d="M552.075,291.261c-0.491-0.549-1.364-0.459-2.078-0.28c-1.158,0.289-2.305,0.694-3.499,0.72
							c-2.227,0.047-4.237-1.211-6.293-2.069c-2.056-0.858-4.678-1.239-6.307,0.281c-1.189,1.109-1.423,3.1-0.523,4.455
							c0.494,0.744,1.301,1.236,2.171,1.428l0,0c5.203,1.467,9.675,0.387,14.768-1.652c0.617-0.247,1.251-0.533,1.668-1.051
							C552.398,292.574,552.518,291.757,552.075,291.261z"/>
					</g>
				</g>
			</g>
			<g style="opacity:0.3;">
				<g>
					<path d="M513.866,237.12c-2.134,2.771-3.546,6.248-3.208,9.729c0.338,3.481,2.7,6.862,6.08,7.759
						c2.318,0.615,4.85,0.065,7.122,0.831c4.193,1.415,6.414,6.897,10.821,7.292c3.989,0.357,6.889-3.669,10.608-5.155
						c1.925-0.77,4.046-0.836,6.092-1.173c4.23-0.697,8.392-2.732,10.861-6.237c2.468-3.505,2.869-8.596,0.297-12.026
						c-2.747-3.663-7.844-4.558-12.423-4.56c-6.919-0.003-13.835,1.393-20.211,4.079c-1.377,0.58-2.752,1.235-3.849,2.25
						c-1.097,1.014-1.891,2.448-1.822,3.94"/>
				</g>
			</g>
		</g>
		<g>
			<g>
				<path style="fill:#263238;" d="M573.399,234.355c-0.223-1.826-1.518-3.481-3.237-4.137c-2.009-0.766-4.36-0.217-6.325-1.09
					c-2.448-1.089-3.482-3.963-4.1-6.57c-0.618-2.607-1.211-5.485-3.318-7.14c-1.455-1.143-3.388-1.481-4.962-2.454
					c-2.329-1.438-3.596-4.053-5.187-6.281c-0.596-0.834-1.318-1.648-2.129-2.313c-0.033-0.041-0.06-0.087-0.094-0.128
					c-3.385-4.082-12.416-4.616-16.32-1.027l0.149-0.131c-7.279,0.546-11.896,12.304-11.973,19.755
					c-0.047,4.636,1.45,9.489-0.306,13.78c-1.021,2.496-3.061,4.514-3.842,7.096c-1.062,3.512,0.714,7.662,3.989,9.318
					c3.274,1.656,7.67,0.628,9.87-2.308c-0.115,1.889,1.444,3.554,3.224,4.197c1.78,0.643,3.735,0.497,5.621,0.343
					c4.04-0.331,8.699-1.028,10.771-4.511c1.392,2.084,4.123,2.939,6.622,2.753c2.499-0.186,4.838-0.417,7.119-1.453
					c-0.1-0.13-0.186-0.268-0.262-0.412c0.371-0.143,0.734-0.306,1.077-0.517c1.919-1.178,3.108-3.717,2.213-5.783
					c0.725,0.842,1.451,1.683,2.176,2.525c3.774-1.994,5.481-7.153,3.642-11.005c1.281,0.524,2.456,1.307,3.433,2.286
					C572.763,238.099,573.622,236.181,573.399,234.355z"/>
			</g>
			<g>
				<g>
					<path style="fill:#455A64;" d="M572.479,237.446c-0.078,0.021,0.335-0.954-0.471-2.356c-0.398-0.673-1.093-1.397-2.105-1.866
						c-1.013-0.482-2.289-0.712-3.712-0.863c-1.414-0.168-3.041-0.258-4.645-0.981c-0.798-0.356-1.544-0.933-2.117-1.673
						c-0.577-0.738-0.988-1.617-1.286-2.536c-0.626-1.84-0.761-3.868-1.375-5.801c-0.306-0.965-0.723-1.922-1.353-2.73
						c-0.626-0.807-1.495-1.425-2.519-1.657c-1.023-0.254-2.12-0.232-3.204-0.447c-1.099-0.19-2.124-0.777-2.86-1.556
						c-1.516-1.567-2.125-3.588-2.788-5.337c-0.629-1.784-1.511-3.341-2.696-4.516c-1.159-1.189-2.511-2.013-3.826-2.522
						c-2.666-1.015-5.084-0.739-6.602-0.349c-1.545,0.408-2.312,0.891-2.337,0.838c-0.008-0.014,0.178-0.139,0.553-0.34
						c0.376-0.199,0.952-0.459,1.729-0.693c1.529-0.457,4.004-0.807,6.785,0.199c1.37,0.504,2.784,1.34,4.003,2.563
						c1.243,1.199,2.194,2.853,2.838,4.65c0.679,1.769,1.292,3.708,2.704,5.151c0.693,0.719,1.58,1.227,2.596,1.404
						c1.013,0.203,2.114,0.178,3.229,0.45c1.129,0.253,2.128,0.963,2.802,1.843c0.685,0.883,1.116,1.894,1.431,2.895
						c0.63,2.02,0.75,4.032,1.345,5.807c0.535,1.78,1.61,3.306,3.13,3.967c1.494,0.696,3.086,0.817,4.506,1.006
						c1.428,0.175,2.746,0.436,3.794,0.967c1.057,0.522,1.766,1.308,2.155,2.028c0.394,0.729,0.466,1.393,0.437,1.819
						C572.584,237.24,572.479,237.446,572.479,237.446z"/>
				</g>
			</g>
			<g>
				<g>
					<path style="fill:#455A64;" d="M559.699,251.857c-0.012-0.03,0.211-0.085,0.553-0.325c0.337-0.235,0.773-0.71,1.011-1.462
						c0.237-0.737,0.292-1.77-0.175-2.775c-0.48-1.009-1.43-1.924-2.643-2.663c-1.204-0.763-2.686-1.336-4.149-2.26
						c-0.726-0.464-1.447-1.032-2.023-1.778c-0.575-0.745-0.983-1.636-1.242-2.577c-0.536-1.887-0.51-3.938-0.767-5.965
						c-0.255-1.995-0.876-4.195-2.651-5.417c-1.724-1.22-4.042-1.587-5.589-3.2c-1.521-1.582-2.099-3.661-2.43-5.537
						c-0.318-1.899-0.445-3.708-0.874-5.328c-0.415-1.619-1.168-3.011-2.005-4.158c-1.725-2.288-3.79-3.511-5.242-4.146
						c-1.481-0.617-2.378-0.739-2.364-0.796c0.003-0.018,0.224,0.012,0.646,0.086c0.42,0.078,1.032,0.239,1.795,0.522
						c1.5,0.589,3.645,1.786,5.459,4.111c0.88,1.165,1.681,2.596,2.129,4.269c0.459,1.666,0.603,3.495,0.929,5.356
						c0.333,1.835,0.916,3.818,2.321,5.263c1.393,1.474,3.642,1.83,5.528,3.134c0.947,0.66,1.652,1.622,2.072,2.644
						c0.432,1.023,0.65,2.09,0.782,3.132c0.254,2.089,0.22,4.094,0.724,5.903c0.24,0.9,0.617,1.732,1.142,2.426
						c0.525,0.695,1.198,1.239,1.894,1.694c1.4,0.909,2.884,1.508,4.111,2.312c1.233,0.778,2.225,1.763,2.71,2.852
						c0.48,1.106,0.382,2.192,0.103,2.964c-0.282,0.786-0.773,1.268-1.145,1.484C559.933,251.84,559.699,251.857,559.699,251.857z"
						/>
				</g>
			</g>
			<g>
				<g>
					<path style="fill:#455A64;" d="M535.548,254.05c-0.07-0.026,0.625-0.577,0.659-1.954c0.019-0.671-0.134-1.502-0.515-2.382
						c-0.378-0.885-0.992-1.816-1.519-2.952c-0.544-1.118-0.814-2.601-0.422-4.051c0.352-1.455,1.127-2.833,1.84-4.281
						c0.722-1.441,1.355-3.025,1.305-4.76c-0.014-1.727-0.628-3.468-1.743-4.932c-1.099-1.483-2.464-2.733-3.538-4.186
						c-0.536-0.725-0.988-1.509-1.294-2.336c-0.304-0.827-0.451-1.681-0.509-2.509c-0.109-1.662,0.125-3.222,0.361-4.651
						c0.242-1.43,0.484-2.75,0.571-3.966c0.22-2.434-0.353-4.399-1.064-5.55c-0.705-1.169-1.4-1.569-1.353-1.617
						c0.007-0.011,0.178,0.08,0.462,0.311c0.285,0.229,0.679,0.612,1.062,1.198c0.789,1.15,1.439,3.185,1.26,5.681
						c-0.065,1.244-0.29,2.585-0.512,4.011c-0.218,1.424-0.427,2.954-0.309,4.548c0.063,0.793,0.208,1.599,0.498,2.372
						c0.291,0.771,0.718,1.507,1.238,2.204c1.038,1.399,2.404,2.643,3.547,4.181c1.166,1.526,1.832,3.408,1.834,5.234
						c0.047,1.845-0.647,3.54-1.386,4.98c-0.735,1.458-1.502,2.801-1.851,4.171c-0.381,1.368-0.161,2.701,0.34,3.799
						c0.487,1.108,1.084,2.062,1.451,2.989c0.37,0.927,0.5,1.798,0.448,2.502c-0.047,0.707-0.274,1.229-0.484,1.531
						C535.717,253.945,535.548,254.05,535.548,254.05z"/>
				</g>
			</g>
			<g>
				<g>
					<path style="fill:#455A64;" d="M518.03,253.23c0,0-0.156-0.132-0.292-0.484c-0.138-0.347-0.2-0.935,0.022-1.619
						c0.201-0.688,0.737-1.439,1.521-2.061c0.762-0.648,1.761-1.203,2.559-2.111c0.804-0.898,1.427-2.127,1.645-3.528
						c0.251-1.413-0.103-2.916-0.711-4.431c-0.569-1.499-1.317-3.221-1.052-5.102c0.22-1.854,1.112-3.551,1.896-5.255
						c0.801-1.7,1.444-3.438,1.343-5.182c-0.078-1.743-0.644-3.382-1.08-4.966c-0.959-3.172-1.004-6.304-0.242-8.718
						c0.739-2.436,2.163-4.042,3.261-4.893c0.554-0.433,1.033-0.7,1.364-0.86c0.335-0.154,0.518-0.216,0.524-0.201
						c0.027,0.05-0.708,0.328-1.76,1.218c-1.034,0.879-2.368,2.474-3.036,4.84c-0.69,2.352-0.615,5.372,0.351,8.483
						c0.443,1.568,1.036,3.229,1.128,5.075c0.116,1.865-0.574,3.717-1.38,5.423c-0.795,1.719-1.655,3.372-1.862,5.097
						c-0.255,1.729,0.425,3.341,0.995,4.874c0.284,0.773,0.552,1.548,0.683,2.341c0.142,0.792,0.124,1.584,0.005,2.326
						c-0.251,1.487-0.931,2.774-1.798,3.707c-0.874,0.951-1.896,1.481-2.649,2.09c-0.779,0.586-1.289,1.257-1.513,1.9
						c-0.237,0.635-0.212,1.182-0.113,1.521C517.935,253.057,518.052,253.216,518.03,253.23z"/>
				</g>
			</g>
		</g>
	</g>
</g>
<g id="Plants">
	<g>
		<g>
			<g>
				<g>
					<g>
						<g>
							<path style="fill:#263238;" d="M104.997,446.879c-0.009-0.005,0.053-0.155,0.184-0.442c0.146-0.312,0.343-0.731,0.593-1.264
								c0.504-1.117,1.158-2.808,1.742-5.059c1.152-4.498,1.555-11.374-0.149-19.539c-0.791-4.089-2.067-8.474-3.624-13.124
								c-1.534-4.658-3.316-9.6-4.771-14.942c-1.439-5.329-2.575-11.116-2.356-17.18c0.221-6.077,2.02-12.143,3.998-18.18
								c1.974-6.048,4.016-11.959,4.628-17.905c0.692-5.935-0.578-11.762-3.283-16.536c-2.619-4.825-5.914-8.951-8.38-13.226
								c-2.504-4.26-4.071-8.641-5.036-12.715c-1.872-8.215-1.216-15.136-0.319-19.698c0.972-4.586,2.055-6.957,2.055-6.957
								c0.01,0.004-0.031,0.16-0.122,0.462c-0.103,0.329-0.241,0.771-0.416,1.333c-0.362,1.172-0.832,2.922-1.278,5.207
								c-0.819,4.552-1.398,11.426,0.511,19.551c0.985,4.029,2.558,8.352,5.053,12.553c2.46,4.224,5.769,8.333,8.44,13.215
								c2.761,4.827,4.088,10.843,3.385,16.872c-0.616,6.047-2.673,11.997-4.643,18.037c-1.978,6.033-3.756,12.035-3.981,18.01
								c-0.224,5.972,0.883,11.702,2.3,17.006c1.431,5.316,3.192,10.259,4.707,14.93c1.538,4.664,2.798,9.085,3.565,13.202
								c1.659,8.226,1.186,15.17-0.05,19.684c-0.625,2.26-1.321,3.948-1.864,5.052c-0.275,0.524-0.49,0.934-0.651,1.241
								C105.088,446.745,105.007,446.884,104.997,446.879z"/>
						</g>
					</g>
				</g>
			</g>
			<g>
				<g>
					<g>
						<g>
							<path style="fill:#E8505B;" d="M96.93,313.697c0,0-5.007-16.011,3.975-25.386c0.315-0.329,0.87-0.173,0.952,0.275
								C102.337,291.23,102.936,299.284,96.93,313.697z"/>
						</g>
					</g>
				</g>
				<g>
					<g>
						<g>
							<g>
								<path style="fill:#263238;" d="M99.93,293.646c0.085,0.017-0.058,1.143-0.337,2.954c-0.329,2.035-0.715,4.423-1.142,7.062
									c-0.419,2.639-0.798,5.027-1.121,7.062c-0.274,1.808-0.439,2.93-0.53,2.922c-0.081-0.006-0.073-1.146,0.09-2.976
									c0.166-1.829,0.488-4.346,0.942-7.109c0.452-2.762,0.934-5.25,1.325-7.042C99.548,294.727,99.845,293.629,99.93,293.646z"/>
							</g>
						</g>
					</g>
				</g>
			</g>
			<g>
				<g>
					<g>
						<g>
							<path style="fill:#E8505B;" d="M102.812,351.461c0,0,3.062-16.494,15.385-20.58c0.433-0.143,0.851,0.254,0.713,0.688
								C118.098,334.13,114.861,341.529,102.812,351.461z"/>
						</g>
					</g>
				</g>
				<g>
					<g>
						<g>
							<g>
								<path style="fill:#263238;" d="M114.841,335.14c0.067,0.055-0.586,0.983-1.679,2.453c-1.243,1.645-2.701,3.575-4.312,5.708
									c-1.605,2.137-3.057,4.071-4.293,5.718c-1.088,1.47-1.758,2.384-1.835,2.335c-0.069-0.043,0.471-1.047,1.471-2.589
									c1.002-1.54,2.464-3.613,4.157-5.843c1.691-2.23,3.281-4.204,4.465-5.605C113.997,335.916,114.774,335.086,114.841,335.14z"
									/>
							</g>
						</g>
					</g>
				</g>
			</g>
			<g>
				<g>
					<g>
						<g>
							<path style="fill:#E8505B;" d="M99.482,392.84c0,0-1.86-16.673,8.745-24.162c0.372-0.263,0.888-0.004,0.882,0.452
								C109.075,371.816,108.127,379.837,99.482,392.84z"/>
						</g>
					</g>
				</g>
				<g>
					<g>
						<g>
							<g>
								<path style="fill:#263238;" d="M106.252,373.729c0.08,0.033-0.275,1.111-0.895,2.835c-0.711,1.935-1.546,4.206-2.469,6.715
									c-0.915,2.511-1.743,4.783-2.448,6.718c-0.614,1.723-0.989,2.792-1.078,2.767c-0.078-0.021,0.147-1.138,0.656-2.904
									c0.512-1.764,1.309-4.173,2.281-6.799c0.97-2.625,1.918-4.975,2.645-6.66C105.671,374.717,106.172,373.696,106.252,373.729z
									"/>
							</g>
						</g>
					</g>
				</g>
			</g>
			<g>
				<g>
					<g>
						<g>
							<path style="fill:#E8505B;" d="M108.765,434.461c0,0-1.262-16.729,9.604-23.833c0.382-0.249,0.887,0.028,0.865,0.483
								C119.105,413.794,117.87,421.776,108.765,434.461z"/>
						</g>
					</g>
				</g>
				<g>
					<g>
						<g>
							<g>
								<path style="fill:#263238;" d="M116.215,415.605c0.079,0.036-0.315,1.1-0.995,2.801c-0.78,1.908-1.696,4.148-2.707,6.622
									c-1.004,2.477-1.913,4.717-2.687,6.626c-0.675,1.7-1.089,2.755-1.176,2.727c-0.077-0.024,0.188-1.132,0.76-2.879
									c0.574-1.745,1.457-4.124,2.523-6.713c1.064-2.589,2.095-4.904,2.881-6.561
									C115.599,416.571,116.136,415.569,116.215,415.605z"/>
							</g>
						</g>
					</g>
				</g>
			</g>
			<g>
				<g>
					<g>
						<g>
							<path style="fill:#E8505B;" d="M89.735,299.63c0,0-14.87-7.766-15.162-20.746c-0.01-0.456,0.492-0.739,0.867-0.479
								C77.65,279.933,83.774,285.198,89.735,299.63z"/>
						</g>
					</g>
				</g>
				<g>
					<g>
						<g>
							<g>
								<path style="fill:#263238;" d="M77.66,283.343c0.072-0.048,0.768,0.849,1.853,2.325c1.208,1.67,2.626,3.631,4.192,5.797
									c1.572,2.161,2.995,4.116,4.207,5.782c1.086,1.471,1.764,2.38,1.694,2.44c-0.062,0.053-0.862-0.758-2.043-2.166
									c-1.178-1.409-2.732-3.416-4.367-5.689c-1.636-2.271-3.057-4.369-4.049-5.912C78.155,284.377,77.588,283.391,77.66,283.343z
									"/>
							</g>
						</g>
					</g>
				</g>
			</g>
			<g>
				<g>
					<g>
						<g>
							<path style="fill:#E8505B;" d="M105.702,334.016c0,0-15.314-6.848-16.394-19.786c-0.038-0.454,0.446-0.767,0.836-0.531
								C92.444,315.089,98.877,319.972,105.702,334.016z"/>
						</g>
					</g>
				</g>
				<g>
					<g>
						<g>
							<g>
								<path style="fill:#263238;" d="M92.661,318.492c0.069-0.053,0.818,0.801,1.991,2.208c1.307,1.594,2.841,3.465,4.536,5.532
									c1.701,2.061,3.239,3.927,4.55,5.516c1.174,1.403,1.905,2.268,1.839,2.332c-0.058,0.057-0.907-0.704-2.171-2.038
									c-1.261-1.335-2.934-3.243-4.704-5.413c-1.771-2.168-3.316-4.176-4.4-5.656C93.218,319.494,92.593,318.545,92.661,318.492z"
									/>
							</g>
						</g>
					</g>
				</g>
			</g>
			<g>
				<g>
					<g>
						<g>
							<path style="fill:#E8505B;" d="M96.891,372.371c0,0-10.515-13.072-5.583-25.082c0.173-0.422,0.747-0.48,0.986-0.092
								C93.707,349.483,97.21,356.76,96.891,372.371z"/>
						</g>
					</g>
				</g>
				<g>
					<g>
						<g>
							<g>
								<path style="fill:#263238;" d="M92.351,352.612c0.086-0.015,0.364,1.085,0.766,2.873c0.438,2.014,0.951,4.378,1.519,6.991
									c0.575,2.61,1.096,4.971,1.539,6.983c0.406,1.783,0.663,2.887,0.575,2.914c-0.078,0.024-0.487-1.04-1.005-2.803
									c-0.515-1.763-1.135-4.224-1.723-6.961c-0.59-2.736-1.051-5.228-1.342-7.039C92.39,353.758,92.266,352.627,92.351,352.612z"
									/>
							</g>
						</g>
					</g>
				</g>
			</g>
			<g>
				<g>
					<g>
						<g>
							<path style="fill:#E8505B;" d="M107.306,417.508c0,0-15.197-7.105-16.059-20.059c-0.03-0.455,0.459-0.759,0.845-0.517
								C94.368,398.361,100.717,403.352,107.306,417.508z"/>
						</g>
					</g>
				</g>
				<g>
					<g>
						<g>
							<g>
								<path style="fill:#263238;" d="M94.528,401.767c0.07-0.051,0.805,0.814,1.953,2.242c1.28,1.616,2.783,3.512,4.443,5.607
									c1.666,2.09,3.173,3.98,4.457,5.591c1.15,1.422,1.867,2.3,1.8,2.363c-0.059,0.056-0.895-0.719-2.136-2.074
									c-1.239-1.356-2.879-3.292-4.612-5.491c-1.735-2.197-3.246-4.231-4.305-5.729C95.068,402.779,94.458,401.819,94.528,401.767
									z"/>
							</g>
						</g>
					</g>
				</g>
			</g>
			<g>
				<g>
					<g>
						<g>
							<g>
								<path style="fill:#263238;" d="M137.577,351.55c0.014,0.001,0.021,0.127,0.019,0.37c-0.007,0.292-0.016,0.645-0.027,1.073
									c-0.045,1.008-0.105,2.369-0.18,4.068c-0.196,3.576-0.469,8.562-0.796,14.527l-0.001,0.014l-0.004,0.02
									c-1.085,6.071-4.176,12.799-8.329,19.331c-3.046,4.812-6.239,9.187-8.993,13.256c-2.772,4.057-5.112,7.815-6.743,11.146
									c-1.642,3.326-2.596,6.183-3.154,8.179c-0.267,1.002-0.468,1.783-0.583,2.318c-0.125,0.533-0.201,0.811-0.222,0.808
									c-0.021-0.004,0.013-0.29,0.098-0.832c0.076-0.544,0.239-1.338,0.471-2.355c0.488-2.027,1.387-4.933,2.992-8.311
									c1.593-3.384,3.911-7.192,6.663-11.276c2.735-4.098,5.911-8.48,8.942-13.267c4.131-6.5,7.206-13.126,8.332-19.099
									l-0.004,0.034c0.419-5.959,0.769-10.94,1.02-14.513c0.137-1.695,0.247-3.053,0.328-4.058
									c0.043-0.426,0.078-0.777,0.107-1.067C137.541,351.674,137.563,351.55,137.577,351.55z"/>
							</g>
						</g>
					</g>
				</g>
				<g>
					<g>
						<g>
							<g>
								<path style="fill:#E8505B;" d="M128.528,389.704c0,0,6.436-15.492-1.66-25.642c-0.284-0.356-0.851-0.251-0.973,0.188
									C125.178,366.84,123.852,374.806,128.528,389.704z"/>
							</g>
						</g>
					</g>
					<g>
						<g>
							<g>
								<g>
									<path style="fill:#263238;" d="M127.356,369.464c0.086-0.009,0.283,1.111,0.51,2.931c0.228,1.82,0.483,4.341,0.682,7.133
										c0.202,2.793,0.295,5.328,0.294,7.165c-0.004,1.838-0.099,2.973-0.18,2.972c-0.092-0.001-0.154-1.133-0.263-2.958
										c-0.137-2.055-0.299-4.468-0.477-7.134c-0.186-2.667-0.354-5.08-0.498-7.136
										C127.31,370.607,127.27,369.473,127.356,369.464z"/>
								</g>
							</g>
						</g>
					</g>
					<g style="opacity:0.3;">
						<g>
							<g>
								<path d="M128.528,389.704c0,0,6.436-15.492-1.66-25.642c-0.284-0.356-0.851-0.251-0.973,0.188
									C125.178,366.84,123.852,374.806,128.528,389.704z"/>
							</g>
						</g>
					</g>
				</g>
				<g>
					<g>
						<g>
							<g>
								<path style="fill:#E8505B;" d="M108.593,427.037c0,0,5.159-15.963-3.734-25.423c-0.312-0.332-0.869-0.182-0.954,0.266
									C103.4,404.52,102.725,412.567,108.593,427.037z"/>
							</g>
						</g>
					</g>
					<g>
						<g>
							<g>
								<g>
									<path style="fill:#263238;" d="M105.783,406.959c0.085-0.016,0.372,1.084,0.746,2.88c0.375,1.796,0.833,4.288,1.258,7.054
										c0.428,2.767,0.726,5.287,0.874,7.118c0.145,1.832,0.143,2.971,0.061,2.977c-0.092,0.006-0.245-1.116-0.502-2.927
										c-0.303-2.037-0.66-4.429-1.054-7.072c-0.402-2.643-0.765-5.035-1.075-7.073
										C105.831,408.102,105.698,406.975,105.783,406.959z"/>
								</g>
							</g>
						</g>
					</g>
					<g style="opacity:0.3;">
						<g>
							<g>
								<path d="M108.593,427.037c0,0,5.159-15.963-3.734-25.423c-0.312-0.332-0.869-0.182-0.954,0.266
									C103.4,404.52,102.725,412.567,108.593,427.037z"/>
							</g>
						</g>
					</g>
				</g>
				<g>
					<g>
						<g>
							<g>
								<path style="fill:#E8505B;" d="M136.725,370.771c0,0,13.743-9.621,12.356-22.529c-0.049-0.453-0.583-0.669-0.922-0.364
									C146.165,349.678,140.772,355.69,136.725,370.771z"/>
							</g>
						</g>
					</g>
					<g style="opacity:0.3;">
						<g>
							<g>
								<path d="M136.725,370.771c0,0,13.743-9.621,12.356-22.529c-0.049-0.453-0.583-0.669-0.922-0.364
									C146.165,349.678,140.772,355.69,136.725,370.771z"/>
							</g>
						</g>
					</g>
					<g>
						<g>
							<g>
								<g>
									<path style="fill:#263238;" d="M146.595,353.061c0.078,0.039-0.357,1.089-1.142,2.747
										c-0.784,1.658-1.922,3.923-3.251,6.386c-1.328,2.465-2.609,4.655-3.596,6.205c-0.989,1.549-1.678,2.456-1.746,2.411
										c-0.077-0.05,0.478-1.038,1.365-2.638c0.987-1.808,2.145-3.931,3.425-6.276c1.274-2.35,2.426-4.478,3.408-6.29
										C145.943,354.002,146.517,353.023,146.595,353.061z"/>
								</g>
							</g>
						</g>
					</g>
				</g>
				<g>
					<g>
						<g>
							<g>
								<path style="fill:#E8505B;" d="M114.134,411.211c0,0,16.576-2.584,21.016-14.784c0.156-0.428-0.229-0.858-0.667-0.732
									C131.9,396.433,124.41,399.455,114.134,411.211z"/>
							</g>
						</g>
					</g>
					<g style="opacity:0.3;">
						<g>
							<g>
								<path d="M114.134,411.211c0,0,16.576-2.584,21.016-14.784c0.156-0.428-0.229-0.858-0.667-0.732
									C131.9,396.433,124.41,399.455,114.134,411.211z"/>
							</g>
						</g>
					</g>
					<g>
						<g>
							<g>
								<g>
									<path style="fill:#263238;" d="M130.796,399.659c0.053,0.069-0.8,0.821-2.235,1.963c-1.434,1.144-3.453,2.675-5.731,4.301
										c-2.278,1.628-4.393,3.03-5.961,3.987c-1.57,0.955-2.589,1.466-2.63,1.396c-0.047-0.079,0.886-0.722,2.387-1.767
										c1.682-1.189,3.657-2.584,5.839-4.126c2.179-1.549,4.151-2.951,5.83-4.146
										C129.796,400.217,130.743,399.591,130.796,399.659z"/>
								</g>
							</g>
						</g>
					</g>
				</g>
			</g>
		</g>
		<g>
			<g>
				<g>
					<polygon style="fill:#455A64;" points="98.322,441.716 93.487,474.26 123.619,474.26 119.713,441.716 					"/>
				</g>
			</g>
		</g>
		<g>
			<g>
				<g>
					<g>
						<path style="fill:#263238;" d="M120.917,451.8c0,0.173-5.441,0.314-12.15,0.314c-6.712,0-12.151-0.141-12.151-0.314
							c0-0.173,5.439-0.314,12.151-0.314C115.476,451.487,120.917,451.627,120.917,451.8z"/>
					</g>
				</g>
			</g>
		</g>
		<g>
			<g>
				<g>
					<g>
						<path style="fill:#263238;" d="M121.515,454.39c0,0.173-5.619,0.314-12.549,0.314c-6.932,0-12.549-0.141-12.549-0.314
							c0-0.173,5.618-0.314,12.549-0.314C115.896,454.076,121.515,454.217,121.515,454.39z"/>
					</g>
				</g>
			</g>
		</g>
	</g>
	<g>
		<g>
			<g>
				<path style="fill:#E8505B;" d="M658.04,430.7c-2.149,0.525-3.938,2.123-5.028,4.048c-1.09,1.926-1.54,4.156-1.666,6.365
					c-0.243,4.274,1.415,8.915,3.406,12.705c4.059-2.477,5.792-7.713,6.504-10.425C662.382,439.109,661.814,430.679,658.04,430.7"/>
			</g>
		</g>
		<g>
			<g>
				<path style="fill:#E8505B;" d="M649.462,460.036c0.971-2.273,0.43-5.042-1.111-6.974c-1.541-1.932-3.965-3.053-6.427-3.284
					c-1.138-0.107-2.408,0.013-3.209,0.828c-0.749,0.762-0.889,1.98-0.561,2.997c0.328,1.017,1.053,1.859,1.849,2.572
					C642.734,458.619,645.825,460.482,649.462,460.036"/>
			</g>
		</g>
		<g>
			<g>
				<g>
					<path style="fill:#263238;" d="M651.788,473.668c0.022-0.001,0.026-0.315,0.021-0.882c-0.007-0.625-0.017-1.432-0.028-2.402
						c-0.057-2.012-0.081-4.886-1.129-7.85c-1.029-2.954-2.777-5.3-4.366-6.587c-0.787-0.655-1.499-1.087-2.012-1.336
						c-0.251-0.135-0.463-0.207-0.6-0.267c-0.139-0.055-0.214-0.079-0.219-0.07c-0.037,0.064,1.173,0.503,2.687,1.838
						c1.523,1.306,3.204,3.62,4.217,6.524c1.029,2.904,1.09,5.743,1.202,7.755c0.047,1.012,0.085,1.833,0.127,2.399
						C651.73,473.357,651.767,473.67,651.788,473.668z"/>
				</g>
			</g>
		</g>
		<g>
			<g>
				<g>
					<path style="fill:#263238;" d="M657.905,437.158c-0.01-0.002-0.047,0.125-0.108,0.369c-0.064,0.276-0.147,0.631-0.249,1.07
						c-0.211,0.93-0.499,2.28-0.841,3.951c-0.684,3.341-1.565,7.97-2.422,13.103c-0.856,5.135-1.526,9.8-1.963,13.182
						c-0.219,1.691-0.385,3.061-0.487,4.009c-0.046,0.448-0.083,0.81-0.112,1.093c-0.022,0.25-0.029,0.382-0.018,0.384
						c0.011,0.001,0.038-0.128,0.08-0.376c0.044-0.28,0.1-0.64,0.169-1.085c0.144-0.982,0.342-2.337,0.585-3.995
						c0.493-3.373,1.197-8.029,2.052-13.161c0.857-5.129,1.703-9.762,2.331-13.112c0.309-1.647,0.561-2.993,0.744-3.968
						c0.079-0.444,0.143-0.802,0.192-1.081C657.899,437.291,657.915,437.16,657.905,437.158z"/>
				</g>
			</g>
		</g>
		<g>
			<g>
				<path style="fill:#E8505B;" d="M655.134,463.635c1.672-4.936,5.877-8.937,10.89-10.362c1.276-0.363,2.88-0.468,3.7,0.575
					c0.821,1.046,0.333,2.586-0.351,3.726c-2.848,4.741-8.774,7.418-14.214,6.42"/>
			</g>
		</g>
		<g>
			<g>
				<g>
					<path style="fill:#263238;" d="M664.77,457.152c-0.006-0.021-0.292,0.051-0.805,0.198c-0.257,0.072-0.572,0.162-0.924,0.306
						c-0.351,0.144-0.768,0.271-1.193,0.491c-0.432,0.206-0.911,0.422-1.392,0.717c-0.497,0.267-0.995,0.607-1.516,0.968
						c-1.023,0.747-2.082,1.668-3.042,2.777c-0.95,1.118-1.702,2.304-2.279,3.433c-0.271,0.574-0.531,1.118-0.711,1.654
						c-0.212,0.523-0.345,1.032-0.474,1.493c-0.145,0.457-0.197,0.89-0.277,1.261c-0.081,0.372-0.112,0.698-0.136,0.964
						c-0.052,0.532-0.07,0.826-0.048,0.828c0.069,0.009,0.149-1.175,0.672-2.994c0.14-0.452,0.283-0.949,0.503-1.461
						c0.187-0.524,0.452-1.055,0.725-1.616c0.582-1.103,1.327-2.262,2.26-3.36c0.943-1.089,1.977-1.999,2.975-2.748
						c0.509-0.361,0.993-0.704,1.478-0.977c0.468-0.301,0.936-0.524,1.356-0.741C663.644,457.519,664.791,457.217,664.77,457.152z"
						/>
				</g>
			</g>
		</g>
	</g>
</g>
</svg>
