<svg id="visual" viewBox="0 0 3000 3000" width="3000" height="3000" xmlns="http://www.w3.org/2000/svg" xmlns:xlink="http://www.w3.org/1999/xlink" version="1.1"><path d="M2609 3000L2619 2875C2629 2750 2649 2500 2644 2250C2639 2000 2609 1750 2594 1500C2579 1250 2579 1000 2579 750C2579 500 2579 250 2579 125L2579 0L3000 0L3000 125C3000 250 3000 500 3000 750C3000 1000 3000 1250 3000 1500C3000 1750 3000 2000 3000 2250C3000 2500 3000 2750 3000 2875L3000 3000Z" fill="#6198ff"></path><path d="M2429 3000L2439 2875C2449 2750 2469 2500 2459 2250C2449 2000 2409 1750 2394 1500C2379 1250 2389 1000 2399 750C2409 500 2419 250 2424 125L2429 0L2580 0L2580 125C2580 250 2580 500 2580 750C2580 1000 2580 1250 2595 1500C2610 1750 2640 2000 2645 2250C2650 2500 2630 2750 2620 2875L2610 3000Z" fill="#4f8cff"></path><path d="M2129 3000L2149 2875C2169 2750 2209 2500 2204 2250C2199 2000 2149 1750 2134 1500C2119 1250 2139 1000 2149 750C2159 500 2159 250 2159 125L2159 0L2430 0L2425 125C2420 250 2410 500 2400 750C2390 1000 2380 1250 2395 1500C2410 1750 2450 2000 2460 2250C2470 2500 2450 2750 2440 2875L2430 3000Z" fill="#3c80ff"></path><path d="M1589 3000L1579 2875C1569 2750 1549 2500 1509 2250C1469 2000 1409 1750 1399 1500C1389 1250 1429 1000 1449 750C1469 500 1469 250 1469 125L1469 0L2160 0L2160 125C2160 250 2160 500 2150 750C2140 1000 2120 1250 2135 1500C2150 1750 2200 2000 2205 2250C2210 2500 2170 2750 2150 2875L2130 3000Z" fill="#2573ff"></path><path d="M899 3000L914 2875C929 2750 959 2500 944 2250C929 2000 869 1750 864 1500C859 1250 909 1000 914 750C919 500 879 250 859 125L839 0L1470 0L1470 125C1470 250 1470 500 1450 750C1430 1000 1390 1250 1400 1500C1410 1750 1470 2000 1510 2250C1550 2500 1570 2750 1580 2875L1590 3000Z" fill="#0066ff"></path><path d="M569 3000L579 2875C589 2750 609 2500 594 2250C579 2000 529 1750 524 1500C519 1250 559 1000 574 750C589 500 579 250 574 125L569 0L840 0L860 125C880 250 920 500 915 750C910 1000 860 1250 865 1500C870 1750 930 2000 945 2250C960 2500 930 2750 915 2875L900 3000Z" fill="#005fee"></path><path d="M359 3000L364 2875C369 2750 379 2500 369 2250C359 2000 329 1750 329 1500C329 1250 359 1000 364 750C369 500 349 250 339 125L329 0L570 0L575 125C580 250 590 500 575 750C560 1000 520 1250 525 1500C530 1750 580 2000 595 2250C610 2500 590 2750 580 2875L570 3000Z" fill="#0059dd"></path><path d="M179 3000L184 2875C189 2750 199 2500 194 2250C189 2000 169 1750 169 1500C169 1250 189 1000 194 750C199 500 189 250 184 125L179 0L330 0L340 125C350 250 370 500 365 750C360 1000 330 1250 330 1500C330 1750 360 2000 370 2250C380 2500 370 2750 365 2875L360 3000Z" fill="#0052cc"></path><path d="M0 3000L0 2875C0 2750 0 2500 0 2250C0 2000 0 1750 0 1500C0 1250 0 1000 0 750C0 500 0 250 0 125L0 0L180 0L185 125C190 250 200 500 195 750C190 1000 170 1250 170 1500C170 1750 190 2000 195 2250C200 2500 190 2750 185 2875L180 3000Z" fill="#004cbb"></path></svg>