<?xml version="1.0" encoding="utf-8"?>
<!-- Generator: Adobe Illustrator 27.5.0, SVG Export Plug-In . SVG Version: 6.00 Build 0)  -->
<svg version="1.1" xmlns="http://www.w3.org/2000/svg" xmlns:xlink="http://www.w3.org/1999/xlink" x="0px" y="0px"
	 viewBox="0 0 1100 800" style="enable-background:new 0 0 1100 800;" xml:space="preserve">
<g id="Background">
	<!-- <rect x="0" y="0" style="fill:#FFFFFF;" width="1100" height="800"/> -->
</g>
<g id="Shadow">
	<g>
		<path style="fill:#F7F7F7;" d="M501.406,645.914c-28.486,0.081-56.971,0.732-85.407,3.74c-10.722,1.134-21.218,3.629-31.964,4.636
			c-21.465,2.01-42.545,5.76-64.086,7.49c-17.346,1.393-34.765,2.215-52.061,3.982c-16.216,1.657-34.168,1.275-50.259-1.463
			c-11.912-2.027-23.879-3.167-35.592-6.423c-13.102-3.641-27.336-6.245-40.987-6.151c-19.466,0.134-38.424,0.149-57.053,6.579
			c-6.54,2.257-14.545,5.967-19.511,10.704c-11.368,10.843-12.907,37.898-1.556,49.144c19.118,18.927,59.922,26.354,86.719,26.705
			c29.365,0.384,57.892-1.689,87.3-2.909c27.326-1.133,54.585-2.745,81.956-2.688c55.904,0.116,111.815,0,167.618-3.552
			c52.428-3.337,104.987-2.192,157.531-2.192c53.88,0,107.397,0.403,160.888,7.214c23.307,2.968,47.052,4.007,70.476,6.086
			c20.978,1.862,41.138-0.037,62.032-1.758c17.545-1.445,34.976-5.732,50.915-12.977c12.617-5.736,35.111-23.554,38.98-37.245
			c10.847-38.382-152.874-37.459-178.011-37.373c-28.121,0.097-56.465,0.977-84.564-0.043c-11.82-0.429-23.465-2.626-35.001-5.034
			c-11.49-2.399-23.067-1.789-34.719-2.797c-48.592-4.203-97.292-3.589-146.039-3.589
			C533.149,646.001,517.278,645.869,501.406,645.914z"/>
	</g>
</g>
<g id="Object">
	<g>
		<polygon style="fill:#F4F4F4;" points="921.623,288.083 875.164,323.646 835.852,330.904 835.852,345.42 893.517,340.759 
			946.64,312.759 936.633,282.572 		"/>
		<polygon style="fill:#EACDB0;" points="838.58,332.444 821.715,331.98 813.557,340.426 815.851,345.023 825.391,346.819 
			838.169,343.15 		"/>
		<g id="XMLID_486_">
			<g id="XMLID_494_">
				<polygon style="fill:#7DB5DB;" points="781.858,703.114 298.361,703.114 298.361,363.383 540.11,229.018 781.858,363.383 				
					"/>
			</g>
			<g id="XMLID_493_">
				<path style="fill:#305399;" d="M875.065,347.671c-36.013-19.975-72.026-39.95-108.039-59.925
					c-58.237-32.301-116.473-64.602-174.71-96.904c-14.071-7.805-27.991-16.026-42.272-23.447c-9.045-4.7-18.211-4.384-26.92,0.517
					c-5.565,3.131-11.036,6.444-16.549,9.663c-53.201,31.066-106.402,62.132-159.603,93.197
					c-43.161,25.203-86.797,49.746-129.545,75.645c-0.708,0.429-1.431,0.836-2.147,1.254c-10.822,6.319-14.662,20.936-8.332,31.751
					c6.352,10.851,20.906,14.672,31.775,8.325c35.009-20.443,70.019-40.886,105.028-61.329
					c55.536-32.429,111.072-64.858,166.607-97.287c8.978-5.242,17.956-10.485,26.935-15.728
					c32.647,18.108,65.294,36.216,97.941,54.324c58.693,32.554,117.386,65.109,176.079,97.663
					c13.436,7.452,26.871,14.905,40.307,22.357c10.965,6.082,25.346,2.657,31.775-8.325
					C889.64,368.757,886.067,353.773,875.065,347.671z"/>
			</g>
			<g id="XMLID_492_">
				<rect x="367.214" y="466.066" style="fill:#FFFFFF;" width="117.892" height="226.934"/>
			</g>
			<g id="XMLID_487_">
				<g id="XMLID_491_">
					<rect x="564.697" y="466.066" style="fill:#FFFFFF;" width="64.127" height="54.646"/>
				</g>
				<g id="XMLID_490_">
					<rect x="648.639" y="466.066" style="fill:#FFFFFF;" width="64.127" height="54.646"/>
				</g>
				<g id="XMLID_489_">
					<rect x="564.697" y="540.847" style="fill:#FFFFFF;" width="64.127" height="54.646"/>
				</g>
				<g id="XMLID_488_">
					<rect x="648.639" y="540.847" style="fill:#FFFFFF;" width="64.127" height="54.646"/>
				</g>
			</g>
		</g>
		<g>
			<path style="fill:#F4F4F4;" d="M172.076,182.008c0,0-6.221,0.616-9.861,5.242c-3.64,4.626-15.165,25.593-15.035,41.869
				s-2.348,36.498,29.351,50.599c15.788,5.232,16.145-9.133,28.773-10.003c12.628-0.87,23.538,3.604,21.808-16.329
				c-1.731-19.933-14.119-24.426-20.991-46.678C199.249,184.455,188.433,175.469,172.076,182.008z"/>
			<polygon style="fill:#F4F4F4;" points="167.519,183.292 139.435,192.94 118.23,196.065 118.547,205.407 139.235,208.351 
				161.478,203.906 			"/>
			<polygon style="fill:#F4F4F4;" points="193.743,180.771 214.225,188.307 231.411,182.134 234.08,187.98 217.87,199.917 
				201.654,201.034 			"/>
			<g>
				<path style="fill:#3B455A;" d="M188.532,140.687c0,0,12.826,8.584,11.659,21.548c0,0,8.408-6.848,4.805-16.384
					c-3.603-9.536-6.008-13.293-14.899-11.278C181.207,136.587,188.532,140.687,188.532,140.687z"/>
				<path style="fill:#EACDB0;" d="M200.059,155.012c-1.557-19.313-25.157-18.536-33.424-3.918
					c-4.701,8.313-5.588,25.448,4.795,29.446c-0.011,1.694-0.124,4.859,1.019,6.115c1.238,1.36,5.658,0.665,7.383,0.449
					c0.479-0.06,0.981-0.144,1.355-0.453c0.469-0.386,0.661-1.536,0.802-2.817c1.246,0.047,2.538-0.062,3.872-0.354
					c5.598-1.226,10.046-5.9,12.244-11.278C200.302,166.822,200.527,160.815,200.059,155.012z"/>
				<path style="fill:#3B455A;" d="M191.529,145.773c-6.61,7.043-17.095,7.496-23.391,14.334c0,0-4.116,4.474-3.061,15.132
					c0,0-10.991,0.471-15.811-10.653c-4.82-11.124,6.276-33.047,6.276-33.047s13.01-9.604,30.072-5.534
					c5.789,1.381,11.003,5.811,9.741,12.507C194.815,141.377,193.413,143.765,191.529,145.773z"/>
			</g>
			<path style="fill:#F4F4F4;" d="M167.289,183.53c0,0-1.294,9.765,3.8,10.87c5.094,1.105,16.843-1.071,18.866-2.86
				c2.805-2.482,0.007-9.664,0.007-9.664l3.782-1.104c0,0,17.483,36.249,3.4,41.693c-14.083,5.444-31.909,6.984-34.826-4.467
				c-2.917-11.451,1.251-32.906,1.251-32.906L167.289,183.53z"/>
			<polygon style="fill:#EACDB0;" points="118.264,197.073 107.886,194.593 107.42,196.81 114.492,202.981 112.725,204.143 
				114.025,205.198 118.501,204.033 			"/>
			<polygon style="fill:#EACDB0;" points="231.663,182.89 234.335,179.535 239.585,179.902 240.991,184.07 238.602,188.188 
				234.061,187.692 			"/>
		</g>
		<g>
			<g>
				<g>
					<polygon style="fill:#3B455A;" points="273.276,424.423 275.867,536.724 256.716,681.79 240.689,681.983 229.005,548.482 
						205.512,415.124 					"/>
					<polygon style="fill:#3B455A;" points="240.758,680.045 240.861,688.844 258.295,697.435 266.858,688.531 258.09,679.836 					
						"/>
				</g>
				<polygon style="fill:#3B455A;" points="186.219,684.284 200,696.179 196.555,703.176 171.06,697.578 171.06,684.284 				"/>
				<polygon style="fill:#3B455A;" points="217.698,468.6 206.243,577.451 191.128,685.951 169.572,684.91 170.358,572.353 
					157.382,467.957 187.857,453.542 				"/>
			</g>
			<path style="fill:#587BC9;" d="M230.407,268.486c0,0,26.62,17.876,43.538,75.846c17.228,59.032,14.684,137.127,14.684,137.127
				s-151.418,26.021-148.282,0.41c0,0-5.003-206.851,62.184-211.931C205.586,269.707,228.758,267.2,230.407,268.486z"/>
			<path style="fill:#FFFFFF;" d="M222.634,267.996c11.424,28.281,21.327,61.251,33.063,89.402
				c6.954,16.681,7.027,34.103,8.02,51.869c0.987,17.663,1.973,35.327,2.96,52.99c0.417,7.463,0.834,14.926,1.251,22.389
				l-63.286,6.746c3.646-21.396,7.812-42.704,11.067-64.167c3.002-19.795,7.607-42.018,4.022-61.974
				c-1.745-9.714-3.632-19.421-5.424-29.133c-3.288-17.819-4.758-36.053-8.201-53.842c-0.241-1.244,1.096-11.677,1.485-12.923
				L222.634,267.996z"/>
			<polygon style="fill:#587BC9;" points="230.191,267.996 243.242,271.484 298.198,320.312 289.955,346.819 263.164,346.819 			"/>
		</g>
		<g>
			<g>
				<polygon style="fill:#3B455A;" points="983.986,679.078 984.681,686.047 972.233,694.736 964.968,688.628 970.845,680.799 
					983.292,672.11 				"/>
				<polygon style="fill:#CAB5A1;" points="983.676,466.029 985.784,487.192 967.118,559.903 984.451,676.743 971.692,681.214 
					938.049,567.143 932.71,533.958 932.904,463.706 				"/>
			</g>
			<g>
				<polygon style="fill:#CAB5A1;" points="885.547,489.616 912.383,685.399 924.582,685.399 926.777,559.903 948.979,471.818 				
					"/>
				<polygon style="fill:#3B455A;" points="924.512,683.851 924.512,690.883 911.32,697.916 904.725,690.883 911.32,683.851 				"/>
			</g>
			<g>
				<path style="fill:#BCBEC0;" d="M983.002,442.501c-10.419-69.521-6.698-120.151-7.238-134.052
					c-0.54-13.902-10.149-21.116-10.149-21.116c-4.221-0.956-7.891-3.713-12.15-4.801c-28.806-7.359-44.518,14.975-55.3,39.064
					c-13.286,29.68-24.448,60.35-33.472,91.637c-7.92,27.459-15.857,55.165-19.178,83.662c-1.37,11.758-2.514,22.909,10.164,28.096
					c20.202,8.266,42.905,8.085,64.243,10.736c24.51,3.044,49.054,5.269,73.728,6.31
					C1006.53,542.581,993.421,512.023,983.002,442.501z"/>
			</g>
		</g>
		<g>
			<path style="fill:#EACDB0;" d="M206.215,273.101l0.037,3.341l-17.254,41.139l-7.627-2.562l4.466-40.042l11.869-6.841
				C201.478,265.961,206.166,268.695,206.215,273.101z"/>
			<polygon style="fill:#3A3029;" points="190.004,317.11 194.125,324.641 190.905,326.534 180.825,319.711 181.497,314.252 			"/>
		</g>
		<g>
			<path style="fill:#E0C5A9;" d="M239.079,260.092l1.983,2.667l10.157,43.509l-7.637,2.534l-19.809-34.919l5.554-12.659
				C231.093,257.2,236.464,256.577,239.079,260.092z"/>
			<polygon style="fill:#3A3029;" points="251.753,306.008 259.472,309.586 257.986,313.05 245.886,313.633 243.236,308.835 			"/>
		</g>
		<g>
			<path style="fill:#EACDB0;" d="M223.711,275.368c-4.932-0.806-9.864-1.612-14.797-2.418c0.193-4.041,0.706-8.066,1.53-12.024
				c-4.047-1.732-8.694-4.241-9.152-8.677c-0.144-1.397,0.176-2.796,0.494-4.163c1.314-5.652,2.628-11.304,3.942-16.956
				c0.454-1.955,0.934-3.966,2.093-5.594c2.035-2.856,5.715-3.933,9.165-4.324c8.803-0.998,18.18,1.504,24.587,7.714
				c1.705,1.653,3.22,3.607,3.877,5.905c1.014,3.544-0.129,7.314-1.263,10.82c-1.047,3.236-2.095,6.473-3.142,9.709
				c-1.205,3.722-2.874,7.935-6.549,9.132c-1.951,0.635-4.188,0.277-5.98,1.284C225.356,267.556,225.491,272.175,223.711,275.368z"
				/>
			<path style="fill:#3B455A;" d="M275.687,221.33c0.336-3.91,0.037-7.907-0.515-11.527c-0.949-6.22-7.91-9.428-14.055-10.253
				c-13.273-1.781-25.761-8.729-39.069-4.814c-7.607,2.238-17.64,2.257-24.607,5.649c-2.909,1.417-5.304,3.763-7.219,6.4
				c-6.634,9.137-7.452,22.249-2.008,32.163c1.221,2.224,2.719,4.281,4.304,6.254c3.281,4.085,7.196,9.122,11.942,10.853
				c0.378-4.382-2.731-18.465,0.804-21.858c5.61-5.383,17.402-2.657,23.853-0.848c7.037,1.973,13.084,7.492,20.085,9.023
				c5.038,1.102,11.68-1.03,16.165-3.432C272.395,235.178,275.079,228.396,275.687,221.33z"/>
		</g>
		<polygon style="fill:#587BC9;" points="186.092,275.018 107.468,324.372 123.908,351.227 172.511,328.001 		"/>
		<polygon style="fill:#587BC9;" points="160.852,254.319 107.353,324.385 123.907,351.402 142.491,342.517 172.782,263.102 		"/>
		<polygon style="fill:#EACDB0;" points="163.213,256.057 170.367,246.712 187.521,243.809 190.38,251.067 181.803,258.325 
			170.947,261.751 		"/>
		<g>
			<path style="fill:#969696;" d="M153.13,588.41c0,0,5.074,4.339,8.599-4.094c3.526-8.433,7.206-7.224,9.245-4.246
				c2.04,2.978-2.333,2.773-4.669,9.393c-3.723,10.554-8.691,18.634-10.48,19.746c-1.789,1.112-7.233,3.79-7.342,7.955
				c-0.109,4.165-5.289-12.593-4.792-13.401C144.189,602.955,153.13,588.41,153.13,588.41z"/>
			<path style="fill:#DEE0DF;" d="M155.548,600.694c0,0,3.393,5.788,9.446-1.006c6.053-6.794,9.139-4.426,10.105-0.934
				c0.966,3.492-3.099,1.843-7.442,7.32c-6.924,8.732-14.225,14.713-16.275,15.167c-2.049,0.455-8.057,1.173-9.504,5.072
				c-1.448,3.899-0.932-13.658-0.202-14.256C142.405,611.46,155.548,600.694,155.548,600.694z"/>
			<path style="fill:#969696;" d="M113.978,638.479c0,0,6.836,19.269,3.492,24.526c-3.344,5.257-12.584,22.671-11.184,25.621
				c1.4,2.95,0.679,4.285-1.803,3.338c-2.481-0.947-5.917-3.295-4.496-9.884c1.421-6.589,4.278-14.243,2.136-19.777
				c-2.142-5.534,2.639-21.829,2.639-21.829L113.978,638.479z"/>
			<path style="fill:#DEE0DF;" d="M120.894,570.103c0,0-7.061-1.107-6.559,7.072c0.502,8.179-7.148,22.42-19.721,32.978
				c-12.29,10.32-23.789,26.317-9.541,44.408c14.248,18.091,41.285-0.704,47.097-11.057c5.812-10.353,22.017-16.925,25.34-32.224
				c3.323-15.299-5.083-22.312-5.483-27.058C151.625,579.477,120.894,570.103,120.894,570.103z"/>
			<path style="fill:#DEE0DF;" d="M114.221,653.415c0,0,3.639,9.859-3.672,16.875c-7.311,7.016-14.041,10.195-16.673,15.297
				c-2.632,5.103,3.131,6.834-1.257,6.828c-4.388-0.006-7.334-0.692-6.943-6.221s9.301-10.331,8.093-18.073
				c-1.208-7.742-7.081-9.328-7.765-15.035c-0.684-5.707,16.673-15.297,16.673-15.297l12.6,16.017L114.221,653.415z"/>
			<path style="fill:#DEE0DF;" d="M81.288,645.746c-1.079,0.499-6.748,3.252-11.598-2.045c-4.85-5.297-5.11-12.848,0.362-17.494
				c5.472-4.646,9.603,0.393,9.11,2.106c-0.493,1.714-6.389,8.319-0.296,13.482C81.803,643.7,81.288,645.746,81.288,645.746z"/>
			<path style="fill:#305399;" d="M153.644,581.183l-1.922,2.497c0,0-10.891,6.833-28.036-5.206
				c-7.257-6.844-5.898-8.636-5.898-8.636l3.172-0.071C120.959,569.769,130.813,586.159,153.644,581.183z"/>
			<path style="fill:#3B455A;" d="M132.206,541.955c0,0,0.739-2.125,4.077-3.037c3.337-0.913,9.786,3.396,11.13,3.542
				c1.344,0.146,4.505,0.147,1.785,2.04C146.476,546.392,134.502,545.045,132.206,541.955z"/>
			<path style="fill:#DEE0DF;" d="M122.436,552.282c0,0,3.533-8.748,11.378-10.765c4.635-1.192,9.282-0.252,13.496,1.892
				c2.146,1.092,3.995,2.596,6.055,3.81c1.367,0.805,2.864,0.954,4.226,1.864c3.224,2.154,5.656,6.877,5.558,10.795
				c-0.098,3.918,6.615,13.67-4.854,19.329s-29.304,2.241-34.265-3.287C119.069,570.392,114.44,564.688,122.436,552.282z"/>
			<path style="fill:#3B455A;" d="M124.623,552.696c0,0-4.132-1.315-6.774,0.947c-2.643,2.262-5.157,2.308-4.258,5.697
				c0.899,3.389,2.394,12.045,7.034,13.662c4.64,1.617,2.004-5.145,3.462-8.066C125.543,562.015,127.063,553.191,124.623,552.696z"
				/>
		</g>
		<g>
			<g>
				<polygon style="fill:#3B455A;" points="824.566,607.819 824.566,688.701 836.589,688.701 844.103,639.867 850.866,602.478 				
					"/>
				<polygon style="fill:#3B455A;" points="850.866,599.426 855.374,634.526 861.386,690.99 873.409,690.227 873.409,646.734 
					879.42,602.478 				"/>
				<path style="fill:#FFFFFF;" d="M845.23,481.538c0,0-12.774-2.289-18.034,17.55c-5.26,19.839-19.537,77.829-20.289,108.35
					c-0.751,30.521,18.786,10.682,42.08,14.498c23.294,3.815,42.456,4.197,42.456-9.538
					C891.443,598.663,899.709,481.919,845.23,481.538z"/>
				<g>
					<g>
						<path style="fill:#EACDB0;" d="M837.897,442.106c10.64-19.053,34.477-6.862,36.11,12.12
							c0.929,10.794-6.186,28.794-18.705,27.881c-0.781,1.742-2.148,5.043-3.908,5.779c-1.907,0.797-6.113-2.05-7.781-3.105
							c-0.463-0.292-0.938-0.621-1.178-1.119c-0.3-0.623,0.042-1.894,0.497-3.276c-1.299-0.553-2.573-1.289-3.804-2.233
							c-5.166-3.96-7.539-10.9-7.275-17.477C832.118,454.1,834.7,447.831,837.897,442.106z"/>
					</g>
					<path style="fill:#3B455A;" d="M852.747,437.155c0,0,17.025,4.322,17.025,11.525c0,10.829,0.709,18.096,0,24.535l12.059-7.247
						l7.094-20.169c0,0-1.419-16.567-9.931-19.449c-8.512-2.881-26.247-5.762-26.247-5.762l-13.478,4.322l-9.931-0.72l3.434,30.253
						C832.772,454.442,837.141,432.833,852.747,437.155z"/>
				</g>
				<polygon style="fill:#3B455A;" points="824.566,688.701 817.803,695.568 820.808,700.146 834.334,695.568 834.334,688.701 				
					"/>
				<polygon style="fill:#3B455A;" points="863.39,690.863 865.894,700.909 874.16,703.961 878.669,701.672 871.67,690.337 				"/>
			</g>
			<polygon style="fill:#FFFFFF;" points="856.397,483.478 868.962,487.723 893.005,518.415 917.048,533.761 912.24,543.526 
				879.266,533.761 			"/>
			<polygon style="fill:#FFFFFF;" points="842.859,481.445 829.12,483.538 800.268,503.766 774.851,490.513 767.982,499.581 
				798.894,524.693 834.615,511.439 			"/>
		</g>
		<g>
			<polygon style="fill:#FFFFFF;" points="975.945,324.979 909.472,375.178 834.564,370.967 834.994,355.606 899.067,348.331 
				949.659,304.274 976.745,295.815 			"/>
			<polygon style="fill:#EACDB0;" points="835.095,355.977 818.229,355.514 810.072,363.959 812.365,368.556 821.906,370.352 
				834.684,366.683 			"/>
		</g>
		<g>
			<path style="fill:#3B455A;" d="M939.924,228.943c0,0-7.586,3.646-9.337,23.678c-1.751,20.032-6.627,32.237-6.627,32.237
				s5.791,4.66,11.276,2.844c5.485-1.815,7.412-1.969,7.549-10.252c0.136-8.283,5.716-46.542,5.716-46.542L939.924,228.943z"/>
			<path style="fill:#1A3151;" d="M953.97,239.404c-7.699,0.187-15.034,5.54-17.674,12.899c-3.026-4.727-3.635-10.965-1.582-16.208
				c2.053-5.243,6.713-9.351,12.108-10.674c3.879,3.54,6.3,8.682,6.58,13.976L953.97,239.404z"/>
			<path style="fill:#EACDB0;" d="M936.903,245.528c8.618-19.061,32.342-9.407,35.427,8.568
				c1.755,10.222-3.585,27.985-15.603,28.152c-0.605,1.727-1.644,4.989-3.264,5.837c-1.755,0.918-5.997-1.449-7.674-2.317
				c-0.465-0.241-0.945-0.515-1.214-0.969c-0.336-0.569-0.112-1.811,0.21-3.167c-1.284-0.42-2.558-1.016-3.809-1.815
				c-5.248-3.35-8.07-9.775-8.347-16.071C932.354,257.451,934.313,251.256,936.903,245.528z"/>
			<path style="fill:#3B455A;" d="M947.307,225.489c0,0-5.027,10.248,7.884,16.704c12.912,6.456,19.122,19.539,13.966,30.395
				c-5.156,10.855-17.309,16.747-12.705,21.107c4.604,4.36,24.925,6.288,24.925,6.288s21.747-37.38,9.999-58.898
				C979.629,219.567,956.632,213.126,947.307,225.489z"/>
		</g>
		<g>
			<path style="fill:#587BC9;" d="M888.277,500.382c-12.888-5.631-32.128-3.387-40.172,7.799
				c0.071-13.851-17.799-28.361-31.462-31.603c-36.054-8.555-61.897,30.63-56.447,64.61c2.933,18.289,9.996,35.782,18.556,52.231
				c7.168,13.775,27.183,44.597,27.289,44.551c0.059,0.102,34.188-12.628,48.011-19.388c16.508-8.072,32.421-17.888,45.477-30.834
				C923.787,563.698,922.288,515.241,888.277,500.382z"/>
		</g>
		<polygon style="fill:#EACDB0;" points="775.982,489.328 770.043,489.118 766.608,498.186 767.982,500.139 770.043,497.256 
			777.599,498.186 780.347,491.908 		"/>
		<polygon style="fill:#EACDB0;" points="919.109,542.131 916.014,545.851 915.912,542.712 908.805,538.643 909.492,530.971 
			919.109,533.063 		"/>
	</g>
</g>
</svg>
